<?xml version="1.0" standalone="no"?>
<!DOCTYPE svg PUBLIC "-//W3C//DTD SVG 1.1//EN" "http://www.w3.org/Graphics/SVG/1.1/DTD/svg11.dtd" >
<svg xmlns="http://www.w3.org/2000/svg" xmlns:xlink="http://www.w3.org/1999/xlink" version="1.1">
<metadata>
Created by FontForge 20170731 at Wed Apr 28 18:05:15 2021
 By Aleksey,,,
Copyright (C) 2000-2005, House Industries/Brand Design Co. Inc. All rights reserved.
</metadata>
<defs>
<font id="Chalet-NewYorkNineteenSixty" horiz-adv-x="1366" >
  <font-face 
    font-family="Chalet-NewYorkNineteenSixty"
    font-weight="700"
    font-stretch="normal"
    units-per-em="2048"
    panose-1="0 0 0 0 0 0 0 0 0 0"
    ascent="1638"
    descent="-410"
    x-height="1055"
    cap-height="1421"
    bbox="-94 -516 2398 2001"
    underline-thickness="102"
    underline-position="-204"
    unicode-range="U+0020-FB02"
  />
<missing-glyph horiz-adv-x="1024" 
 />
    <glyph glyph-name="ffl" unicode="ffl" horiz-adv-x="1730" 
d="M1604 1524v-1524h-271v1524h271zM414 795v-795h-271v795h-127v258h127q3 214 128.5 339.5t342.5 100.5v-242q-100 6 -149.5 -42t-50.5 -156h311q3 214 128.5 339.5t342.5 100.5v-242q-100 6 -150 -42t-51 -156h191v-258h-191v-795h-270v795h-311z" />
    <glyph glyph-name="ffi" unicode="ffi" horiz-adv-x="1703" 
d="M1573 1421v-252h-270v252h270zM1196 1493v-242q-100 6 -150 -42t-51 -156h578v-1053h-270v795h-308v-795h-270v795h-311v-795h-271v795h-127v258h127q3 214 128.5 339.5t342.5 100.5v-242q-100 6 -149.5 -42t-50.5 -156h311q3 214 128.5 339.5t342.5 100.5z" />
    <glyph glyph-name="ff" unicode="ff" horiz-adv-x="1224" 
d="M414 795v-795h-271v795h-127v258h127q3 214 128.5 339.5t342.5 100.5v-242q-100 6 -149.5 -42t-50.5 -156h311q3 214 128.5 339.5t342.5 100.5v-242q-100 6 -150 -42t-51 -156h191v-258h-191v-795h-270v795h-311z" />
    <glyph glyph-name="fi" unicode="fi" horiz-adv-x="1122" 
d="M991 1421v-252h-270v252h270zM721 795h-307v-795h-271v795h-127v258h127q3 214 128.5 339.5t342.5 100.5v-242q-100 6 -149.5 -42t-50.5 -156h577v-1053h-270v795z" />
    <glyph glyph-name="fl" unicode="fl" horiz-adv-x="1148" 
d="M1022 1524v-1524h-270v1524h270zM414 1053h190v-258h-190v-795h-271v795h-127v258h127q3 214 128.5 339.5t342.5 100.5v-242q-100 6 -149.5 -42t-50.5 -156z" />
    <glyph glyph-name=".notdef" horiz-adv-x="1024" 
 />
    <glyph glyph-name=".notdef" horiz-adv-x="1024" 
 />
    <glyph glyph-name=".null" horiz-adv-x="0" 
 />
    <glyph glyph-name="nonmarkingreturn" horiz-adv-x="682" 
 />
    <glyph glyph-name="space" unicode=" " horiz-adv-x="630" 
 />
    <glyph glyph-name="exclam" unicode="!" horiz-adv-x="587" 
d="M430 1421v-997h-270v997h270zM430 268v-268h-270v268h270z" />
    <glyph glyph-name="quotedbl" unicode="&#x22;" horiz-adv-x="763" 
d="M434 1421h262l-45 -587h-174zM68 1421h264l-47 -587h-172z" />
    <glyph glyph-name="numbersign" unicode="#" horiz-adv-x="1101" 
d="M881 885l-52 -353h175l-29 -196h-176l-37 -260h-203l39 260h-203l-37 -260h-202l39 260h-177l29 196h174l51 353h-174l29 194h176l37 267h203l-37 -267h201l36 267h205l-39 -267h174l-28 -194h-174zM678 885h-201l-51 -353h199z" />
    <glyph glyph-name="dollar" unicode="$" horiz-adv-x="1009" 
d="M563 94v-119h-133v121q-161 20 -267 128t-106 284h234q0 -76 38 -123.5t101 -65.5v312q-53 12 -96.5 26.5t-93.5 42t-84.5 62.5t-57 88.5t-22.5 118.5q0 147 94.5 244t259.5 114v119h133v-119q162 -20 256 -125t94 -264h-235q0 60 -30 103.5t-85 60.5v-275
q68 -16 117 -32.5t101.5 -45t85.5 -64t54 -90.5t21 -124q0 -157 -100.5 -257.5t-278.5 -119.5zM430 860v244q-56 -12 -87.5 -45.5t-31.5 -83.5q0 -40 28 -66.5t91 -48.5zM709 455q0 54 -29 87.5t-117 59.5v-287q65 11 105.5 46.5t40.5 93.5z" />
    <glyph glyph-name="percent" unicode="%" horiz-adv-x="1634" 
d="M403 1421q153 0 256 -104t103 -254q0 -149 -103 -252.5t-256 -103.5q-151 0 -254.5 103.5t-103.5 252.5q0 150 103 254t255 104zM317 0l781 1421h219l-780 -1421h-220zM1231 0q-153 0 -256 104t-103 254q0 149 103.5 254t255.5 105q151 0 254.5 -105t103.5 -254
q0 -150 -103 -254t-255 -104zM403 899q64 0 110 48t46 116t-46 116t-110 48q-63 0 -108 -48t-45 -116t45 -116t108 -48zM1231 522q-64 0 -110 -48t-46 -116q0 -67 45.5 -115t110.5 -48q63 0 109 48t46 115t-46 115.5t-109 48.5z" />
    <glyph glyph-name="ampersand" unicode="&#x26;" horiz-adv-x="1351" 
d="M1012 0l-62 76q-147 -101 -366 -101q-217 0 -366.5 129t-149.5 322q0 136 78.5 239t197.5 173l-12 14q-99 123 -99 262q0 147 100.5 245.5t254.5 98.5q150 0 247 -97.5t97 -244.5q0 -197 -232 -334l256 -319q31 98 25 254h242q13 -279 -99 -465l201 -252h-313zM481 1122
q0 -67 64 -145l14 -16q129 77 129 172q0 44 -28 72t-74 28q-45 0 -75 -31t-30 -80zM797 268l-312 391q-163 -96 -163 -233q0 -89 76 -150t186 -61q127 0 213 53z" />
    <glyph glyph-name="quotesingle" unicode="'" horiz-adv-x="399" 
d="M68 1421h262l-45 -587h-174z" />
    <glyph glyph-name="parenleft" unicode="(" horiz-adv-x="665" 
d="M434 1618h215q-148 -193 -229.5 -431.5t-81.5 -496.5t81.5 -496.5t229.5 -431.5h-215q-158 161 -255 413.5t-97 514.5t97 514.5t255 413.5z" />
    <glyph glyph-name="parenright" unicode=")" horiz-adv-x="665" 
d="M231 1618q159 -162 256 -414.5t97 -513.5t-97 -513.5t-256 -414.5h-213q147 193 228.5 431.5t81.5 496.5t-81.5 496.5t-228.5 431.5h213z" />
    <glyph glyph-name="asterisk" unicode="*" horiz-adv-x="800" 
d="M745 1038l-217 4l113 -184l-137 -80l-105 191l-104 -191l-135 80l110 184l-215 -4v158l215 -6l-112 188l137 78l104 -192l105 192l137 -78l-113 -188l217 6v-158z" />
    <glyph glyph-name="plus" unicode="+" horiz-adv-x="1073" 
d="M997 440h-325v-336h-271v336h-325v252h325v334h271v-334h325v-252z" />
    <glyph glyph-name="comma" unicode="," horiz-adv-x="479" 
d="M385 289v-324q0 -134 -72 -211.5t-192 -89.5v127q62 13 94.5 58t32.5 114v37h-154v289h291z" />
    <glyph glyph-name="hyphen" unicode="-" horiz-adv-x="677" 
d="M61 442v252h555v-252h-555z" />
    <glyph glyph-name="hyphen" unicode="&#xad;" horiz-adv-x="677" 
d="M61 442v252h555v-252h-555z" />
    <glyph glyph-name="period" unicode="." horiz-adv-x="479" 
d="M385 289v-289h-291v289h291z" />
    <glyph glyph-name="slash" unicode="/" horiz-adv-x="690" 
d="M4 0l432 1524h281l-432 -1524h-281z" />
    <glyph glyph-name="zero" unicode="0" horiz-adv-x="1198" 
d="M600 1423q79 0 152.5 -23.5t142.5 -78.5t119.5 -136.5t81 -206.5t30.5 -280t-30.5 -280t-81 -206.5t-119.5 -136.5t-142.5 -78.5t-152.5 -23.5q-66 0 -128 17t-122.5 52t-110 93.5t-87.5 136.5t-59 187t-21 239t21 239t59 187t87.5 136.5t110 93.5t122.5 52t128 17z
M600 223q48 0 87 19.5t65 50t46 73.5t31 85.5t18 91t9 84.5t2 71q0 53 -4.5 105.5t-20.5 123.5t-42 123t-75.5 89t-115.5 37q-56 0 -100 -25t-71 -68t-46 -91.5t-27.5 -106.5t-12 -101t-3.5 -86q0 -35 2 -71t9 -84.5t18 -91t31 -85.5t46.5 -73.5t66 -50t87.5 -19.5z" />
    <glyph glyph-name="one" unicode="1" horiz-adv-x="860" 
d="M582 1421v-1421h-271v991h-221v176q105 2 185 66.5t90 187.5h217z" />
    <glyph glyph-name="two" unicode="2" horiz-adv-x="1153" 
d="M369 252h684v-252h-985v121q0 92 24.5 172.5t62.5 139t97.5 112.5t114.5 90t129 76q96 51 156 92t88.5 75.5t37 60.5t8.5 62q0 77 -50.5 127t-151.5 50q-104 0 -165 -71.5t-61 -182.5h-272q0 99 32.5 188.5t93 160t156.5 112.5t214 42t211.5 -37.5t149.5 -99.5t85 -136.5
t29 -154.5q0 -56 -12 -105.5t-29 -88t-51 -76.5t-63 -64t-81 -60t-88.5 -54.5t-101.5 -56.5q-121 -66 -188.5 -124t-73.5 -118z" />
    <glyph glyph-name="three" unicode="3" horiz-adv-x="1142" 
d="M1077 424q0 -85 -33.5 -164.5t-96 -143.5t-162.5 -102.5t-222 -38.5q-124 0 -222.5 37.5t-160.5 103t-95.5 152t-35.5 187.5h270q2 -108 66 -169t176 -61q113 0 179.5 56.5t66.5 146.5q0 180 -232 180h-90v236h56q225 0 225 164q0 78 -51.5 124t-143.5 46
q-102 0 -156.5 -61t-54.5 -148h-270q0 93 33 176t93 146t152 99.5t203 36.5q114 0 204.5 -33.5t144.5 -90t82 -124.5t28 -143q0 -94 -46 -170t-134 -118q79 -23 132 -76t74 -114.5t21 -133.5z" />
    <glyph glyph-name="four" unicode="4" horiz-adv-x="1134" 
d="M1073 289h-151v-289h-252v289h-621v239l557 893h316v-893h151v-239zM670 528v564l-353 -564h353z" />
    <glyph glyph-name="five" unicode="5" horiz-adv-x="1126" 
d="M1061 457q0 -135 -66 -245.5t-182 -173.5t-258 -63q-214 0 -351 118t-149 302h273q15 -77 76 -120.5t151 -43.5q97 0 166.5 60t69.5 174q0 106 -63 174t-163 68q-66 0 -124.5 -32.5t-96.5 -90.5l-244 65l84 772h789v-252h-580l-35 -297q108 68 226 68q204 0 340.5 -137
t136.5 -346z" />
    <glyph glyph-name="six" unicode="6" horiz-adv-x="1153" 
d="M1098 457q0 -209 -140.5 -345.5t-357.5 -136.5q-80 0 -153.5 21.5t-142.5 72t-120 125t-81.5 189.5t-30.5 258q0 375 143.5 587t398.5 212q187 0 310 -109t153 -295h-272q-13 66 -61.5 110t-129.5 44q-115 0 -183.5 -96t-84.5 -256q114 90 268 90q209 0 346.5 -132
t137.5 -339zM829 451q0 100 -64 168.5t-165 68.5t-165 -68.5t-64 -168.5q0 -99 64 -167.5t165 -68.5t165 68.5t64 167.5z" />
    <glyph glyph-name="seven" unicode="7" horiz-adv-x="1056" 
d="M1022 1421v-237q-242 -196 -370 -500.5t-128 -683.5h-270q0 369 111 675.5t321 493.5h-651v252h987z" />
    <glyph glyph-name="eight" unicode="8" horiz-adv-x="1140" 
d="M1077 410q0 -186 -145.5 -310.5t-362.5 -124.5q-142 0 -258 56.5t-182 156.5t-66 222q0 111 55 203.5t152 150.5q-147 115 -147 293q0 164 127 273.5t319 109.5t320.5 -109.5t128.5 -273.5q0 -178 -148 -291q98 -58 152.5 -150t54.5 -206zM379 1040q0 -79 57 -124.5
t133 -45.5q78 0 135.5 45.5t57.5 124.5q0 80 -58 123t-135 43t-133.5 -42.5t-56.5 -123.5zM815 422q0 102 -72.5 155.5t-173.5 53.5q-100 0 -171.5 -53.5t-71.5 -155.5q0 -69 37 -118.5t90.5 -71t115.5 -21.5q63 0 117 21.5t91.5 71t37.5 118.5z" />
    <glyph glyph-name="nine" unicode="9" horiz-adv-x="1148" 
d="M547 -25q-176 0 -299 95t-160 254h291q16 -44 60 -72.5t110 -28.5q130 0 193 93.5t71 273.5q-42 -52 -119.5 -83.5t-161.5 -31.5q-201 0 -339 134t-138 343q0 212 140.5 350t357.5 138q83 0 156.5 -22t141 -72t116.5 -125.5t78.5 -190t31.5 -256.5q3 -387 -128 -593
t-402 -206zM782 952q0 105 -64 177.5t-165 72.5t-165 -72.5t-64 -177.5q0 -103 64 -174t165 -71t165 71t64 174z" />
    <glyph glyph-name="colon" unicode=":" horiz-adv-x="501" 
d="M397 1018v-289h-291v289h291zM397 289v-289h-291v289h291z" />
    <glyph glyph-name="semicolon" unicode=";" horiz-adv-x="501" 
d="M397 1018v-289h-291v289h291zM258 0h-152v289h291v-324q0 -134 -72 -211.5t-192 -89.5v127q62 13 93.5 58t31.5 114v37z" />
    <glyph glyph-name="semicolon" unicode="&#x37e;" horiz-adv-x="501" 
d="M397 1018v-289h-291v289h291zM258 0h-152v289h291v-324q0 -134 -72 -211.5t-192 -89.5v127q62 13 93.5 58t31.5 114v37z" />
    <glyph glyph-name="less" unicode="&#x3c;" horiz-adv-x="919" 
d="M856 786l-526 -221l526 -223v-276l-793 364v268l793 367v-279z" />
    <glyph glyph-name="equal" unicode="=" horiz-adv-x="1034" 
d="M958 922v-252h-882v252h882zM958 461v-250h-882v250h882z" />
    <glyph glyph-name="greater" unicode="&#x3e;" horiz-adv-x="921" 
d="M858 698v-268l-795 -364v276l527 223l-527 221v279z" />
    <glyph glyph-name="question" unicode="?" horiz-adv-x="1130" 
d="M336 991h-268q0 208 133 335.5t358 127.5q222 0 349.5 -115.5t127.5 -300.5q0 -116 -61.5 -198.5t-177.5 -159.5q-71 -47 -101 -95t-30 -114v-47h-248v47q0 62 14 115.5t33 90t52.5 72.5t58.5 56t65 49q70 50 98.5 90.5t28.5 93.5q0 75 -56 121.5t-153 46.5
q-107 0 -165 -60t-58 -155zM676 268v-268h-270v268h270z" />
    <glyph glyph-name="at" unicode="@" horiz-adv-x="1525" 
d="M1217 313h243q-214 -340 -645 -340q-209 0 -381 95.5t-271.5 265.5t-99.5 379q0 206 98 376.5t265.5 267.5t366.5 97q102 0 198 -23.5t182 -73t150 -120.5t101.5 -173t37.5 -222q0 -132 -52.5 -245t-144.5 -179t-200 -66q-70 0 -123.5 30t-83.5 81q-89 -115 -211 -115
q-131 0 -195 116.5t-14 285.5q39 137 143 231t212 94q104 0 149 -86l16 53h185l-123 -397q-16 -51 1 -78.5t52 -27.5q76 0 131.5 90t55.5 207q0 88 -27 161t-72 123t-105.5 84.5t-126.5 50t-136 15.5q-143 0 -264.5 -74.5t-192 -203t-70.5 -279.5q0 -155 71.5 -282
t197.5 -199t280 -72q123 0 228.5 41.5t173.5 111.5zM852 715q23 72 7 122t-62 50q-45 0 -93.5 -49t-72.5 -123q-22 -71 -6 -121.5t61 -50.5q46 0 94.5 50.5t71.5 121.5z" />
    <glyph glyph-name="A" unicode="A" 
d="M963 285h-568l-96 -285h-287l496 1421h342l496 -1421h-287zM877 537l-199 583l-199 -583h398z" />
    <glyph glyph-name="B" unicode="B" horiz-adv-x="1333" 
d="M1270 418q0 -191 -121 -304.5t-326 -113.5h-692v1421h655q210 0 319 -101.5t109 -283.5q0 -178 -139 -278q93 -48 144 -134.5t51 -205.5zM786 1176h-385v-314h385q70 0 118 44.5t48 113.5q0 71 -45 113.5t-121 42.5zM993 428q0 89 -55 137.5t-158 48.5h-379v-366h385
q89 0 148 42t59 138z" />
    <glyph glyph-name="C" unicode="C" horiz-adv-x="1449" 
d="M1401 451q-68 -219 -239.5 -347.5t-405.5 -128.5q-143 0 -270.5 58t-219 156.5t-145 236.5t-53.5 291q0 205 90.5 375t248.5 268t349 98q239 0 409.5 -126.5t237.5 -346.5h-293q-49 101 -142 163t-212 62q-114 0 -210.5 -67t-152 -180.5t-55.5 -245.5q0 -133 55.5 -247
t152 -181.5t210.5 -67.5q117 0 210.5 64.5t143.5 165.5h291z" />
    <glyph glyph-name="D" unicode="D" 
d="M1298 711q0 -325 -174.5 -518t-466.5 -193h-526v1421h526q296 0 468.5 -191t172.5 -519zM1028 713q0 68 -9 128t-34 122t-65 106t-107.5 72t-155.5 28h-256v-917h256q67 0 122 17t92.5 44t66.5 66.5t45.5 79.5t27 87.5t14 86.5t3.5 80z" />
    <glyph glyph-name="E" unicode="E" horiz-adv-x="1245" 
d="M1184 252v-252h-1053v1421h1038v-252h-768v-303h656v-252h-656v-362h783z" />
    <glyph glyph-name="F" unicode="F" horiz-adv-x="1200" 
d="M401 1169v-338h641v-251h-641v-580h-270v1421h1016v-252h-746z" />
    <glyph glyph-name="G" unicode="G" horiz-adv-x="1531" 
d="M1430 791v-791h-250v154q-71 -85 -181 -132t-241 -47q-143 0 -271 57.5t-219.5 156t-145.5 236t-54 290.5q0 205 91 375t249.5 268t349.5 98q236 0 407.5 -126t237.5 -347h-291q-43 98 -139 162.5t-215 64.5q-116 0 -213 -67t-152 -181t-55 -247q0 -132 57 -245.5
t156.5 -181t218.5 -67.5q148 0 260.5 90t151.5 228h-385v252h633z" />
    <glyph glyph-name="H" unicode="H" horiz-adv-x="1413" 
d="M1280 1421v-1421h-270v600h-607v-600h-272v1421h272v-569h607v569h270z" />
    <glyph glyph-name="I" unicode="I" horiz-adv-x="542" 
d="M408 1421v-1421h-271v1421h271z" />
    <glyph glyph-name="J" unicode="J" horiz-adv-x="1081" 
d="M498 -27q-209 0 -336 131.5t-127 333.5v99h270v-107q0 -79 49.5 -135.5t143.5 -56.5q95 0 144.5 56.5t49.5 135.5v991h271v-983q0 -201 -128 -333t-337 -132z" />
    <glyph glyph-name="K" unicode="K" horiz-adv-x="1327" 
d="M543 631l-140 -146v-485h-272v1421h272v-573l535 573h373l-578 -594l602 -827h-352z" />
    <glyph glyph-name="L" unicode="L" horiz-adv-x="1144" 
d="M403 1421v-1169h707v-252h-979v1421h272z" />
    <glyph glyph-name="M" unicode="M" horiz-adv-x="1660" 
d="M1530 1421v-1421h-266v1042l-289 -1042h-289l-289 1042v-1042h-266v1421h401l297 -1065l297 1065h404z" />
    <glyph glyph-name="N" unicode="N" horiz-adv-x="1437" 
d="M1307 1421v-1421h-326l-580 1012v-1012h-270v1421h326l577 -1011v1011h273z" />
    <glyph glyph-name="O" unicode="O" horiz-adv-x="1525" 
d="M764 1456q197 0 356.5 -98.5t248.5 -267.5t89 -373q0 -205 -89 -374.5t-248.5 -268.5t-356.5 -99q-198 0 -358 99t-249 268.5t-89 374.5q0 204 89 373t249 267.5t358 98.5zM764 231q174 0 298 143t124 343q0 198 -124 340.5t-298 142.5q-116 0 -213.5 -65.5t-154 -176.5
t-56.5 -241q0 -200 124 -343t300 -143z" />
    <glyph glyph-name="P" unicode="P" horiz-adv-x="1249" 
d="M1198 963q0 -200 -127 -327.5t-336 -127.5h-334v-508h-270v1421h598q221 0 345 -123.5t124 -334.5zM727 1169h-326v-413h326q96 0 148.5 51t52.5 156q0 206 -201 206z" />
    <glyph glyph-name="Q" unicode="Q" horiz-adv-x="1523" 
d="M1153 -25l-72 76q-146 -76 -317 -76q-198 0 -358 99t-249 268.5t-89 374.5q0 204 89 373t249 267.5t358 98.5q197 0 356 -98.5t247.5 -267.5t88.5 -373q0 -155 -51.5 -291.5t-144.5 -237.5l200 -213h-307zM891 254l-211 223h307l84 -90q115 137 115 330q0 130 -57 241.5
t-154 176.5t-211 65q-176 0 -301 -142t-125 -341q0 -131 57 -243t155 -177.5t214 -65.5q60 0 127 23z" />
    <glyph glyph-name="R" unicode="R" 
d="M1225 172q0 -37 10 -88.5t22 -83.5h-274q-29 71 -29 156v217q0 91 -44.5 133.5t-139.5 42.5h-369v-549h-270v1421h649q224 0 356 -113t132 -311q0 -231 -199 -323q156 -86 156 -303v-199zM401 793h385q16 0 36 2.5t53 14t58.5 30.5t44.5 56t19 87q0 22 -1.5 38t-13 47
t-32 50t-65 35t-105.5 16h-379v-376z" />
    <glyph glyph-name="S" unicode="S" horiz-adv-x="1325" 
d="M657 1458q135 0 242.5 -41t171.5 -108.5t97.5 -149t33.5 -168.5h-270q0 94 -74.5 154.5t-200.5 60.5q-115 0 -195.5 -43t-80.5 -121q0 -70 69 -106t244 -72q112 -22 188.5 -44t150 -57t117 -79.5t69.5 -110t26 -151.5q0 -205 -159.5 -326t-428.5 -121q-86 0 -168 18.5
t-157 58t-132 96.5t-90.5 140.5t-33.5 182.5h270q0 -80 49 -138t118 -84t144 -26q83 0 152.5 19t117.5 63.5t48 108.5q0 70 -72.5 114.5t-263.5 81.5q-64 12 -112.5 24t-106.5 31t-99.5 41t-83.5 55t-68 72.5t-42 93t-16 117.5q0 184 149.5 299t396.5 115z" />
    <glyph glyph-name="T" unicode="T" horiz-adv-x="1097" 
d="M1065 1169h-381v-1169h-270v1169h-381v252h1032v-252z" />
    <glyph glyph-name="U" unicode="U" horiz-adv-x="1331" 
d="M1214 1421v-858q0 -276 -141.5 -432t-406.5 -156t-406 156t-141 432v858h270v-866q0 -317 277 -317q276 0 276 317v866h272z" />
    <glyph glyph-name="V" unicode="V" horiz-adv-x="1236" 
d="M1229 1421l-465 -1421h-291l-467 1421h287l325 -1095l324 1095h287z" />
    <glyph glyph-name="W" unicode="W" horiz-adv-x="1822" 
d="M1819 1421l-387 -1421h-299l-220 1071l-221 -1071h-297l-389 1421h287l244 -1034l213 1034h327l211 -1034l246 1034h285z" />
    <glyph glyph-name="X" unicode="X" horiz-adv-x="1247" 
d="M926 0l-301 498l-299 -498h-322l459 727l-438 694h319l281 -465l280 465h322l-439 -694l457 -727h-319z" />
    <glyph glyph-name="Y" unicode="Y" horiz-adv-x="1218" 
d="M745 545v-545h-272v545l-477 876h305l307 -608l310 608h305z" />
    <glyph glyph-name="Z" unicode="Z" horiz-adv-x="1214" 
d="M1161 252v-252h-1110v242l762 927h-737v252h1067v-239l-762 -930h780z" />
    <glyph glyph-name="bracketleft" unicode="[" horiz-adv-x="649" 
d="M373 1456v-1483h250v-221h-492v1925h492v-221h-250z" />
    <glyph glyph-name="backslash" unicode="\" horiz-adv-x="692" 
d="M686 0h-280l-433 1524h283z" />
    <glyph glyph-name="bracketright" unicode="]" horiz-adv-x="690" 
d="M559 1677v-1925h-512v221h260v1483h-260v221h512z" />
    <glyph glyph-name="asciicircum" unicode="^" horiz-adv-x="1134" 
d="M797 528l-230 625l-229 -625h-270l366 893h266l367 -893h-270z" />
    <glyph glyph-name="underscore" unicode="_" horiz-adv-x="1650" 
d="M1655 -143v-252h-1659v252h1659z" />
    <glyph glyph-name="grave" unicode="`" horiz-adv-x="854" 
d="M152 1481h301l190 -289h-199z" />
    <glyph glyph-name="a" unicode="a" horiz-adv-x="1271" 
d="M1145 1055v-1055h-258v113q-130 -136 -324 -136q-101 0 -193.5 42.5t-160.5 115t-108 175t-40 216.5q0 115 40 218t108 175.5t160.5 115t193.5 42.5q195 0 324 -135v113h258zM874 524q0 126 -79 214.5t-191 88.5q-113 0 -191.5 -87.5t-78.5 -215.5q0 -125 78.5 -211
t191.5 -86q112 0 191 87t79 210z" />
    <glyph glyph-name="b" unicode="b" horiz-adv-x="1267" 
d="M1206 526q0 -153 -67.5 -279.5t-182.5 -198t-251 -71.5q-192 0 -322 136v-113h-260v1524h272v-570q126 123 310 123q136 0 251 -72t182.5 -199t67.5 -280zM936 524q0 128 -78.5 215.5t-191.5 87.5t-192 -88.5t-79 -214.5q0 -123 79.5 -210t191.5 -87q113 0 191.5 86
t78.5 211z" />
    <glyph glyph-name="c" unicode="c" horiz-adv-x="1169" 
d="M1116 356q-46 -179 -181.5 -280t-328.5 -101q-155 0 -280.5 74t-195 200t-69.5 277t69.5 278t195 202t280.5 75q191 0 326.5 -101.5t181.5 -279.5h-289q-29 57 -88.5 95.5t-130.5 38.5q-112 0 -191 -91t-79 -219q0 -125 79 -214t191 -89q73 0 133.5 38.5t87.5 96.5h289z
" />
    <glyph glyph-name="d" unicode="d" horiz-adv-x="1273" 
d="M1145 1524v-1524h-258v113q-133 -136 -324 -136q-101 0 -193.5 42.5t-160.5 115t-108 175t-40 216.5q0 115 40 218t108 175.5t160.5 115t193.5 42.5q182 0 311 -123v570h271zM874 524q0 126 -79 214.5t-191 88.5q-113 0 -191.5 -87.5t-78.5 -215.5q0 -125 78.5 -211
t191.5 -86q112 0 191 87t79 210z" />
    <glyph glyph-name="e" unicode="e" horiz-adv-x="1198" 
d="M1133 422h-797q26 -97 97.5 -153t166.5 -56q71 0 131 31t92 92h289q-47 -164 -182 -262.5t-328 -98.5q-146 0 -270.5 73.5t-197.5 200.5t-73 277t73 278t197.5 202.5t270.5 74.5q117 0 219.5 -45t177 -127t111.5 -208.5t23 -278.5zM340 643h524q-25 92 -96 146.5
t-168 54.5q-92 0 -161.5 -54t-98.5 -147z" />
    <glyph glyph-name="f" unicode="f" horiz-adv-x="643" 
d="M414 1051h190v-240h-190v-811h-271v811h-127v240h127q3 214 128 340.5t343 101.5v-254q-99 8 -149.5 -37t-50.5 -151z" />
    <glyph glyph-name="g" unicode="g" horiz-adv-x="1253" 
d="M1145 1055v-1002q0 -263 -147 -416t-400 -153q-126 0 -235 45t-183 130t-94 194h297q24 -58 87.5 -87.5t127.5 -29.5q138 0 207 83.5t69 229.5v51q-129 -123 -311 -123q-101 0 -193.5 42.5t-160.5 115t-108 175t-40 216.5q0 115 40 218t108 175.5t160.5 115t193.5 42.5
q192 0 324 -135v113h258zM874 524q0 126 -79 214.5t-191 88.5q-113 0 -191.5 -87.5t-78.5 -215.5q0 -125 78.5 -211t191.5 -86q112 0 191 87t79 210z" />
    <glyph glyph-name="h" unicode="h" horiz-adv-x="1181" 
d="M1067 616v-616h-270v616q0 22 -3.5 44.5t-15.5 52t-32 51.5t-58 37.5t-88 15.5q-91 0 -148 -56t-57 -145v-616h-272v1524h272v-525q109 82 242 82q193 0 311.5 -128t118.5 -337z" />
    <glyph glyph-name="i" unicode="i" horiz-adv-x="528" 
d="M399 1421v-252h-270v252h270zM399 1055v-1055h-270v1055h270z" />
    <glyph glyph-name="j" unicode="j" horiz-adv-x="489" 
d="M383 1421v-252h-272v252h272zM383 1055v-1184q0 -201 -114 -283t-320 -53v240q84 -8 123 20.5t39 106.5v1153h272z" />
    <glyph glyph-name="k" unicode="k" horiz-adv-x="1142" 
d="M528 444l-135 -141v-303h-270v1524h270v-852l346 383h373l-393 -412l416 -643h-344z" />
    <glyph glyph-name="l" unicode="l" horiz-adv-x="526" 
d="M399 1524v-1524h-270v1524h270z" />
    <glyph glyph-name="m" unicode="m" horiz-adv-x="1853" 
d="M1739 616v-616h-271v616q0 23 -3 45.5t-15.5 54t-32.5 54t-57.5 39t-87.5 16.5q-90 0 -147.5 -59.5t-57.5 -149.5v-616h-272v616q0 23 -3 45.5t-15 54t-32 54t-58 39t-89 16.5q-89 0 -146 -59.5t-57 -149.5v-616h-272v1055h260v-103q106 129 272 129q97 0 178.5 -39
t137.5 -110q123 149 321 149q209 0 328 -127.5t119 -337.5z" />
    <glyph glyph-name="n" unicode="n" horiz-adv-x="1181" 
d="M1065 616v-616h-270v616q0 23 -3 45.5t-15 54t-32 54t-58 39t-89 16.5q-90 0 -147.5 -59.5t-57.5 -149.5v-616h-270v1055h258v-103q110 129 272 129q186 0 299 -128t113 -337z" />
    <glyph glyph-name="o" unicode="o" horiz-adv-x="1185" 
d="M592 1081q145 0 267 -72.5t193.5 -200.5t71.5 -282t-71.5 -281t-193.5 -198.5t-267 -71.5t-266.5 71.5t-193 198.5t-71.5 281q0 155 71.5 282.5t193 200t266.5 72.5zM592 223q109 0 184.5 85t75.5 216q0 135 -75.5 222.5t-184.5 87.5t-184.5 -87.5t-75.5 -222.5
q0 -131 75.5 -216t184.5 -85z" />
    <glyph glyph-name="p" unicode="p" horiz-adv-x="1267" 
d="M1206 530q0 -233 -146.5 -393t-354.5 -160q-182 0 -310 125v-571h-272v1524h260v-111q132 135 322 135q136 0 251 -71.5t182.5 -198t67.5 -279.5zM936 530q0 127 -78.5 212t-191.5 85q-112 0 -191.5 -87t-79.5 -210q0 -125 79.5 -213t191.5 -88q113 0 191.5 86.5
t78.5 214.5z" />
    <glyph glyph-name="q" unicode="q" horiz-adv-x="1269" 
d="M1145 1055v-1524h-271v571q-131 -125 -311 -125q-101 0 -193.5 43t-160.5 116t-108 176t-40 218q0 114 40 216.5t108 175t160.5 115t193.5 42.5q189 0 324 -135v111h258zM874 530q0 123 -79 210t-191 87q-113 0 -191.5 -85t-78.5 -212q0 -128 78.5 -214.5t191.5 -86.5
q112 0 191 88t79 213z" />
    <glyph glyph-name="r" unicode="r" horiz-adv-x="745" 
d="M721 1075v-262q-181 20 -260 -65q-68 -70 -68 -230v-518h-270v1055h258v-105q63 78 152.5 109t187.5 16z" />
    <glyph glyph-name="s" unicode="s" horiz-adv-x="1077" 
d="M1014 332q0 -157 -130 -257t-333 -100q-202 0 -338.5 100t-161.5 269h275q26 -62 91 -92.5t134 -30.5q84 0 137 24.5t53 69.5q0 46 -43 69t-178 44q-49 8 -84.5 14.5t-84.5 19.5t-84 28t-72.5 39t-61 53.5t-38.5 70.5t-15 90q0 64 28 123t82 108t142 78t198 29
q181 0 306 -90t151 -239h-280q-13 39 -59 63.5t-118 24.5q-87 0 -131.5 -25.5t-44.5 -58.5q0 -38 49.5 -57.5t159.5 -36.5q73 -12 125.5 -23.5t107.5 -30t91.5 -42t67 -56.5t45 -77.5t14.5 -100.5z" />
    <glyph glyph-name="t" unicode="t" horiz-adv-x="647" 
d="M616 248v-246q-226 -24 -349.5 97.5t-123.5 344.5v371h-127v240h127v268h271v-268h190v-240h-190v-373q0 -108 49.5 -154t152.5 -40z" />
    <glyph glyph-name="u" unicode="u" horiz-adv-x="1179" 
d="M1057 1055v-1055h-258v96q-105 -121 -269 -121q-187 0 -301 127.5t-114 335.5v617h270v-617q0 -22 3.5 -44.5t15.5 -53.5t32 -53.5t58 -39t88 -16.5q90 0 147 59t57 148v617h271z" />
    <glyph glyph-name="v" unicode="v" horiz-adv-x="1091" 
d="M1090 1055l-398 -1055h-291l-399 1055h283l262 -787l264 787h279z" />
    <glyph glyph-name="w" unicode="w" horiz-adv-x="1605" 
d="M1602 1055l-330 -1055h-279l-190 698l-191 -698h-280l-328 1055h287l184 -738l193 738h270l192 -738l185 738h287z" />
    <glyph glyph-name="x" unicode="x" horiz-adv-x="1050" 
d="M1051 0h-306l-219 358l-221 -358h-305l369 545l-346 510h307l196 -322l195 322h307l-346 -510z" />
    <glyph glyph-name="y" unicode="y" horiz-adv-x="1089" 
d="M1087 1055l-466 -1248q-30 -80 -68.5 -137t-83 -89.5t-97.5 -50.5t-111.5 -20t-125.5 1v245q103 -6 157 25.5t87 120.5l31 80l-408 1073h287l258 -762l252 762h288z" />
    <glyph glyph-name="z" unicode="z" horiz-adv-x="1009" 
d="M965 244v-244h-922v233l557 578h-534v244h880v-242l-547 -569h566z" />
    <glyph glyph-name="braceleft" unicode="{" horiz-adv-x="684" 
d="M639 1634v-198q-80 6 -119 -39.5t-39 -124.5v-268q0 -226 -155 -297q155 -77 155 -299v-269q0 -79 39 -124.5t119 -39.5v-200q-190 -18 -295.5 71.5t-105.5 282.5v256q0 223 -199 223v195q199 0 199 225v256q0 192 105.5 280.5t295.5 69.5z" />
    <glyph glyph-name="bar" unicode="|" horiz-adv-x="548" 
d="M410 0h-271v1524h271v-1524z" />
    <glyph glyph-name="braceright" unicode="}" horiz-adv-x="684" 
d="M645 803v-195q-199 0 -199 -223v-256q0 -193 -105.5 -282.5t-293.5 -71.5v200q78 -6 117 39.5t39 124.5v269q0 222 155 299q-155 71 -155 297v268q0 79 -39 124.5t-117 39.5v198q188 19 293.5 -69.5t105.5 -280.5v-256q0 -225 199 -225z" />
    <glyph glyph-name="asciitilde" unicode="~" horiz-adv-x="882" 
d="M801 1495q-13 -102 -68 -173t-145 -71q-66 0 -160 38t-129 38q-72 0 -92 -84h-125q15 103 71 172.5t152 69.5q65 0 157.5 -38t125.5 -38q34 0 55 20.5t33 65.5h125z" />
    <glyph glyph-name="nbspace" unicode="&#xa0;" horiz-adv-x="630" 
 />
    <glyph glyph-name="exclamdown" unicode="&#xa1;" horiz-adv-x="587" 
d="M160 1155v268h270v-268h-270zM160 0v999h270v-999h-270z" />
    <glyph glyph-name="cent" unicode="&#xa2;" horiz-adv-x="1095" 
d="M1036 381q-40 -177 -167 -284t-308 -107q-45 0 -100 10l-68 -225h-139l82 268q-127 65 -201 195.5t-74 296.5q0 234 141.5 389t358.5 155q30 0 88 -8l68 221h139l-80 -260q95 -47 162 -133.5t96 -200.5h-248q-25 63 -79 107l-179 -584q24 -4 37 -4q77 0 136.5 44
t89.5 120h245zM408 279l174 571h-17q-112 0 -185 -89t-73 -226q0 -80 27 -147t74 -109z" />
    <glyph glyph-name="sterling" unicode="&#xa3;" horiz-adv-x="1142" 
d="M1124 96q-195 -188 -462 -71q-112 51 -208.5 42t-201.5 -87l-148 208q98 53 160 135.5t62 170.5q0 45 -11 79h-227v179h133q-39 60 -60.5 119t-21.5 137q0 189 132 307.5t341 118.5q213 0 347.5 -126.5t134.5 -326.5h-254q0 96 -61 156.5t-167 60.5q-101 0 -160 -53
t-59 -137q0 -36 10.5 -73t21.5 -59t35 -64t34 -60h299v-179h-242q4 -40 2 -65q0 -156 -131 -264l2 -2q127 59 305 -4q60 -24 110.5 -21.5t86 20.5t73.5 56z" />
    <glyph glyph-name="yen" unicode="&#xa5;" horiz-adv-x="1230" 
d="M973 952h164v-151h-246l-115 -209h330v-154h-354v-438h-273v438h-354v154h330l-115 209h-246v151h164l-256 469h305l307 -608l310 608h305z" />
    <glyph glyph-name="section" unicode="&#xa7;" horiz-adv-x="1079" 
d="M883 487q61 -70 61 -184q0 -146 -110 -239t-304 -93q-188 0 -302.5 103t-114.5 262h235q0 -62 52.5 -106t134.5 -44q84 0 131 28.5t47 74.5q0 32 -17 51t-66.5 35.5t-148.5 34.5q-98 17 -167.5 38.5t-128 56t-88 87t-29.5 123.5q0 72 35 136.5t108 109.5q-61 70 -61 186
q3 137 113.5 226t287.5 89t281 -95t102 -249h-238q1 61 -42 94t-105 33q-66 0 -113.5 -25t-48.5 -73q0 -43 37.5 -64t132.5 -39q178 -37 236 -56q160 -54 202 -164q17 -45 17 -101q0 -154 -129 -236zM547 621q19 -3 56 -10.5t56 -10.5q123 25 123 96q0 19 -7.5 34.5
t-25 27.5t-37 21t-53.5 17.5t-64.5 14.5t-78.5 14q-47 8 -92 21q-59 -15 -90 -41t-31 -57q0 -51 59.5 -80t184.5 -47z" />
    <glyph glyph-name="dieresis" unicode="&#xa8;" horiz-adv-x="854" 
d="M731 1233h-225v221h225v-221zM346 1233h-225v221h225v-221z" />
    <glyph glyph-name="copyright" unicode="&#xa9;" horiz-adv-x="1603" 
d="M803 1456q150 0 287 -58.5t236 -157.5t157.5 -236t58.5 -287q0 -151 -58.5 -288.5t-157.5 -237t-236 -158t-287 -58.5q-202 0 -372.5 99.5t-270 270t-99.5 372.5q0 150 58.5 287t158 236t237 157.5t288.5 58.5zM803 168q146 0 269.5 73.5t195 200t71.5 275.5t-71.5 275.5
t-195 200t-269.5 73.5t-270 -73.5t-196.5 -200t-72.5 -275.5t72.5 -275.5t196.5 -200t270 -73.5zM1161 604q-33 -125 -130.5 -203.5t-227.5 -78.5q-160 0 -269.5 115t-109.5 280q0 164 109.5 278.5t269.5 114.5q133 0 230 -78t130 -205h-209q-48 95 -151 95q-74 0 -126 -60
t-52 -145t52 -145t126 -60q100 0 149 92h209z" />
    <glyph glyph-name="ordfeminine" unicode="&#xaa;" horiz-adv-x="837" 
d="M711 1442v-633h-156v68q-79 -82 -193 -82q-125 0 -213 95t-88 234t88 234.5t213 95.5q117 0 193 -82v70h156zM549 1124q0 75 -48 128t-116 53q-67 0 -114.5 -52.5t-47.5 -128.5t47.5 -127t114.5 -51q68 0 116 51.5t48 126.5z" />
    <glyph glyph-name="guillemotleft" unicode="&#xab;" horiz-adv-x="866" 
d="M805 778l-205 -164l205 -168v-215l-324 281v203l324 278v-215zM47 715l324 278v-215l-205 -164l205 -168v-215l-324 281v203z" />
    <glyph glyph-name="registered" unicode="&#xae;" horiz-adv-x="1603" 
d="M1542 717q0 -151 -58.5 -288.5t-157.5 -237t-236 -158t-287 -58.5q-202 0 -372.5 99.5t-270 270t-99.5 372.5q0 150 58.5 287t158 236t237 157.5t288.5 58.5q150 0 287 -58.5t236 -157.5t157.5 -236t58.5 -287zM1339 717q0 148 -71.5 274.5t-195 200.5t-269.5 74
q-109 0 -209 -44t-172 -117.5t-115 -175t-43 -212.5q0 -149 72.5 -275.5t196.5 -200t270 -73.5t269.5 73.5t195 200t71.5 275.5zM1022 621l141 -263h-225l-111 222h-102v-222h-201v756h361q130 0 201 -73t71 -197q0 -76 -36 -133.5t-99 -89.5zM725 758h147q39 0 59.5 23.5
t20.5 62.5q0 86 -80 86h-147v-172z" />
    <glyph glyph-name="macron" unicode="&#xaf;" horiz-adv-x="825" 
d="M82 1219v178h661v-178h-661z" />
    <glyph glyph-name="degree" unicode="&#xb0;" horiz-adv-x="755" 
d="M377 1417q130 0 222.5 -92t92.5 -221q0 -131 -92.5 -223.5t-222.5 -92.5t-222 92.5t-92 223.5q0 129 92 221t222 92zM377 944q65 0 111.5 47t46.5 113q0 64 -46.5 111t-111.5 47t-111.5 -47t-46.5 -111q0 -66 46.5 -113t111.5 -47z" />
    <glyph glyph-name="twosuperior" unicode="&#xb2;" horiz-adv-x="749" 
d="M80 1112q0 129 81.5 221t225.5 92q142 0 218.5 -79.5t76.5 -186.5q0 -41 -8 -75t-27.5 -62.5t-39 -50t-54.5 -45.5t-61.5 -39.5t-73.5 -40.5q-156 -82 -164 -150h426v-155h-612v73q0 58 15.5 108t38.5 86t60.5 69.5t71.5 56t80 47.5q114 61 147 98t33 82q0 47 -31.5 78
t-95.5 31t-101.5 -44t-37.5 -114h-168z" />
    <glyph glyph-name="threesuperior" unicode="&#xb3;" horiz-adv-x="753" 
d="M688 803q0 -111 -85.5 -195t-233.5 -84q-152 0 -234.5 83.5t-85.5 213.5h170q0 -66 39.5 -103.5t108.5 -37.5q71 0 112 35t41 90q0 113 -143 113h-55v145h32q142 0 142 100q0 50 -31.5 78.5t-89.5 28.5q-64 0 -97.5 -37.5t-33.5 -91.5h-168q0 120 80.5 202t218.5 82
t211 -72t73 -169q0 -124 -112 -180q72 -22 106.5 -77t34.5 -124z" />
    <glyph glyph-name="acute" unicode="&#xb4;" horiz-adv-x="854" 
d="M684 1481l-295 -289h-199l191 289h303z" />
    <glyph glyph-name="paragraph" unicode="&#xb6;" horiz-adv-x="1251" 
d="M1120 1421v-1421h-213v1217h-153v-1217h-213v508h-27q-209 0 -336 127.5t-127 327.5q0 212 123.5 335t345.5 123h600z" />
    <glyph glyph-name="periodcentered" unicode="&#xb7;" horiz-adv-x="458" 
d="M365 846v-268h-271v268h271z" />
    <glyph glyph-name="periodcentered" unicode="&#x22c5;" horiz-adv-x="458" 
d="M365 846v-268h-271v268h271z" />
    <glyph glyph-name="cedilla" unicode="&#xb8;" horiz-adv-x="630" 
d="M549 -268q0 -86 -68.5 -135.5t-165.5 -49.5q-130 0 -233 82l35 74q71 -39 134.5 -46.5t98.5 12.5t35 57q0 35 -27 54.5t-62.5 18t-70.5 -15.5l-78 47l84 170h134l-84 -123q38 17 84 17.5t87.5 -15t69 -54t27.5 -93.5z" />
    <glyph glyph-name="onesuperior" unicode="&#xb9;" horiz-adv-x="526" 
d="M375 1421v-880h-168v614h-137v109q65 2 114.5 41.5t55.5 115.5h135z" />
    <glyph glyph-name="ordmasculine" unicode="&#xba;" horiz-adv-x="759" 
d="M381 1456q133 0 225 -96t92 -236t-92 -234.5t-225 -94.5t-226.5 94.5t-93.5 234.5t93.5 236t226.5 96zM381 942q66 0 111 51t45 131q0 81 -45 133t-111 52t-111 -52t-45 -133q0 -80 45 -131t111 -51z" />
    <glyph glyph-name="guillemotright" unicode="&#xbb;" horiz-adv-x="864" 
d="M817 715v-203l-323 -281v215l204 168l-204 164v215zM59 993l324 -278v-203l-324 -281v215l205 168l-205 164v215z" />
    <glyph glyph-name="onequarter" unicode="&#xbc;" horiz-adv-x="1523" 
d="M207 541v614h-137v109q66 2 115 41.5t55 115.5h135v-880h-168zM1217 1421l-834 -1446h-172l833 1446h173zM1462 180h-94v-180h-158v180h-383v148l347 553h194v-553h94v-148zM1210 328v348l-217 -348h217z" />
    <glyph glyph-name="onehalf" unicode="&#xbd;" horiz-adv-x="1630" 
d="M207 541v614h-137v109q65 2 114 41.5t56 115.5h133v-880h-166zM1214 1421l-833 -1446h-172l835 1446h170zM1135 156h426v-156h-613v76q0 71 21.5 129t62.5 101.5t82.5 73t99.5 60.5q113 61 147 99t34 82q0 48 -31 78t-94 30q-65 0 -103.5 -43.5t-38.5 -112.5h-167
q0 128 82 220t225 92q142 0 218.5 -80t76.5 -187q0 -41 -8 -74.5t-28 -62.5t-38.5 -49.5t-55 -45t-62 -39t-73.5 -40.5q-75 -41 -117 -77.5t-46 -73.5z" />
    <glyph glyph-name="threequarters" unicode="&#xbe;" horiz-adv-x="1736" 
d="M367 524q-152 0 -234 83.5t-84 213.5h168q0 -66 40.5 -103.5t109.5 -37.5t110 35t41 90q0 113 -143 113h-56v145h33q142 0 142 100q0 50 -31.5 78.5t-89.5 28.5q-64 0 -97.5 -37.5t-33.5 -91.5h-168q0 120 81 202t218 82q138 0 211 -72t73 -169q0 -124 -112 -180
q72 -22 106.5 -77t34.5 -124q0 -112 -85 -195.5t-234 -83.5zM1430 1421l-834 -1446h-172l833 1446h173zM1675 180h-94v-180h-156v180h-385v148l346 553h195v-553h94v-148zM1425 328v348l-219 -348h219z" />
    <glyph glyph-name="questiondown" unicode="&#xbf;" horiz-adv-x="1130" 
d="M453 1161v269h272v-269h-272zM795 438h266q0 -208 -133 -336.5t-359 -128.5q-221 0 -348 116t-127 302q0 117 62 200t178 159q70 48 99.5 95.5t29.5 112.5v48h250v-48q0 -77 -18.5 -138t-55.5 -107.5t-69 -74t-83 -63.5q-69 -51 -97 -91t-28 -93q0 -75 56 -121.5
t151 -46.5q107 0 166.5 60.5t59.5 154.5z" />
    <glyph glyph-name="Agrave" unicode="&#xc0;" 
d="M324 1829h303l190 -289h-199zM963 285h-568l-96 -285h-287l496 1421h342l496 -1421h-287zM877 537l-199 583l-199 -583h398z" />
    <glyph glyph-name="Aacute" unicode="&#xc1;" 
d="M1034 1829l-295 -289h-198l190 289h303zM963 285h-568l-96 -285h-287l496 1421h342l496 -1421h-287zM877 537l-199 583l-199 -583h398z" />
    <glyph glyph-name="Acircumflex" unicode="&#xc2;" 
d="M553 1540h-223l227 291h244l225 -291h-221l-127 170zM963 285h-568l-96 -285h-287l496 1421h342l496 -1421h-287zM877 537l-199 583l-199 -583h398z" />
    <glyph glyph-name="Atilde" unicode="&#xc3;" 
d="M1038 1806q-13 -102 -68 -172.5t-145 -70.5q-66 0 -159.5 37.5t-128.5 37.5q-73 0 -93 -84h-125q15 103 71.5 172.5t152.5 69.5q65 0 157 -38t125 -38q34 0 55 20.5t33 65.5h125zM963 285h-568l-96 -285h-287l496 1421h342l496 -1421h-287zM877 537l-199 583l-199 -583
h398z" />
    <glyph glyph-name="Adieresis" unicode="&#xc4;" 
d="M745 1790h252v-227h-252v227zM360 1790h252v-227h-252v227zM963 285h-568l-96 -285h-287l496 1421h342l496 -1421h-287zM877 537l-199 583l-199 -583h398z" />
    <glyph glyph-name="Aring" unicode="&#xc5;" 
d="M678 1958q90 0 153.5 -63.5t63.5 -153.5q0 -91 -63 -154t-154 -63q-90 0 -153.5 63.5t-63.5 153.5q0 89 64 153t153 64zM963 285h-568l-96 -285h-287l496 1421h342l496 -1421h-287zM678 1640q41 0 69.5 29.5t28.5 71.5q0 41 -28.5 70.5t-69.5 29.5q-40 0 -68 -29.5
t-28 -70.5t28 -71t68 -30zM877 537l-199 583l-199 -583h398z" />
    <glyph glyph-name="AE" unicode="&#xc6;" horiz-adv-x="1976" 
d="M1915 252v-252h-1055v285h-465l-98 -285h-285l502 1421h1387v-252h-768v-303h651v-252h-651v-362h782zM860 537v632h-164l-219 -632h383z" />
    <glyph glyph-name="Ccedilla" unicode="&#xc7;" horiz-adv-x="1449" 
d="M1110 451h291q-67 -216 -233.5 -344t-393.5 -132l-67 -96q39 17 85.5 17t87.5 -15.5t69 -54.5t28 -94q0 -85 -69 -135t-167 -50q-128 0 -231 82l35 74q70 -39 133.5 -46t99 13t35.5 56q0 35 -27 54.5t-62.5 18t-70.5 -15.5l-80 47l76 154q-252 40 -416.5 246t-164.5 487
q0 205 90.5 375t248.5 268t349 98q239 0 409.5 -126.5t237.5 -346.5h-293q-53 101 -144 161t-210 60q-114 0 -210.5 -66.5t-152 -179t-55.5 -243.5q0 -132 55.5 -245.5t152 -180t210.5 -66.5q117 0 208.5 62t145.5 164z" />
    <glyph glyph-name="Egrave" unicode="&#xc8;" horiz-adv-x="1245" 
d="M268 1829h303l191 -289h-199zM1184 252v-252h-1053v1421h1038v-252h-768v-303h656v-252h-656v-362h783z" />
    <glyph glyph-name="Eacute" unicode="&#xc9;" horiz-adv-x="1245" 
d="M1034 1829l-295 -289h-198l190 289h303zM1184 252v-252h-1053v1421h1038v-252h-768v-303h656v-252h-656v-362h783z" />
    <glyph glyph-name="Ecircumflex" unicode="&#xca;" horiz-adv-x="1245" 
d="M553 1540h-223l227 291h244l225 -291h-221l-127 170zM1184 252v-252h-1053v1421h1038v-252h-768v-303h656v-252h-656v-362h783z" />
    <glyph glyph-name="Edieresis" unicode="&#xcb;" horiz-adv-x="1245" 
d="M745 1790h252v-227h-252v227zM360 1790h252v-227h-252v227zM1184 252v-252h-1053v1421h1038v-252h-768v-303h656v-252h-656v-362h783z" />
    <glyph glyph-name="Igrave" unicode="&#xcc;" horiz-adv-x="542" 
d="M-94 1829h303l190 -289h-198zM408 1421v-1421h-271v1421h271z" />
    <glyph glyph-name="Iacute" unicode="&#xcd;" horiz-adv-x="542" 
d="M647 1829l-295 -289h-198l190 289h303zM408 1421v-1421h-271v1421h271z" />
    <glyph glyph-name="Icircumflex" unicode="&#xce;" horiz-adv-x="542" 
d="M147 1540h-223l228 291h243l226 -291h-222l-127 170zM408 1421v-1421h-271v1421h271z" />
    <glyph glyph-name="Idieresis" unicode="&#xcf;" horiz-adv-x="542" 
d="M346 1790h252v-227h-252v227zM-39 1790h252v-227h-252v227zM408 1421v-1421h-271v1421h271z" />
    <glyph glyph-name="Eth" unicode="&#xd0;" horiz-adv-x="1415" 
d="M1348 711q0 -325 -174.5 -518t-466.5 -193h-527v657h-149v252h149v512h527q296 0 468.5 -191t172.5 -519zM1077 713q0 68 -9 128t-34 122t-64.5 106t-107 72t-155.5 28h-254v-260h333v-252h-333v-405h254q77 0 138.5 21.5t100.5 60t66.5 83.5t40.5 100.5t18.5 101
t5.5 94.5z" />
    <glyph glyph-name="Ntilde" unicode="&#xd1;" horiz-adv-x="1437" 
d="M864 1747q72 0 101 86h112q-12 -107 -72 -176.5t-145 -69.5q-48 0 -95.5 23t-89.5 46t-77 23q-71 0 -100 -86h-111q11 108 70 177t145 69q48 0 95.5 -23t89.5 -46t77 -23zM1307 1421v-1421h-326l-580 1012v-1012h-270v1421h326l577 -1011v1011h273z" />
    <glyph glyph-name="Ograve" unicode="&#xd2;" horiz-adv-x="1525" 
d="M360 1829h304l190 -289h-199zM764 1456q197 0 356.5 -98.5t248.5 -267.5t89 -373q0 -205 -89 -374.5t-248.5 -268.5t-356.5 -99q-198 0 -358 99t-249 268.5t-89 374.5q0 204 89 373t249 267.5t358 98.5zM764 231q174 0 298 143t124 343q0 198 -124 340.5t-298 142.5
q-116 0 -213.5 -65.5t-154 -176.5t-56.5 -241q0 -200 124 -343t300 -143z" />
    <glyph glyph-name="Oacute" unicode="&#xd3;" horiz-adv-x="1525" 
d="M1147 1829l-295 -289h-199l191 289h303zM764 1456q197 0 356.5 -98.5t248.5 -267.5t89 -373q0 -205 -89 -374.5t-248.5 -268.5t-356.5 -99q-198 0 -358 99t-249 268.5t-89 374.5q0 204 89 373t249 267.5t358 98.5zM764 231q174 0 298 143t124 343q0 198 -124 340.5
t-298 142.5q-116 0 -213.5 -65.5t-154 -176.5t-56.5 -241q0 -200 124 -343t300 -143z" />
    <glyph glyph-name="Ocircumflex" unicode="&#xd4;" horiz-adv-x="1525" 
d="M639 1540h-223l227 291h244l225 -291h-221l-127 170zM764 1456q197 0 356.5 -98.5t248.5 -267.5t89 -373q0 -205 -89 -374.5t-248.5 -268.5t-356.5 -99q-198 0 -358 99t-249 268.5t-89 374.5q0 204 89 373t249 267.5t358 98.5zM764 231q174 0 298 143t124 343
q0 198 -124 340.5t-298 142.5q-116 0 -213.5 -65.5t-154 -176.5t-56.5 -241q0 -200 124 -343t300 -143z" />
    <glyph glyph-name="Otilde" unicode="&#xd5;" horiz-adv-x="1525" 
d="M1143 1806q-13 -102 -68 -172.5t-145 -70.5q-66 0 -160 37.5t-129 37.5q-72 0 -92 -84h-125q15 103 71 172.5t152 69.5q65 0 157.5 -38t125.5 -38q34 0 55 20.5t33 65.5h125zM764 1456q197 0 356.5 -98.5t248.5 -267.5t89 -373q0 -205 -89 -374.5t-248.5 -268.5
t-356.5 -99q-198 0 -358 99t-249 268.5t-89 374.5q0 204 89 373t249 267.5t358 98.5zM764 231q174 0 298 143t124 343q0 198 -124 340.5t-298 142.5q-116 0 -213.5 -65.5t-154 -176.5t-56.5 -241q0 -200 124 -343t300 -143z" />
    <glyph glyph-name="Odieresis" unicode="&#xd6;" horiz-adv-x="1525" 
d="M838 1790h252v-227h-252v227zM453 1790h252v-227h-252v227zM764 1456q197 0 356.5 -98.5t248.5 -267.5t89 -373q0 -205 -89 -374.5t-248.5 -268.5t-356.5 -99q-198 0 -358 99t-249 268.5t-89 374.5q0 204 89 373t249 267.5t358 98.5zM764 231q174 0 298 143t124 343
q0 198 -124 340.5t-298 142.5q-116 0 -213.5 -65.5t-154 -176.5t-56.5 -241q0 -200 124 -343t300 -143z" />
    <glyph glyph-name="multiply" unicode="&#xd7;" horiz-adv-x="1052" 
d="M891 10l-365 365l-364 -365l-142 142l365 366l-365 363l142 141l364 -365l365 365l141 -141l-364 -363l364 -366z" />
    <glyph glyph-name="Oslash" unicode="&#xd8;" horiz-adv-x="1525" 
d="M1323 1163q135 -196 135 -446q0 -205 -89 -374.5t-248.5 -268.5t-356.5 -99q-259 0 -449 166l-141 -145l-106 106l147 150q-147 200 -147 465q0 204 89 373t249 267.5t358 98.5q270 0 463 -180l141 143l107 -104zM410 449l626 634q-117 117 -272 117q-116 0 -213.5 -65.5
t-154 -176.5t-56.5 -241q0 -147 70 -268zM1126 963l-620 -629q118 -103 258 -103q174 0 298 143t124 343q0 135 -60 246z" />
    <glyph glyph-name="Ugrave" unicode="&#xd9;" horiz-adv-x="1331" 
d="M279 1829h303l190 -289h-199zM1214 1421v-858q0 -276 -141.5 -432t-406.5 -156t-406 156t-141 432v858h270v-866q0 -317 277 -317q276 0 276 317v866h272z" />
    <glyph glyph-name="Uacute" unicode="&#xda;" horiz-adv-x="1331" 
d="M1067 1829l-295 -289h-199l191 289h303zM1214 1421v-858q0 -276 -141.5 -432t-406.5 -156t-406 156t-141 432v858h270v-866q0 -317 277 -317q276 0 276 317v866h272z" />
    <glyph glyph-name="Ucircumflex" unicode="&#xdb;" horiz-adv-x="1331" 
d="M545 1540h-223l227 291h244l225 -291h-221l-127 170zM1214 1421v-858q0 -276 -141.5 -432t-406.5 -156t-406 156t-141 432v858h270v-866q0 -317 277 -317q276 0 276 317v866h272z" />
    <glyph glyph-name="Udieresis" unicode="&#xdc;" horiz-adv-x="1331" 
d="M745 1790h252v-227h-252v227zM360 1790h252v-227h-252v227zM1214 1421v-858q0 -276 -141.5 -432t-406.5 -156t-406 156t-141 432v858h270v-866q0 -317 277 -317q276 0 276 317v866h272z" />
    <glyph glyph-name="Yacute" unicode="&#xdd;" horiz-adv-x="1218" 
d="M1004 1829l-287 -297h-197l191 297h293zM743 545v-545h-270v545l-477 876h305l305 -602h6l306 602h305z" />
    <glyph glyph-name="Thorn" unicode="&#xde;" horiz-adv-x="1249" 
d="M1198 778q0 -202 -127.5 -329t-337.5 -127h-332v-322h-270v1421h270v-184h328q221 0 345 -124t124 -335zM928 778q0 105 -52.5 156t-148.5 51h-326v-414h326q96 0 148.5 51t52.5 156z" />
    <glyph glyph-name="germandbls" unicode="&#xdf;" horiz-adv-x="1208" 
d="M1147 440q0 -215 -126 -341t-335 -126q-101 0 -192 37v252q74 -31 176 -31q98 0 152.5 59.5t54.5 153.5q0 89 -60.5 144t-154.5 55h-168v252h118q72 0 123 46.5t51 139.5q0 86 -51 136.5t-141 50.5q-87 0 -143 -61t-56 -156v-1051h-272v1059q0 192 133.5 328.5
t335.5 136.5q204 0 334.5 -123.5t130.5 -298.5q0 -185 -135 -295q109 -49 167 -145.5t58 -221.5z" />
    <glyph glyph-name="agrave" unicode="&#xe0;" horiz-adv-x="1271" 
d="M180 1481h301l191 -289h-199zM1145 1055v-1055h-258v113q-130 -136 -324 -136q-101 0 -193.5 42.5t-160.5 115t-108 175t-40 216.5q0 115 40 218t108 175.5t160.5 115t193.5 42.5q195 0 324 -135v113h258zM874 524q0 126 -79 214.5t-191 88.5q-113 0 -191.5 -87.5
t-78.5 -215.5q0 -125 78.5 -211t191.5 -86q112 0 191 87t79 210z" />
    <glyph glyph-name="aacute" unicode="&#xe1;" horiz-adv-x="1271" 
d="M975 1481l-295 -289h-199l191 289h303zM1145 1055v-1055h-258v113q-130 -136 -324 -136q-101 0 -193.5 42.5t-160.5 115t-108 175t-40 216.5q0 115 40 218t108 175.5t160.5 115t193.5 42.5q195 0 324 -135v113h258zM874 524q0 126 -79 214.5t-191 88.5
q-113 0 -191.5 -87.5t-78.5 -215.5q0 -125 78.5 -211t191.5 -86q112 0 191 87t79 210z" />
    <glyph glyph-name="acircumflex" unicode="&#xe2;" horiz-adv-x="1271" 
d="M725 1192l-127 170l-125 -170h-223l227 291h242l227 -291h-221zM1145 1055v-1055h-258v113q-130 -136 -324 -136q-101 0 -193.5 42.5t-160.5 115t-108 175t-40 216.5q0 115 40 218t108 175.5t160.5 115t193.5 42.5q195 0 324 -135v113h258zM874 524q0 126 -79 214.5
t-191 88.5q-113 0 -191.5 -87.5t-78.5 -215.5q0 -125 78.5 -211t191.5 -86q112 0 191 87t79 210z" />
    <glyph glyph-name="atilde" unicode="&#xe3;" horiz-adv-x="1271" 
d="M952 1458q-13 -103 -68.5 -173.5t-146.5 -70.5q-64 0 -157.5 38t-128.5 38q-73 0 -93 -84h-127q15 103 72.5 173.5t153.5 70.5q65 0 156 -39t124 -39q35 0 55.5 20t32.5 66h127zM1145 1055v-1055h-258v113q-130 -136 -324 -136q-101 0 -193.5 42.5t-160.5 115t-108 175
t-40 216.5q0 115 40 218t108 175.5t160.5 115t193.5 42.5q195 0 324 -135v113h258zM874 524q0 126 -79 214.5t-191 88.5q-113 0 -191.5 -87.5t-78.5 -215.5q0 -125 78.5 -211t191.5 -86q112 0 191 87t79 210z" />
    <glyph glyph-name="adieresis" unicode="&#xe4;" horiz-adv-x="1271" 
d="M647 1440h250v-228h-250v228zM262 1440h250v-228h-250v228zM1145 1055v-1055h-258v113q-130 -136 -324 -136q-101 0 -193.5 42.5t-160.5 115t-108 175t-40 216.5q0 115 40 218t108 175.5t160.5 115t193.5 42.5q195 0 324 -135v113h258zM874 524q0 126 -79 214.5
t-191 88.5q-113 0 -191.5 -87.5t-78.5 -215.5q0 -125 78.5 -211t191.5 -86q112 0 191 87t79 210z" />
    <glyph glyph-name="aring" unicode="&#xe5;" horiz-adv-x="1271" 
d="M594 1614q91 0 154 -63t63 -154q0 -90 -63.5 -153.5t-153.5 -63.5q-89 0 -153 64t-64 153q0 90 63.5 153.5t153.5 63.5zM1145 1055v-1055h-258v113q-130 -136 -324 -136q-101 0 -193.5 42.5t-160.5 115t-108 175t-40 216.5q0 115 40 218t108 175.5t160.5 115t193.5 42.5
q195 0 324 -135v113h258zM874 524q0 126 -79 214.5t-191 88.5q-113 0 -191.5 -87.5t-78.5 -215.5q0 -125 78.5 -211t191.5 -86q112 0 191 87t79 210zM594 1296q41 0 69.5 29.5t28.5 71.5q0 43 -28.5 72.5t-69.5 29.5q-40 0 -68 -29.5t-28 -72.5q0 -41 28 -71t68 -30z" />
    <glyph glyph-name="ae" unicode="&#xe6;" horiz-adv-x="2021" 
d="M1954 422h-795q27 -94 99 -147.5t165 -53.5q69 0 129 29.5t97 85.5h286q-47 -164 -182.5 -262.5t-327.5 -98.5q-183 0 -311 125v-100h-225v100q-123 -123 -314 -123q-139 0 -257.5 73.5t-187.5 200t-69 275.5q0 152 68.5 278.5t193.5 201.5t281 75q129 0 235 -54
t175 -150q70 95 178 149.5t233 54.5q118 0 220.5 -44.5t177.5 -126t111 -208.5t20 -280zM1165 649h521q-29 87 -100 137t-163 50q-88 0 -157 -50.5t-101 -136.5zM874 526q0 120 -79 206.5t-191 86.5t-192 -86.5t-80 -206.5t79.5 -204t192.5 -84q112 0 191 84t79 204z" />
    <glyph glyph-name="ccedilla" unicode="&#xe7;" horiz-adv-x="1169" 
d="M621 -27l-50 -79q34 15 74.5 11.5t75.5 -17.5t58.5 -48.5t23.5 -81.5q0 -76 -51.5 -120t-137.5 -44q-52 0 -105 24.5t-91 62.5l37 63q58 -55 145 -55q37 0 61.5 17t24.5 48q0 28 -22.5 48t-59.5 20q-41 0 -72 -27l-73 49l69 136q-206 28 -336.5 181.5t-130.5 362.5
q0 152 69.5 279.5t195 202.5t280.5 75q191 0 327 -101.5t183 -279.5h-291q-31 55 -89 87t-130 32q-112 0 -191 -86.5t-79 -208.5q0 -119 79 -203.5t191 -84.5q74 0 132 32t89 88h289q-44 -176 -175.5 -277t-319.5 -106z" />
    <glyph glyph-name="egrave" unicode="&#xe8;" horiz-adv-x="1198" 
d="M221 1481h301l191 -289h-199zM1133 422h-797q26 -97 97.5 -153t166.5 -56q71 0 131 31t92 92h289q-47 -164 -182 -262.5t-328 -98.5q-146 0 -270.5 73.5t-197.5 200.5t-73 277t73 278t197.5 202.5t270.5 74.5q117 0 219.5 -45t177 -127t111.5 -208.5t23 -278.5zM340 643
h524q-25 92 -96 146.5t-168 54.5q-92 0 -161.5 -54t-98.5 -147z" />
    <glyph glyph-name="eacute" unicode="&#xe9;" horiz-adv-x="1198" 
d="M1004 1481l-295 -289h-199l190 289h304zM1133 422h-797q26 -97 97.5 -153t166.5 -56q71 0 131 31t92 92h289q-47 -164 -182 -262.5t-328 -98.5q-146 0 -270.5 73.5t-197.5 200.5t-73 277t73 278t197.5 202.5t270.5 74.5q117 0 219.5 -45t177 -127t111.5 -208.5t23 -278.5
zM340 643h524q-25 92 -96 146.5t-168 54.5q-92 0 -161.5 -54t-98.5 -147z" />
    <glyph glyph-name="ecircumflex" unicode="&#xea;" horiz-adv-x="1198" 
d="M727 1192l-127 170l-125 -170h-223l227 291h242l227 -291h-221zM1133 422h-797q26 -97 97.5 -153t166.5 -56q71 0 131 31t92 92h289q-47 -164 -182 -262.5t-328 -98.5q-146 0 -270.5 73.5t-197.5 200.5t-73 277t73 278t197.5 202.5t270.5 74.5q117 0 219.5 -45t177 -127
t111.5 -208.5t23 -278.5zM340 643h524q-25 92 -96 146.5t-168 54.5q-92 0 -161.5 -54t-98.5 -147z" />
    <glyph glyph-name="edieresis" unicode="&#xeb;" horiz-adv-x="1198" 
d="M668 1440h250v-228h-250v228zM283 1440h249v-228h-249v228zM1133 422h-797q26 -97 97.5 -153t166.5 -56q71 0 131 31t92 92h289q-47 -164 -182 -262.5t-328 -98.5q-146 0 -270.5 73.5t-197.5 200.5t-73 277t73 278t197.5 202.5t270.5 74.5q117 0 219.5 -45t177 -127
t111.5 -208.5t23 -278.5zM340 643h524q-25 92 -96 146.5t-168 54.5q-92 0 -161.5 -54t-98.5 -147z" />
    <glyph glyph-name="igrave" unicode="&#xec;" horiz-adv-x="530" 
d="M-94 1481h301l190 -289h-198zM399 1055v-1055h-270v1055h270z" />
    <glyph glyph-name="iacute" unicode="&#xed;" horiz-adv-x="530" 
d="M635 1481l-295 -289h-199l191 289h303zM399 1055v-1055h-270v1055h270z" />
    <glyph glyph-name="icircumflex" unicode="&#xee;" horiz-adv-x="530" 
d="M393 1192l-127 170l-125 -170h-223l227 291h242l227 -291h-221zM399 1055v-1055h-270v1055h270z" />
    <glyph glyph-name="idieresis" unicode="&#xef;" horiz-adv-x="530" 
d="M338 1440h250v-228h-250v228zM-47 1440h250v-228h-250v228zM399 1055v-1055h-270v1055h270z" />
    <glyph glyph-name="eth" unicode="&#xf0;" horiz-adv-x="1202" 
d="M1118 526q0 -242 -152 -399.5t-372 -157.5q-108 0 -205 42t-167.5 113.5t-112 172.5t-41.5 215q0 102 30 191.5t80.5 153.5t115 110.5t134 69t137.5 22.5q94 0 172 -35q-78 114 -188 197l-152 -111l-112 70l155 112q-78 44 -141 64l201 151q76 -37 133 -73l127 94
l112 -70l-135 -100q185 -154 283 -373t98 -459zM852 512q0 131 -75 217t-183 86t-183 -86t-75 -217q0 -130 75 -214.5t183 -84.5t183 84.5t75 214.5z" />
    <glyph glyph-name="ntilde" unicode="&#xf1;" horiz-adv-x="1181" 
d="M969 1458q-13 -103 -68.5 -173.5t-146.5 -70.5q-64 0 -158 38t-129 38q-72 0 -92 -84h-127q15 103 72 173.5t153 70.5q65 0 156.5 -39t124.5 -39q35 0 55.5 20t32.5 66h127zM1065 616v-616h-270v616q0 23 -3 45.5t-15 54t-32 54t-58 39t-89 16.5q-90 0 -147.5 -59.5
t-57.5 -149.5v-616h-270v1055h258v-103q110 129 272 129q186 0 299 -128t113 -337z" />
    <glyph glyph-name="ograve" unicode="&#xf2;" horiz-adv-x="1185" 
d="M207 1481h301l190 -289h-198zM592 1081q145 0 267 -72.5t193.5 -200.5t71.5 -282t-71.5 -281t-193.5 -198.5t-267 -71.5t-266.5 71.5t-193 198.5t-71.5 281q0 155 71.5 282.5t193 200t266.5 72.5zM592 223q109 0 184.5 85t75.5 216q0 135 -75.5 222.5t-184.5 87.5
t-184.5 -87.5t-75.5 -222.5q0 -131 75.5 -216t184.5 -85z" />
    <glyph glyph-name="oacute" unicode="&#xf3;" horiz-adv-x="1185" 
d="M995 1481l-295 -289h-198l190 289h303zM592 1081q145 0 267 -72.5t193.5 -200.5t71.5 -282t-71.5 -281t-193.5 -198.5t-267 -71.5t-266.5 71.5t-193 198.5t-71.5 281q0 155 71.5 282.5t193 200t266.5 72.5zM592 223q109 0 184.5 85t75.5 216q0 135 -75.5 222.5
t-184.5 87.5t-184.5 -87.5t-75.5 -222.5q0 -131 75.5 -216t184.5 -85z" />
    <glyph glyph-name="ocircumflex" unicode="&#xf4;" horiz-adv-x="1185" 
d="M727 1192l-127 170l-125 -170h-223l227 291h242l227 -291h-221zM592 1081q145 0 267 -72.5t193.5 -200.5t71.5 -282t-71.5 -281t-193.5 -198.5t-267 -71.5t-266.5 71.5t-193 198.5t-71.5 281q0 155 71.5 282.5t193 200t266.5 72.5zM592 223q109 0 184.5 85t75.5 216
q0 135 -75.5 222.5t-184.5 87.5t-184.5 -87.5t-75.5 -222.5q0 -131 75.5 -216t184.5 -85z" />
    <glyph glyph-name="otilde" unicode="&#xf5;" horiz-adv-x="1185" 
d="M952 1458q-13 -103 -68.5 -173.5t-146.5 -70.5q-64 0 -157.5 38t-128.5 38q-73 0 -93 -84h-127q15 103 72.5 173.5t153.5 70.5q65 0 156 -39t124 -39q35 0 55.5 20t32.5 66h127zM592 1081q145 0 267 -72.5t193.5 -200.5t71.5 -282t-71.5 -281t-193.5 -198.5t-267 -71.5
t-266.5 71.5t-193 198.5t-71.5 281q0 155 71.5 282.5t193 200t266.5 72.5zM592 223q109 0 184.5 85t75.5 216q0 135 -75.5 222.5t-184.5 87.5t-184.5 -87.5t-75.5 -222.5q0 -131 75.5 -216t184.5 -85z" />
    <glyph glyph-name="odieresis" unicode="&#xf6;" horiz-adv-x="1185" 
d="M662 1440h249v-228h-249v228zM276 1440h250v-228h-250v228zM592 1081q145 0 267 -72.5t193.5 -200.5t71.5 -282t-71.5 -281t-193.5 -198.5t-267 -71.5t-266.5 71.5t-193 198.5t-71.5 281q0 155 71.5 282.5t193 200t266.5 72.5zM592 223q109 0 184.5 85t75.5 216
q0 135 -75.5 222.5t-184.5 87.5t-184.5 -87.5t-75.5 -222.5q0 -131 75.5 -216t184.5 -85z" />
    <glyph glyph-name="oslash" unicode="&#xf8;" horiz-adv-x="1185" 
d="M1124 524q0 -149 -71 -276t-193 -201t-266 -74q-185 0 -330 119l-94 -94l-102 102l96 99q-103 150 -103 325q0 113 42 216t113.5 178t170 119t207.5 44q182 0 326 -118l94 94l104 -101l-98 -100q104 -145 104 -332zM356 393l379 383q-66 47 -141 47q-110 0 -188 -87.5
t-78 -211.5q0 -70 28 -131zM858 524q0 74 -31 138l-378 -383q68 -48 145 -48q109 0 186.5 86.5t77.5 206.5z" />
    <glyph glyph-name="ugrave" unicode="&#xf9;" horiz-adv-x="1179" 
d="M213 1481h301l191 -289h-199zM1057 1055v-1055h-258v96q-105 -121 -269 -121q-187 0 -301 127.5t-114 335.5v617h270v-617q0 -22 3.5 -44.5t15.5 -53.5t32 -53.5t58 -39t88 -16.5q90 0 147 59t57 148v617h271z" />
    <glyph glyph-name="uacute" unicode="&#xfa;" horiz-adv-x="1179" 
d="M995 1481l-295 -289h-198l190 289h303zM1057 1055v-1055h-258v96q-105 -121 -269 -121q-187 0 -301 127.5t-114 335.5v617h270v-617q0 -22 3.5 -44.5t15.5 -53.5t32 -53.5t58 -39t88 -16.5q90 0 147 59t57 148v617h271z" />
    <glyph glyph-name="ucircumflex" unicode="&#xfb;" horiz-adv-x="1179" 
d="M713 1192l-127 170l-125 -170h-223l227 291h242l227 -291h-221zM1057 1055v-1055h-258v96q-105 -121 -269 -121q-187 0 -301 127.5t-114 335.5v617h270v-617q0 -22 3.5 -44.5t15.5 -53.5t32 -53.5t58 -39t88 -16.5q90 0 147 59t57 148v617h271z" />
    <glyph glyph-name="udieresis" unicode="&#xfc;" horiz-adv-x="1179" 
d="M659 1440h250v-228h-250v228zM274 1440h250v-228h-250v228zM1057 1055v-1055h-258v96q-105 -121 -269 -121q-187 0 -301 127.5t-114 335.5v617h270v-617q0 -22 3.5 -44.5t15.5 -53.5t32 -53.5t58 -39t88 -16.5q90 0 147 59t57 148v617h271z" />
    <glyph glyph-name="yacute" unicode="&#xfd;" horiz-adv-x="1091" 
d="M956 1528l-284 -295h-201l191 295h294zM1090 1055l-469 -1248q-30 -80 -69.5 -137.5t-81.5 -90t-94 -50t-99 -21.5t-105 0v248q77 -3 120 27t77 119l34 98l-401 1055h289l250 -707h6l252 707h291z" />
    <glyph glyph-name="thorn" unicode="&#xfe;" horiz-adv-x="1277" 
d="M1217 530q0 -233 -147 -393t-355 -160q-184 0 -309 125v-571h-273v1890h273v-465q126 123 309 123q102 0 194.5 -42.5t160 -115t107.5 -175t40 -216.5zM946 530q0 125 -78.5 211t-191.5 86q-112 0 -191 -87t-79 -210q0 -125 79 -213t191 -88q113 0 191.5 86.5t78.5 214.5
z" />
    <glyph glyph-name="ydieresis" unicode="&#xff;" horiz-adv-x="1089" 
d="M606 1440h250v-228h-250v228zM221 1440h250v-228h-250v228zM1087 1055l-466 -1248q-30 -80 -68.5 -137t-83 -89.5t-97.5 -50.5t-111.5 -20t-125.5 1v245q103 -6 157 25.5t87 120.5l31 80l-408 1073h287l258 -762l252 762h288z" />
    <glyph glyph-name="Amacron" unicode="&#x100;" 
d="M963 285h-568l-96 -285h-287l496 1421h342l496 -1421h-287zM877 537l-199 583l-199 -583h398zM352 1575v178h662v-178h-662z" />
    <glyph glyph-name="amacron" unicode="&#x101;" horiz-adv-x="1271" 
d="M1145 1055v-1055h-258v113q-130 -136 -324 -136q-101 0 -193.5 42.5t-160.5 115t-108 175t-40 216.5q0 115 40 218t108 175.5t160.5 115t193.5 42.5q195 0 324 -135v113h258zM874 524q0 126 -79 214.5t-191 88.5q-113 0 -191.5 -87.5t-78.5 -215.5q0 -125 78.5 -211
t191.5 -86q112 0 191 87t79 210zM254 1198v178h661v-178h-661z" />
    <glyph glyph-name="Abreve" unicode="&#x102;" 
d="M963 285h-568l-96 -285h-287l496 1421h342l496 -1421h-287zM877 537l-199 583l-199 -583h398zM999 1839q-9 -119 -95.5 -194.5t-221.5 -75.5t-221.5 75.5t-95.5 194.5h141q15 -56 61 -89.5t115 -33.5t115.5 34t60.5 89h141z" />
    <glyph glyph-name="abreve" unicode="&#x103;" horiz-adv-x="1271" 
d="M1145 1055v-1055h-258v113q-130 -136 -324 -136q-101 0 -193.5 42.5t-160.5 115t-108 175t-40 216.5q0 115 40 218t108 175.5t160.5 115t193.5 42.5q195 0 324 -135v113h258zM874 524q0 126 -79 214.5t-191 88.5q-113 0 -191.5 -87.5t-78.5 -215.5q0 -125 78.5 -211
t191.5 -86q112 0 191 87t79 210zM911 1466q-9 -119 -95.5 -194.5t-221.5 -75.5t-222 75.5t-96 194.5h142q15 -56 61 -89.5t115 -33.5t115.5 34t60.5 89h141z" />
    <glyph glyph-name="Aogonek" unicode="&#x104;" 
d="M1206 -276v-127q-85 -57 -185 -48.5t-140 82.5q-20 35 -20.5 81.5t18 96.5t65.5 101t115 90l-96 285h-568l-96 -285h-287l496 1421h342l496 -1421h-148q-103 -67 -148 -139.5t-18 -124.5q17 -36 70 -39.5t104 27.5zM877 537l-199 583l-199 -583h398z" />
    <glyph glyph-name="aogonek" unicode="&#x105;" horiz-adv-x="1271" 
d="M1034 -276v-127q-85 -57 -185 -48.5t-140 82.5q-20 35 -20.5 81.5t18 96.5t65.5 101t115 90v113q-130 -136 -324 -136q-101 0 -193.5 42.5t-160.5 115t-108 175t-40 216.5q0 115 40 218t108 175.5t160.5 115t193.5 42.5q195 0 324 -135v113h258v-1055h-119
q-103 -67 -148 -139.5t-18 -124.5q17 -36 70 -39.5t104 27.5zM874 524q0 126 -79 214.5t-191 88.5q-113 0 -191.5 -87.5t-78.5 -215.5q0 -125 78.5 -211t191.5 -86q112 0 191 87t79 210z" />
    <glyph glyph-name="Cacute" unicode="&#x106;" horiz-adv-x="1449" 
d="M1401 451q-68 -219 -239.5 -347.5t-405.5 -128.5q-143 0 -270.5 58t-219 156.5t-145 236.5t-53.5 291q0 205 90.5 375t248.5 268t349 98q239 0 409.5 -126.5t237.5 -346.5h-293q-49 101 -142 163t-212 62q-114 0 -210.5 -67t-152 -180.5t-55.5 -245.5q0 -133 55.5 -247
t152 -181.5t210.5 -67.5q117 0 210.5 64.5t143.5 165.5h291zM1155 1835l-295 -289h-198l190 289h303z" />
    <glyph glyph-name="cacute" unicode="&#x107;" horiz-adv-x="1169" 
d="M1116 356q-46 -179 -181.5 -280t-328.5 -101q-155 0 -280.5 74t-195 200t-69.5 277t69.5 278t195 202t280.5 75q191 0 326.5 -101.5t181.5 -279.5h-289q-29 57 -88.5 95.5t-130.5 38.5q-112 0 -191 -91t-79 -219q0 -125 79 -214t191 -89q73 0 133.5 38.5t87.5 96.5h289z
M999 1481l-294 -289h-199l190 289h303z" />
    <glyph glyph-name="Ccaron" unicode="&#x10c;" horiz-adv-x="1449" 
d="M1401 451q-68 -219 -239.5 -347.5t-405.5 -128.5q-143 0 -270.5 58t-219 156.5t-145 236.5t-53.5 291q0 205 90.5 375t248.5 268t349 98q239 0 409.5 -126.5t237.5 -346.5h-293q-49 101 -142 163t-212 62q-114 0 -210.5 -67t-152 -180.5t-55.5 -245.5q0 -133 55.5 -247
t152 -181.5t210.5 -67.5q117 0 210.5 64.5t143.5 165.5h291zM1108 1829l-227 -291h-242l-227 291h221l127 -170l125 170h223z" />
    <glyph glyph-name="ccaron" unicode="&#x10d;" horiz-adv-x="1169" 
d="M1116 356q-46 -179 -181.5 -280t-328.5 -101q-155 0 -280.5 74t-195 200t-69.5 277t69.5 278t195 202t280.5 75q191 0 326.5 -101.5t181.5 -279.5h-289q-29 57 -88.5 95.5t-130.5 38.5q-112 0 -191 -91t-79 -219q0 -125 79 -214t191 -89q73 0 133.5 38.5t87.5 96.5h289z
M946 1483l-227 -291h-242l-227 291h221l127 -170l125 170h223z" />
    <glyph glyph-name="Dcaron" unicode="&#x10e;" 
d="M1298 711q0 -325 -174.5 -518t-466.5 -193h-526v1421h526q296 0 468.5 -191t172.5 -519zM1028 713q0 68 -9 128t-34 122t-65 106t-107.5 72t-155.5 28h-256v-917h256q67 0 122 17t92.5 44t66.5 66.5t45.5 79.5t27 87.5t14 86.5t3.5 80zM887 1849l-228 -290h-241l-228 290
h222l127 -170l125 170h223z" />
    <glyph glyph-name="dcaron" unicode="&#x10f;" horiz-adv-x="1273" 
d="M1145 1524v-1524h-258v113q-133 -136 -324 -136q-101 0 -193.5 42.5t-160.5 115t-108 175t-40 216.5q0 115 40 218t108 175.5t160.5 115t193.5 42.5q182 0 311 -123v570h271zM874 524q0 126 -79 214.5t-191 88.5q-113 0 -191.5 -87.5t-78.5 -215.5q0 -125 78.5 -211
t191.5 -86q112 0 191 87t79 210zM1743 1532l-295 -289h-199l191 289h303z" />
    <glyph glyph-name="Dcroat" unicode="&#x110;" horiz-adv-x="1415" 
d="M1348 711q0 -325 -174.5 -518t-466.5 -193h-527v657h-149v252h149v512h527q296 0 468.5 -191t172.5 -519zM1077 713q0 68 -9 128t-34 122t-64.5 106t-107 72t-155.5 28h-254v-260h333v-252h-333v-405h254q77 0 138.5 21.5t100.5 60t66.5 83.5t40.5 100.5t18.5 101
t5.5 94.5z" />
    <glyph glyph-name="dcroat" unicode="&#x111;" horiz-adv-x="1273" 
d="M674 1219v178h200v127h271v-127h190v-178h-190v-1219h-258v113q-133 -136 -324 -136q-101 0 -193.5 42.5t-160.5 115t-108 175t-40 216.5q0 115 40 218t108 175.5t160.5 115t193.5 42.5q182 0 311 -123v265h-200zM874 524q0 126 -79 214.5t-191 88.5q-113 0 -191.5 -87.5
t-78.5 -215.5q0 -125 78.5 -211t191.5 -86q112 0 191 87t79 210z" />
    <glyph glyph-name="Emacron" unicode="&#x112;" horiz-adv-x="1245" 
d="M1184 252v-252h-1053v1421h1038v-252h-768v-303h656v-252h-656v-362h783zM348 1565v178h662v-178h-662z" />
    <glyph glyph-name="emacron" unicode="&#x113;" horiz-adv-x="1198" 
d="M1133 422h-797q26 -97 97.5 -153t166.5 -56q71 0 131 31t92 92h289q-47 -164 -182 -262.5t-328 -98.5q-146 0 -270.5 73.5t-197.5 200.5t-73 277t73 278t197.5 202.5t270.5 74.5q117 0 219.5 -45t177 -127t111.5 -208.5t23 -278.5zM340 643h524q-25 92 -96 146.5
t-168 54.5q-92 0 -161.5 -54t-98.5 -147zM268 1190v178h662v-178h-662z" />
    <glyph glyph-name="Edotaccent" unicode="&#x116;" horiz-adv-x="1245" 
d="M1184 252v-252h-1053v1421h1038v-252h-768v-303h656v-252h-656v-362h783zM547 1765h252v-227h-252v227z" />
    <glyph glyph-name="edotaccent" unicode="&#x117;" horiz-adv-x="1198" 
d="M1133 422h-797q26 -97 97.5 -153t166.5 -56q71 0 131 31t92 92h289q-47 -164 -182 -262.5t-328 -98.5q-146 0 -270.5 73.5t-197.5 200.5t-73 277t73 278t197.5 202.5t270.5 74.5q117 0 219.5 -45t177 -127t111.5 -208.5t23 -278.5zM340 643h524q-25 92 -96 146.5
t-168 54.5q-92 0 -161.5 -54t-98.5 -147zM473 1440h252v-228h-252v228z" />
    <glyph glyph-name="Eogonek" unicode="&#x118;" horiz-adv-x="1245" 
d="M811 -276v-127q-85 -57 -185.5 -48.5t-140.5 82.5q-20 35 -20.5 81.5t18.5 96.5t66 101t115 90h-533v1421h1038v-252h-768v-303h656v-252h-656v-362h783v-252h-381q-103 -67 -148 -139.5t-18 -124.5q17 -36 70 -39.5t104 27.5z" />
    <glyph glyph-name="eogonek" unicode="&#x119;" horiz-adv-x="1198" 
d="M784 -276v-127q-85 -57 -185 -48.5t-140 82.5q-19 33 -21 75.5t12.5 88.5t52.5 94t95 86q-145 1 -268.5 74.5t-196 200t-72.5 276.5t73 278t197.5 202.5t270.5 74.5q117 0 219.5 -45t177 -127t111.5 -208.5t23 -278.5h-797q26 -97 97.5 -153t166.5 -56q71 0 131 31t92 92
h289q-36 -124 -124 -213t-214 -125q-102 -67 -146.5 -139t-17.5 -123q17 -36 70 -39.5t104 27.5zM340 643h524q-25 92 -96 146.5t-168 54.5q-92 0 -161.5 -54t-98.5 -147z" />
    <glyph glyph-name="Ecaron" unicode="&#x11a;" horiz-adv-x="1245" 
d="M1184 252v-252h-1053v1421h1038v-252h-768v-303h656v-252h-656v-362h783zM1012 1829l-228 -291h-241l-228 291h222l127 -170l124 170h224z" />
    <glyph glyph-name="ecaron" unicode="&#x11b;" horiz-adv-x="1198" 
d="M1133 422h-797q26 -97 97.5 -153t166.5 -56q71 0 131 31t92 92h289q-47 -164 -182 -262.5t-328 -98.5q-146 0 -270.5 73.5t-197.5 200.5t-73 277t73 278t197.5 202.5t270.5 74.5q117 0 219.5 -45t177 -127t111.5 -208.5t23 -278.5zM340 643h524q-25 92 -96 146.5
t-168 54.5q-92 0 -161.5 -54t-98.5 -147zM946 1483l-227 -291h-242l-227 291h221l127 -170l125 170h223z" />
    <glyph glyph-name="Gbreve" unicode="&#x11e;" horiz-adv-x="1531" 
d="M1430 791v-791h-250v154q-71 -85 -181 -132t-241 -47q-143 0 -271 57.5t-219.5 156t-145.5 236t-54 290.5q0 205 91 375t249.5 268t349.5 98q236 0 407.5 -126t237.5 -347h-291q-43 98 -139 162.5t-215 64.5q-116 0 -213 -67t-152 -181t-55 -247q0 -132 57 -245.5
t156.5 -181t218.5 -67.5q148 0 260.5 90t151.5 228h-385v252h633zM1079 1817q-9 -119 -96 -195t-221 -76q-135 0 -222 76t-96 195h142q15 -56 61 -89.5t115 -33.5t115.5 34t60.5 89h141z" />
    <glyph glyph-name="gbreve" unicode="&#x11f;" horiz-adv-x="1253" 
d="M1145 1055v-1002q0 -263 -147 -416t-400 -153q-126 0 -235 45t-183 130t-94 194h297q24 -58 87.5 -87.5t127.5 -29.5q138 0 207 83.5t69 229.5v51q-129 -123 -311 -123q-101 0 -193.5 42.5t-160.5 115t-108 175t-40 216.5q0 115 40 218t108 175.5t160.5 115t193.5 42.5
q192 0 324 -135v113h258zM874 524q0 126 -79 214.5t-191 88.5q-113 0 -191.5 -87.5t-78.5 -215.5q0 -125 78.5 -211t191.5 -86q112 0 191 87t79 210zM924 1481q-9 -119 -96 -195t-222 -76q-134 0 -221 76t-96 195h141q15 -56 61 -89.5t115 -33.5t115.5 34t60.5 89h142z" />
    <glyph glyph-name="Gcommaaccent" unicode="&#x122;" horiz-adv-x="1531" 
d="M1040 -268q0 -86 -68 -135.5t-165 -49.5q-131 0 -234 82l35 74q71 -39 135 -46.5t99 12.5t35 57q0 35 -27 54.5t-62.5 18t-70.5 -15.5l-78 47l72 147q-180 12 -327.5 112t-231.5 265t-84 361q0 205 91 375t249.5 268t349.5 98q236 0 407.5 -126t237.5 -347h-291
q-43 98 -139 162.5t-215 64.5q-116 0 -213 -67t-152 -181t-55 -247q0 -132 57 -245.5t156.5 -181t218.5 -67.5q148 0 260.5 90t151.5 228h-385v252h633v-791h-250v154q-126 -148 -338 -172l-70 -105q38 17 84 17.5t87.5 -15t69 -54t27.5 -93.5z" />
    <glyph glyph-name="gcommaaccent" unicode="&#x123;" horiz-adv-x="1253" 
d="M1145 1055v-1002q0 -263 -147 -416t-400 -153q-126 0 -235 45t-183 130t-94 194h297q24 -58 87.5 -87.5t127.5 -29.5q138 0 207 83.5t69 229.5v51q-129 -123 -311 -123q-101 0 -193.5 42.5t-160.5 115t-108 175t-40 216.5q0 115 40 218t108 175.5t160.5 115t193.5 42.5
q192 0 324 -135v113h258zM874 524q0 126 -79 214.5t-191 88.5q-113 0 -191.5 -87.5t-78.5 -215.5q0 -125 78.5 -211t191.5 -86q112 0 191 87t79 210zM487 1532q59 35 150 35q89 0 146 -48.5t57 -125.5q0 -86 -68.5 -136.5t-165.5 -50.5q-131 0 -233 82l35 74q82 -49 165 -49
q48 0 75.5 20t27.5 56q0 35 -27 56t-71 21q-48 0 -91 -18v84z" />
    <glyph glyph-name="Imacron" unicode="&#x12a;" horiz-adv-x="542" 
d="M408 1421v-1421h-271v1421h271zM-59 1575v178h661v-178h-661z" />
    <glyph glyph-name="imacron" unicode="&#x12b;" horiz-adv-x="530" 
d="M399 1055v-1055h-270v1055h270zM-66 1219v178h662v-178h-662z" />
    <glyph glyph-name="Iogonek" unicode="&#x12e;" horiz-adv-x="542" 
d="M285 -276v-127q-85 -57 -185.5 -48.5t-140.5 82.5q-20 35 -20.5 81.5t18 96.5t65.5 101t115 90v1421h271v-1421h-132q-103 -66 -147.5 -139t-17.5 -125q17 -36 70 -39.5t104 27.5z" />
    <glyph glyph-name="iogonek" unicode="&#x12f;" horiz-adv-x="528" 
d="M276 -276v-127q-85 -57 -185 -48.5t-140 82.5q-20 35 -20.5 81.5t18 96.5t65.5 101t115 90v1055h270v-1055h-131q-103 -67 -148 -139.5t-18 -124.5q17 -36 70 -39.5t104 27.5zM399 1421v-252h-270v252h270z" />
    <glyph glyph-name="Idotaccent" unicode="&#x130;" horiz-adv-x="542" 
d="M408 1421v-1421h-271v1421h271zM145 1786h252v-227h-252v227z" />
    <glyph glyph-name="dotlessi" unicode="&#x131;" horiz-adv-x="530" 
d="M399 1055v-1055h-270v1055h270z" />
    <glyph glyph-name="Kcommaaccent" unicode="&#x136;" horiz-adv-x="1327" 
d="M543 631l-140 -146v-485h-272v1421h272v-573l535 573h373l-578 -594l602 -827h-352zM545 -92q59 35 149 35q89 0 146 -48.5t57 -125.5q0 -86 -68 -136.5t-165 -50.5q-132 0 -234 82l35 74q82 -49 166 -49q48 0 75 19.5t27 55.5q0 35 -27 56.5t-71 21.5q-47 0 -90 -18v84z
" />
    <glyph glyph-name="kcommaaccent" unicode="&#x137;" horiz-adv-x="1142" 
d="M528 444l-135 -141v-303h-270v1524h270v-852l346 383h373l-393 -412l416 -643h-344zM453 -86q59 35 149 35q89 0 146 -48.5t57 -125.5q0 -86 -68.5 -136.5t-165.5 -50.5q-131 0 -233 82l35 74q82 -49 166 -49q48 0 75 20t27 56q0 35 -27 56t-71 21q-47 0 -90 -18v84z" />
    <glyph glyph-name="Lacute" unicode="&#x139;" horiz-adv-x="1144" 
d="M403 1421v-1169h707v-252h-979v1421h272zM676 1847l-295 -288h-199l191 288h303z" />
    <glyph glyph-name="lacute" unicode="&#x13a;" horiz-adv-x="526" 
d="M399 1524v-1524h-270v1524h270zM653 1931l-295 -289h-198l190 289h303z" />
    <glyph glyph-name="Lcommaaccent" unicode="&#x13b;" horiz-adv-x="1144" 
d="M805 -260q0 -85 -68.5 -134.5t-165.5 -49.5q-130 0 -233 82l35 73q71 -39 134.5 -46.5t98.5 12.5t35 57q0 35 -27 54.5t-62.5 18t-70.5 -15.5l-78 47l80 162h-352v1421h272v-1169h707v-252h-496l-77 -115q38 17 84 17.5t87.5 -15t69 -54t27.5 -93.5z" />
    <glyph glyph-name="lcommaaccent" unicode="&#x13c;" horiz-adv-x="526" 
d="M446 -268q0 -86 -68 -135.5t-165 -49.5q-130 0 -233 82l34 74q71 -39 135 -46.5t99 12.5t35 57q0 35 -27 54.5t-62.5 18t-70.5 -15.5l-78 47l84 170v1524h270v-1524h-137l-84 -123q38 17 84 17.5t87.5 -15t69 -54t27.5 -93.5z" />
    <glyph glyph-name="Lcaron" unicode="&#x13d;" horiz-adv-x="1144" 
d="M403 1421v-1169h707v-252h-979v1421h272zM1044 1438l-294 -289h-199l190 289h303z" />
    <glyph glyph-name="lcaron" unicode="&#x13e;" horiz-adv-x="526" 
d="M399 1524v-1524h-270v1524h270zM961 1530l-295 -289h-199l190 289h304z" />
    <glyph glyph-name="Lslash" unicode="&#x141;" horiz-adv-x="1222" 
d="M1188 252v-252h-979v532l-178 -106v192l178 107v696h270v-532l277 166v-193l-277 -166v-444h709z" />
    <glyph glyph-name="lslash" unicode="&#x142;" horiz-adv-x="686" 
d="M655 803l-176 -107v-696h-270v532l-178 -106v192l178 107v696h270v-532l176 106v-192z" />
    <glyph glyph-name="Nacute" unicode="&#x143;" horiz-adv-x="1437" 
d="M1307 1421v-1421h-326l-580 1012v-1012h-270v1421h326l577 -1011v1011h273zM1108 1847l-295 -288h-199l191 288h303z" />
    <glyph glyph-name="nacute" unicode="&#x144;" horiz-adv-x="1181" 
d="M1065 616v-616h-270v616q0 23 -3 45.5t-15 54t-32 54t-58 39t-89 16.5q-90 0 -147.5 -59.5t-57.5 -149.5v-616h-270v1055h258v-103q110 129 272 129q186 0 299 -128t113 -337zM1042 1481l-294 -289h-199l190 289h303z" />
    <glyph glyph-name="Ncommaaccent" unicode="&#x145;" horiz-adv-x="1437" 
d="M1307 1421v-1421h-326l-580 1012v-1012h-270v1421h326l577 -1011v1011h273zM600 -86q59 35 150 35q89 0 145.5 -48.5t56.5 -125.5q0 -86 -68 -136.5t-165 -50.5q-132 0 -234 82l35 74q82 -49 166 -49q48 0 75 20t27 56q0 35 -27 56t-71 21q-46 0 -90 -18v84z" />
    <glyph glyph-name="ncommaaccent" unicode="&#x146;" horiz-adv-x="1181" 
d="M1065 616v-616h-270v616q0 23 -3 45.5t-15 54t-32 54t-58 39t-89 16.5q-90 0 -147.5 -59.5t-57.5 -149.5v-616h-270v1055h258v-103q110 129 272 129q186 0 299 -128t113 -337zM471 -86q59 35 150 35q89 0 145.5 -48.5t56.5 -125.5q0 -86 -68 -136.5t-165 -50.5
q-132 0 -234 82l35 74q82 -49 166 -49q48 0 75 20t27 56q0 35 -27 56t-71 21q-47 0 -90 -18v84z" />
    <glyph glyph-name="Ncaron" unicode="&#x147;" horiz-adv-x="1437" 
d="M1307 1421v-1421h-326l-580 1012v-1012h-270v1421h326l577 -1011v1011h273zM1067 1849l-227 -290h-242l-227 290h221l127 -170l125 170h223z" />
    <glyph glyph-name="ncaron" unicode="&#x148;" horiz-adv-x="1181" 
d="M1065 616v-616h-270v616q0 23 -3 45.5t-15 54t-32 54t-58 39t-89 16.5q-90 0 -147.5 -59.5t-57.5 -149.5v-616h-270v1055h258v-103q110 129 272 129q186 0 299 -128t113 -337zM999 1483l-227 -291h-242l-227 291h221l127 -170l125 170h223z" />
    <glyph glyph-name="Omacron" unicode="&#x14c;" horiz-adv-x="1525" 
d="M764 1456q197 0 356.5 -98.5t248.5 -267.5t89 -373q0 -205 -89 -374.5t-248.5 -268.5t-356.5 -99q-198 0 -358 99t-249 268.5t-89 374.5q0 204 89 373t249 267.5t358 98.5zM764 231q174 0 298 143t124 343q0 198 -124 340.5t-298 142.5q-116 0 -213.5 -65.5t-154 -176.5
t-56.5 -241q0 -200 124 -343t300 -143zM432 1585v178h662v-178h-662z" />
    <glyph glyph-name="omacron" unicode="&#x14d;" horiz-adv-x="1185" 
d="M592 1081q145 0 267 -72.5t193.5 -200.5t71.5 -282t-71.5 -281t-193.5 -198.5t-267 -71.5t-266.5 71.5t-193 198.5t-71.5 281q0 155 71.5 282.5t193 200t266.5 72.5zM592 223q109 0 184.5 85t75.5 216q0 135 -75.5 222.5t-184.5 87.5t-184.5 -87.5t-75.5 -222.5
q0 -131 75.5 -216t184.5 -85zM262 1198v178h662v-178h-662z" />
    <glyph glyph-name="Ohungarumlaut" unicode="&#x150;" horiz-adv-x="1525" 
d="M764 1456q197 0 356.5 -98.5t248.5 -267.5t89 -373q0 -205 -89 -374.5t-248.5 -268.5t-356.5 -99q-198 0 -358 99t-249 268.5t-89 374.5q0 204 89 373t249 267.5t358 98.5zM764 231q174 0 298 143t124 343q0 198 -124 340.5t-298 142.5q-116 0 -213.5 -65.5t-154 -176.5
t-56.5 -241q0 -200 124 -343t300 -143zM1249 1847l-225 -288h-168l135 288h258zM874 1847l-227 -288h-168l135 288h260z" />
    <glyph glyph-name="ohungarumlaut" unicode="&#x151;" horiz-adv-x="1185" 
d="M592 1081q145 0 267 -72.5t193.5 -200.5t71.5 -282t-71.5 -281t-193.5 -198.5t-267 -71.5t-266.5 71.5t-193 198.5t-71.5 281q0 155 71.5 282.5t193 200t266.5 72.5zM592 223q109 0 184.5 85t75.5 216q0 135 -75.5 222.5t-184.5 87.5t-184.5 -87.5t-75.5 -222.5
q0 -131 75.5 -216t184.5 -85zM1079 1481l-225 -289h-168l135 289h258zM705 1481l-228 -289h-168l135 289h261z" />
    <glyph glyph-name="OE" unicode="&#x152;" horiz-adv-x="2299" 
d="M1454 252h784v-252h-1054v139q-170 -164 -420 -164q-199 0 -359 99t-248.5 268.5t-88.5 374.5q0 204 88.5 373t248.5 267.5t359 98.5q250 0 420 -164v129h1038v-252h-768v-303h655v-252h-655v-362zM1184 692v47q-8 191 -130 326t-290 135q-176 0 -301 -142t-125 -341
q0 -130 57 -242t155 -178t214 -66q168 0 290 135t130 326z" />
    <glyph glyph-name="oe" unicode="&#x153;" horiz-adv-x="1978" 
d="M1911 422h-795q27 -94 98.5 -147.5t163.5 -53.5q148 0 228 115h284q-47 -164 -181.5 -262.5t-326.5 -98.5q-121 0 -227 51t-176 140q-62 -89 -164.5 -140t-222.5 -51q-108 0 -206.5 43.5t-169.5 117t-113 176t-42 214.5q0 150 71 278t193.5 202.5t266.5 74.5
q120 0 222.5 -52t164.5 -142q70 90 176 142t227 52q117 0 219.5 -44.5t177.5 -126t111.5 -208.5t20.5 -280zM1122 649h518q-27 87 -98.5 137t-163.5 50q-87 0 -156 -50.5t-100 -136.5zM854 526q0 120 -77 206.5t-185 86.5q-107 0 -183.5 -86.5t-76.5 -206.5t76 -204t184 -84
q109 0 185.5 84t76.5 204z" />
    <glyph glyph-name="Racute" unicode="&#x154;" 
d="M1225 172q0 -37 10 -88.5t22 -83.5h-274q-29 71 -29 156v217q0 91 -44.5 133.5t-139.5 42.5h-369v-549h-270v1421h649q224 0 356 -113t132 -311q0 -231 -199 -323q156 -86 156 -303v-199zM401 793h385q16 0 36 2.5t53 14t58.5 30.5t44.5 56t19 87q0 22 -1.5 38t-13 47
t-32 50t-65 35t-105.5 16h-379v-376zM991 1847l-295 -288h-198l190 288h303z" />
    <glyph glyph-name="racute" unicode="&#x155;" horiz-adv-x="745" 
d="M721 1075v-262q-181 20 -260 -65q-68 -70 -68 -230v-518h-270v1055h258v-105q63 78 152.5 109t187.5 16zM641 1481l-295 -289h-199l191 289h303z" />
    <glyph glyph-name="Rcommaaccent" unicode="&#x156;" 
d="M1225 172q0 -37 10 -88.5t22 -83.5h-274q-29 71 -29 156v217q0 91 -44.5 133.5t-139.5 42.5h-369v-549h-270v1421h649q224 0 356 -113t132 -311q0 -231 -199 -323q156 -86 156 -303v-199zM401 793h385q16 0 36 2.5t53 14t58.5 30.5t44.5 56t19 87q0 22 -1.5 38t-13 47
t-32 50t-65 35t-105.5 16h-379v-376zM563 -86q59 35 150 35q89 0 145.5 -48.5t56.5 -125.5q0 -86 -68 -136.5t-165 -50.5q-131 0 -233 82l34 74q82 -49 166 -49q48 0 75.5 20t27.5 56q0 35 -27 56t-72 21q-47 0 -90 -18v84z" />
    <glyph glyph-name="rcommaaccent" unicode="&#x157;" horiz-adv-x="745" 
d="M440 -268q0 -86 -68 -135.5t-165 -49.5q-131 0 -234 82l35 74q71 -39 134.5 -46.5t98.5 12.5t35 57q0 35 -26.5 54.5t-62 18t-70.5 -15.5l-78 47l84 170v1055h258v-105q63 78 152.5 109t187.5 16v-262q-181 20 -260 -65q-68 -70 -68 -230v-518h-137l-84 -123
q38 17 84 17.5t87.5 -15t69 -54t27.5 -93.5z" />
    <glyph glyph-name="Rcaron" unicode="&#x158;" 
d="M1225 172q0 -37 10 -88.5t22 -83.5h-274q-29 71 -29 156v217q0 91 -44.5 133.5t-139.5 42.5h-369v-549h-270v1421h649q224 0 356 -113t132 -311q0 -231 -199 -323q156 -86 156 -303v-199zM401 793h385q16 0 36 2.5t53 14t58.5 30.5t44.5 56t19 87q0 22 -1.5 38t-13 47
t-32 50t-65 35t-105.5 16h-379v-376zM989 1849l-227 -290h-242l-227 290h221l127 -170l125 170h223z" />
    <glyph glyph-name="rcaron" unicode="&#x159;" horiz-adv-x="745" 
d="M721 1075v-262q-181 20 -260 -65q-68 -70 -68 -230v-518h-270v1055h258v-105q63 78 152.5 109t187.5 16zM741 1483l-227 -291h-242l-227 291h221l127 -170l125 170h223z" />
    <glyph glyph-name="Sacute" unicode="&#x15a;" horiz-adv-x="1325" 
d="M657 1458q135 0 242.5 -41t171.5 -108.5t97.5 -149t33.5 -168.5h-270q0 94 -74.5 154.5t-200.5 60.5q-115 0 -195.5 -43t-80.5 -121q0 -70 69 -106t244 -72q112 -22 188.5 -44t150 -57t117 -79.5t69.5 -110t26 -151.5q0 -205 -159.5 -326t-428.5 -121q-86 0 -168 18.5
t-157 58t-132 96.5t-90.5 140.5t-33.5 182.5h270q0 -80 49 -138t118 -84t144 -26q83 0 152.5 19t117.5 63.5t48 108.5q0 70 -72.5 114.5t-263.5 81.5q-64 12 -112.5 24t-106.5 31t-99.5 41t-83.5 55t-68 72.5t-42 93t-16 117.5q0 184 149.5 299t396.5 115zM1032 1847
l-295 -288h-198l190 288h303z" />
    <glyph glyph-name="sacute" unicode="&#x15b;" horiz-adv-x="1077" 
d="M1014 332q0 -157 -130 -257t-333 -100q-202 0 -338.5 100t-161.5 269h275q26 -62 91 -92.5t134 -30.5q84 0 137 24.5t53 69.5q0 46 -43 69t-178 44q-49 8 -84.5 14.5t-84.5 19.5t-84 28t-72.5 39t-61 53.5t-38.5 70.5t-15 90q0 64 28 123t82 108t142 78t198 29
q181 0 306 -90t151 -239h-280q-13 39 -59 63.5t-118 24.5q-87 0 -131.5 -25.5t-44.5 -58.5q0 -38 49.5 -57.5t159.5 -36.5q73 -12 125.5 -23.5t107.5 -30t91.5 -42t67 -56.5t45 -77.5t14.5 -100.5zM907 1481l-295 -289h-198l190 289h303z" />
    <glyph glyph-name="Scedilla" unicode="&#x15e;" horiz-adv-x="1325" 
d="M895 -268q0 -86 -68 -135.5t-165 -49.5q-131 0 -234 82l35 74q71 -39 134.5 -46.5t98.5 12.5t35 57q0 35 -27 54.5t-62.5 18t-70.5 -15.5l-77 47l73 152q-97 11 -182.5 46.5t-156 94t-111.5 148.5t-41 200h270q0 -80 49 -138t118 -84t144 -26q83 0 152.5 19t117.5 63.5
t48 108.5q0 70 -72.5 114.5t-263.5 81.5q-64 12 -112.5 24t-106.5 31t-99.5 41t-83.5 55t-68 72.5t-42 93t-16 117.5q0 184 149.5 299t396.5 115q135 0 242.5 -41t171.5 -108.5t97.5 -149t33.5 -168.5h-270q0 94 -74.5 154.5t-200.5 60.5q-115 0 -195.5 -43t-80.5 -121
q0 -70 69 -106t244 -72q112 -22 188.5 -44t150 -57t117 -79.5t69.5 -110t26 -151.5q0 -199 -149 -318.5t-402 -128.5l-67 -98q38 17 84 17.5t87.5 -15t69 -54t27.5 -93.5z" />
    <glyph glyph-name="Scedilla" unicode="&#xf6c1;" horiz-adv-x="1325" 
d="M895 -268q0 -86 -68 -135.5t-165 -49.5q-131 0 -234 82l35 74q71 -39 134.5 -46.5t98.5 12.5t35 57q0 35 -27 54.5t-62.5 18t-70.5 -15.5l-77 47l73 152q-97 11 -182.5 46.5t-156 94t-111.5 148.5t-41 200h270q0 -80 49 -138t118 -84t144 -26q83 0 152.5 19t117.5 63.5
t48 108.5q0 70 -72.5 114.5t-263.5 81.5q-64 12 -112.5 24t-106.5 31t-99.5 41t-83.5 55t-68 72.5t-42 93t-16 117.5q0 184 149.5 299t396.5 115q135 0 242.5 -41t171.5 -108.5t97.5 -149t33.5 -168.5h-270q0 94 -74.5 154.5t-200.5 60.5q-115 0 -195.5 -43t-80.5 -121
q0 -70 69 -106t244 -72q112 -22 188.5 -44t150 -57t117 -79.5t69.5 -110t26 -151.5q0 -199 -149 -318.5t-402 -128.5l-67 -98q38 17 84 17.5t87.5 -15t69 -54t27.5 -93.5z" />
    <glyph glyph-name="scedilla" unicode="&#x15f;" horiz-adv-x="1077" 
d="M813 -268q0 -86 -68 -135.5t-165 -49.5q-131 0 -234 82l35 74q71 -39 134.5 -46.5t98.5 12.5t35 57q0 35 -27 54.5t-62.5 18t-70.5 -15.5l-77 47l71 150q-177 15 -293.5 112t-138.5 252h275q26 -62 91 -92.5t134 -30.5q84 0 137 24.5t53 69.5q0 46 -43 69t-178 44
q-49 8 -84.5 14.5t-84.5 19.5t-84 28t-72.5 39t-61 53.5t-38.5 70.5t-15 90q0 64 28 123t82 108t142 78t198 29q181 0 306 -90t151 -239h-280q-13 39 -59 63.5t-118 24.5q-87 0 -131.5 -25.5t-44.5 -58.5q0 -38 49.5 -57.5t159.5 -36.5q73 -12 125.5 -23.5t107.5 -30
t91.5 -42t67 -56.5t45 -77.5t14.5 -100.5q0 -144 -111.5 -242t-290.5 -113l-67 -100q38 17 84 17.5t87.5 -15t69 -54t27.5 -93.5z" />
    <glyph glyph-name="scedilla" unicode="&#xf6c2;" horiz-adv-x="1077" 
d="M813 -268q0 -86 -68 -135.5t-165 -49.5q-131 0 -234 82l35 74q71 -39 134.5 -46.5t98.5 12.5t35 57q0 35 -27 54.5t-62.5 18t-70.5 -15.5l-77 47l71 150q-177 15 -293.5 112t-138.5 252h275q26 -62 91 -92.5t134 -30.5q84 0 137 24.5t53 69.5q0 46 -43 69t-178 44
q-49 8 -84.5 14.5t-84.5 19.5t-84 28t-72.5 39t-61 53.5t-38.5 70.5t-15 90q0 64 28 123t82 108t142 78t198 29q181 0 306 -90t151 -239h-280q-13 39 -59 63.5t-118 24.5q-87 0 -131.5 -25.5t-44.5 -58.5q0 -38 49.5 -57.5t159.5 -36.5q73 -12 125.5 -23.5t107.5 -30
t91.5 -42t67 -56.5t45 -77.5t14.5 -100.5q0 -144 -111.5 -242t-290.5 -113l-67 -100q38 17 84 17.5t87.5 -15t69 -54t27.5 -93.5z" />
    <glyph glyph-name="Scaron" unicode="&#x160;" horiz-adv-x="1327" 
d="M1010 1882l-226 -291h-243l-228 291h224l125 -170l126 170h222zM659 1456q134 0 241.5 -41t172 -108.5t98 -148.5t33.5 -167h-270q0 93 -74.5 154t-200.5 61q-116 0 -196 -43.5t-80 -122.5q0 -69 71 -107.5t242 -72.5q112 -22 188.5 -43t150 -55.5t117 -78.5t69.5 -109.5
t26 -151.5q0 -205 -160.5 -327t-429.5 -122q-107 0 -208 30.5t-185.5 89.5t-136 157t-51.5 221h270q0 -60 28.5 -109t74.5 -78.5t99.5 -45t108.5 -15.5q61 0 116 11t102 33t74.5 60t27.5 87q0 71 -73.5 117t-262.5 81q-64 12 -112.5 23.5t-106 30.5t-100 41t-84 54.5
t-67.5 72t-42 93t-16 117.5q0 184 148.5 298t397.5 114z" />
    <glyph glyph-name="scaron" unicode="&#x161;" horiz-adv-x="1077" 
d="M905 1516l-225 -289h-244l-227 289h223l125 -168l127 168h221zM1014 332q0 -157 -130.5 -258t-332.5 -101t-338.5 100t-161.5 271h275q27 -59 92.5 -91t132.5 -32q83 0 142 27.5t59 66.5q0 45 -48 69.5t-184 45.5q-50 8 -84.5 14.5t-84 19t-84 27.5t-72.5 39t-61 53
t-38.5 70t-15.5 90q0 64 28 123t82 108t142 78t198 29q181 0 306 -90t151 -239h-280q-14 35 -60.5 61.5t-116.5 26.5q-88 0 -137 -26t-49 -60q0 -37 52.5 -56t166.5 -36q73 -12 125.5 -23.5t107.5 -30t91.5 -42t67 -56.5t45 -77.5t14.5 -100.5z" />
    <glyph glyph-name="Tcommaaccent" unicode="&#x162;" horiz-adv-x="1097" 
d="M731 -268q0 -86 -68 -135.5t-165 -49.5q-131 0 -234 82l35 74q71 -39 134.5 -46.5t98.5 12.5t35 57q0 52 -54.5 67.5t-104.5 -10.5l-78 47l84 170v1169h-381v252h1032v-252h-381v-1169h-137l-84 -123q38 17 84 17.5t87.5 -15t69 -54t27.5 -93.5z" />
    <glyph glyph-name="Tcommaaccent" unicode="&#x21a;" horiz-adv-x="1097" 
d="M731 -268q0 -86 -68 -135.5t-165 -49.5q-131 0 -234 82l35 74q71 -39 134.5 -46.5t98.5 12.5t35 57q0 52 -54.5 67.5t-104.5 -10.5l-78 47l84 170v1169h-381v252h1032v-252h-381v-1169h-137l-84 -123q38 17 84 17.5t87.5 -15t69 -54t27.5 -93.5z" />
    <glyph glyph-name="tcommaaccent" unicode="&#x163;" horiz-adv-x="647" 
d="M801 -266q0 -86 -68.5 -135.5t-165.5 -49.5q-130 0 -233 82l35 74q71 -39 134.5 -46.5t98.5 12.5t35 57q0 35 -27 54.5t-62.5 18t-70.5 -15.5l-78 47l84 170q-164 20 -252 137.5t-88 304.5v371h-127v240h127v268h271v-268h190v-240h-190v-373q0 -108 49.5 -154t152.5 -40
v-246l-84 -123q38 17 84.5 17.5t87.5 -15t69 -54t28 -93.5z" />
    <glyph glyph-name="tcommaaccent" unicode="&#x21b;" horiz-adv-x="647" 
d="M801 -266q0 -86 -68.5 -135.5t-165.5 -49.5q-130 0 -233 82l35 74q71 -39 134.5 -46.5t98.5 12.5t35 57q0 35 -27 54.5t-62.5 18t-70.5 -15.5l-78 47l84 170q-164 20 -252 137.5t-88 304.5v371h-127v240h127v268h271v-268h190v-240h-190v-373q0 -108 49.5 -154t152.5 -40
v-246l-84 -123q38 17 84.5 17.5t87.5 -15t69 -54t28 -93.5z" />
    <glyph glyph-name="Tcaron" unicode="&#x164;" horiz-adv-x="1097" 
d="M1065 1169h-381v-1169h-270v1169h-381v252h1032v-252zM897 1849l-227 -290h-242l-227 290h221l127 -170l125 170h223z" />
    <glyph glyph-name="tcaron" unicode="&#x165;" horiz-adv-x="647" 
d="M616 248v-246q-226 -24 -349.5 97.5t-123.5 344.5v371h-127v240h127v268h271v-268h190v-240h-190v-373q0 -108 49.5 -154t152.5 -40zM1001 1419l-294 -289h-199l190 289h303z" />
    <glyph glyph-name="Umacron" unicode="&#x16a;" horiz-adv-x="1331" 
d="M1214 1421v-858q0 -276 -141.5 -432t-406.5 -156t-406 156t-141 432v858h270v-866q0 -317 277 -317q276 0 276 317v866h272zM334 1585v178h661v-178h-661z" />
    <glyph glyph-name="umacron" unicode="&#x16b;" horiz-adv-x="1179" 
d="M1057 1055v-1055h-258v96q-105 -121 -269 -121q-187 0 -301 127.5t-114 335.5v617h270v-617q0 -22 3.5 -44.5t15.5 -53.5t32 -53.5t58 -39t88 -16.5q90 0 147 59t57 148v617h271zM258 1198v178h662v-178h-662z" />
    <glyph glyph-name="Uring" unicode="&#x16e;" horiz-adv-x="1331" 
d="M1214 1421v-858q0 -276 -141.5 -432t-406.5 -156t-406 156t-141 432v858h270v-866q0 -317 277 -317q276 0 276 317v866h272zM666 2001q89 0 153 -64t64 -155q0 -89 -64 -153t-153 -64t-153 64t-64 153q0 91 64 155t153 64zM666 1681q40 0 69 30t29 71t-29 70.5t-69 29.5
t-69.5 -29.5t-29.5 -70.5t29.5 -71t69.5 -30z" />
    <glyph glyph-name="uring" unicode="&#x16f;" horiz-adv-x="1179" 
d="M1057 1055v-1055h-258v96q-105 -121 -269 -121q-187 0 -301 127.5t-114 335.5v617h270v-617q0 -22 3.5 -44.5t15.5 -53.5t32 -53.5t58 -39t88 -16.5q90 0 147 59t57 148v617h271zM590 1634q89 0 153 -64t64 -155q0 -89 -64 -153t-153 -64t-153 64t-64 153q0 91 64 155
t153 64zM590 1315q40 0 69 29.5t29 70.5t-29 71t-69 30t-69 -30t-29 -71t29 -70.5t69 -29.5z" />
    <glyph glyph-name="Uhungarumlaut" unicode="&#x170;" horiz-adv-x="1331" 
d="M1214 1421v-858q0 -276 -141.5 -432t-406.5 -156t-406 156t-141 432v858h270v-866q0 -317 277 -317q276 0 276 317v866h272zM1133 1847l-226 -288h-168l135 288h259zM758 1847l-228 -288h-168l136 288h260z" />
    <glyph glyph-name="uhungarumlaut" unicode="&#x171;" horiz-adv-x="1179" 
d="M1057 1055v-1055h-258v96q-105 -121 -269 -121q-187 0 -301 127.5t-114 335.5v617h270v-617q0 -22 3.5 -44.5t15.5 -53.5t32 -53.5t58 -39t88 -16.5q90 0 147 59t57 148v617h271zM1077 1481l-225 -289h-168l135 289h258zM702 1481l-227 -289h-168l135 289h260z" />
    <glyph glyph-name="Uogonek" unicode="&#x172;" horiz-adv-x="1331" 
d="M860 -276v-127q-85 -57 -185 -48.5t-140 82.5q-19 33 -21 75.5t12.5 88.5t52.5 94t95 86h-8q-265 0 -406 156t-141 432v858h270v-866q0 -317 277 -317q276 0 276 317v866h272v-858q0 -223 -92.5 -368.5t-271.5 -194.5q-102 -67 -146.5 -139.5t-17.5 -124.5
q17 -36 70 -39.5t104 27.5z" />
    <glyph glyph-name="uogonek" unicode="&#x173;" horiz-adv-x="1179" 
d="M946 -276v-127q-85 -57 -185 -48.5t-140 82.5q-20 35 -20.5 81.5t18 96.5t65.5 101t115 90v96q-105 -121 -269 -121q-187 0 -301 127.5t-114 335.5v617h270v-617q0 -22 3.5 -44.5t15.5 -53.5t32 -53.5t58 -39t88 -16.5q90 0 147 59t57 148v617h271v-1055h-119
q-103 -67 -148 -139.5t-18 -124.5q17 -36 70 -39.5t104 27.5z" />
    <glyph glyph-name="Ydieresis" unicode="&#x178;" horiz-adv-x="1218" 
d="M690 1790h252v-227h-252v227zM305 1790h252v-227h-252v227zM745 545v-545h-272v545l-477 876h305l307 -608l310 608h305z" />
    <glyph glyph-name="Zacute" unicode="&#x179;" horiz-adv-x="1214" 
d="M1161 252v-252h-1110v242l762 927h-737v252h1067v-239l-762 -930h780zM977 1847l-295 -288h-199l191 288h303z" />
    <glyph glyph-name="zacute" unicode="&#x17a;" horiz-adv-x="1009" 
d="M965 244v-244h-922v233l557 578h-534v244h880v-242l-547 -569h566zM895 1481l-295 -289h-199l191 289h303z" />
    <glyph glyph-name="Zdotaccent" unicode="&#x17b;" horiz-adv-x="1214" 
d="M1161 252v-252h-1110v242l762 927h-737v252h1067v-239l-762 -930h780zM481 1806h252v-227h-252v227z" />
    <glyph glyph-name="zdotaccent" unicode="&#x17c;" horiz-adv-x="1009" 
d="M965 244v-244h-922v233l557 578h-534v244h880v-242l-547 -569h566zM379 1440h252v-228h-252v228z" />
    <glyph glyph-name="Zcaron" unicode="&#x17d;" horiz-adv-x="1216" 
d="M987 1882l-227 -291h-242l-227 291h221l127 -170l125 170h223zM387 252h776v-252h-1112v242l758 921v6h-731v252h1065v-239l-756 -924v-6z" />
    <glyph glyph-name="zcaron" unicode="&#x17e;" horiz-adv-x="1009" 
d="M862 1516l-225 -289h-244l-227 289h223l125 -168l127 168h221zM414 254h551v-254h-922v233l541 562v6h-518v254h880v-242l-532 -553v-6z" />
    <glyph glyph-name="florin" unicode="&#x192;" horiz-adv-x="962" 
d="M954 1399v-225q-118 30 -190 -4.5t-98 -155.5l-17 -82h174v-152h-205l-96 -446q-42 -204 -179 -285.5t-335 -25.5v225q121 -28 192.5 6t96.5 156l78 370h-172v152h205l32 155q44 206 181 287.5t333 24.5z" />
    <glyph glyph-name="circumflex" unicode="&#x2c6;" horiz-adv-x="854" 
d="M549 1192l-127 170l-125 -170h-223l227 291h242l227 -291h-221z" />
    <glyph glyph-name="caron" unicode="&#x2c7;" horiz-adv-x="860" 
d="M778 1483l-227 -291h-242l-227 291h221l127 -170l125 170h223z" />
    <glyph glyph-name="breve" unicode="&#x2d8;" horiz-adv-x="798" 
d="M717 1481q-9 -119 -96 -195t-222 -76q-134 0 -221 76t-96 195h141q15 -56 61 -89.5t115 -33.5t115.5 34t60.5 89h142z" />
    <glyph glyph-name="dotaccent" unicode="&#x2d9;" horiz-adv-x="415" 
d="M82 1440h252v-228h-252v228z" />
    <glyph glyph-name="ring" unicode="&#x2da;" horiz-adv-x="604" 
d="M303 1634q89 0 153 -64t64 -155q0 -89 -64 -153t-153 -64t-153 64t-64 153q0 91 64 155t153 64zM303 1315q40 0 69 29.5t29 70.5t-29 71t-69 30t-69 -30t-29 -71t29 -70.5t69 -29.5z" />
    <glyph glyph-name="ogonek" unicode="&#x2db;" horiz-adv-x="509" 
d="M428 -276v-127q-85 -57 -185.5 -48.5t-140.5 82.5q-20 35 -20.5 81.5t18.5 96.5t66 101t115 90h139q-103 -67 -148 -139.5t-18 -124.5q17 -36 70 -39.5t104 27.5z" />
    <glyph glyph-name="tilde" unicode="&#x2dc;" horiz-adv-x="854" 
d="M784 1458q-13 -103 -68.5 -173.5t-146.5 -70.5q-64 0 -157.5 38t-128.5 38q-73 0 -93 -84h-127q15 103 72.5 173.5t153.5 70.5q65 0 156 -39t124 -39q35 0 55.5 20t32.5 66h127z" />
    <glyph glyph-name="hungarumlaut" unicode="&#x2dd;" horiz-adv-x="933" 
d="M852 1481l-225 -289h-168l135 289h258zM477 1481l-227 -289h-168l135 289h260z" />
    <glyph glyph-name="afii10023" unicode="&#x401;" horiz-adv-x="1245" 
d="M745 1790h252v-227h-252v227zM360 1790h252v-227h-252v227zM1184 252v-252h-1053v1421h1038v-252h-768v-303h656v-252h-656v-362h783z" />
    <glyph glyph-name="afii10051" unicode="&#x402;" horiz-adv-x="1611" 
d="M684 614v-614h-270v1169h-381v252h1032v-252h-381v-307h430q201 0 324 -119t123 -311t-123 -312t-324 -120h-229v248h192q207 0 207 184q0 182 -207 182h-393z" />
    <glyph glyph-name="afii10052" unicode="&#x403;" horiz-adv-x="1155" 
d="M1004 1829l-295 -289h-199l190 289h304zM131 0v1421h965v-252h-695v-1169h-270z" />
    <glyph glyph-name="afii10053" unicode="&#x404;" horiz-adv-x="1449" 
d="M350 584q34 -174 150 -268.5t270 -94.5q118 0 203.5 63t136.5 167h291q-69 -222 -232.5 -349t-398.5 -127q-144 0 -271.5 51.5t-223 144.5t-151.5 234.5t-56 311.5q0 172 55.5 313.5t152 234t223.5 143t271 50.5q240 0 403 -125t230 -348h-293q-110 225 -340 225
q-158 0 -274.5 -96.5t-147.5 -277.5h551v-252h-549z" />
    <glyph glyph-name="afii10054" unicode="&#x405;" horiz-adv-x="1325" 
d="M657 1458q135 0 242.5 -41t171.5 -108.5t97.5 -149t33.5 -168.5h-270q0 94 -74.5 154.5t-200.5 60.5q-115 0 -195.5 -43t-80.5 -121q0 -70 69 -106t244 -72q112 -22 188.5 -44t150 -57t117 -79.5t69.5 -110t26 -151.5q0 -205 -159.5 -326t-428.5 -121q-86 0 -168 18.5
t-157 58t-132 96.5t-90.5 140.5t-33.5 182.5h270q0 -80 49 -138t118 -84t144 -26q83 0 152.5 19t117.5 63.5t48 108.5q0 70 -72.5 114.5t-263.5 81.5q-64 12 -112.5 24t-106.5 31t-99.5 41t-83.5 55t-68 72.5t-42 93t-16 117.5q0 184 149.5 299t396.5 115z" />
    <glyph glyph-name="afii10055" unicode="&#x406;" horiz-adv-x="542" 
d="M408 1421v-1421h-271v1421h271z" />
    <glyph glyph-name="afii10056" unicode="&#x407;" horiz-adv-x="542" 
d="M346 1790h252v-227h-252v227zM-39 1790h252v-227h-252v227zM408 1421v-1421h-271v1421h271z" />
    <glyph glyph-name="afii10057" unicode="&#x408;" horiz-adv-x="1081" 
d="M498 -27q-209 0 -336 131.5t-127 333.5v99h270v-107q0 -79 49.5 -135.5t143.5 -56.5q95 0 144.5 56.5t49.5 135.5v991h271v-983q0 -201 -128 -333t-337 -132z" />
    <glyph glyph-name="afii10058" unicode="&#x409;" horiz-adv-x="2181" 
d="M1288 862h395q201 0 324 -119t123 -311t-123 -312t-324 -120h-665v1169h-334l-375 -1169h-289l457 1421h811v-559zM1853 432q0 182 -206 182h-359v-366h359q206 0 206 184z" />
    <glyph glyph-name="afii10059" unicode="&#x40a;" horiz-adv-x="2127" 
d="M965 614h-562v-614h-272v1421h272v-559h562v559h270v-559h395q201 0 324 -119t123 -311t-123 -312t-324 -120h-665v614zM1800 432q0 182 -207 182h-358v-366h358q207 0 207 184z" />
    <glyph glyph-name="afii10060" unicode="&#x40b;" horiz-adv-x="1613" 
d="M684 614v-614h-270v1169h-381v252h1032v-252h-381v-307h373q204 0 320 -118t116 -316v-428h-276v428q0 92 -47 139t-150 47h-336z" />
    <glyph glyph-name="afii10061" unicode="&#x40c;" horiz-adv-x="1327" 
d="M1059 1829l-295 -289h-199l191 289h303zM543 631l-140 -146v-485h-272v1421h272v-573l535 573h373l-578 -594l602 -827h-352z" />
    <glyph glyph-name="afii10062" unicode="&#x40e;" horiz-adv-x="1284" 
d="M993 1858q-12 -143 -110.5 -235.5t-247.5 -92.5t-248 92.5t-111 235.5h193q13 -58 56 -95t110 -37t110 37t56 95h192zM528 389l-520 1032h301l350 -731l316 731h301l-520 -1110q-72 -153 -185.5 -232t-300.5 -79h-108v252h106q192 0 260 137z" />
    <glyph glyph-name="afii10145" unicode="&#x40f;" horiz-adv-x="1433" 
d="M852 0v-246h-270v246h-428v1421h270v-1169h586v1169h270v-1421h-428z" />
    <glyph glyph-name="afii10017" unicode="&#x410;" 
d="M963 285h-568l-96 -285h-287l496 1421h342l496 -1421h-287zM877 537l-199 583l-199 -583h398z" />
    <glyph glyph-name="afii10018" unicode="&#x411;" horiz-adv-x="1333" 
d="M1116 1176h-715v-314h422q201 0 324 -119t123 -311t-123 -312t-324 -120h-692v1421h985v-245zM993 432q0 182 -207 182h-385v-366h385q207 0 207 184z" />
    <glyph glyph-name="afii10019" unicode="&#x412;" horiz-adv-x="1333" 
d="M1270 418q0 -191 -121 -304.5t-326 -113.5h-692v1421h655q210 0 319 -101.5t109 -283.5q0 -178 -139 -278q93 -48 144 -134.5t51 -205.5zM786 1176h-385v-314h385q70 0 118 44.5t48 113.5q0 71 -45 113.5t-121 42.5zM993 428q0 89 -55 137.5t-158 48.5h-379v-366h385
q89 0 148 42t59 138z" />
    <glyph glyph-name="afii10020" unicode="&#x413;" horiz-adv-x="1155" 
d="M131 0v1421h965v-252h-695v-1169h-270z" />
    <glyph glyph-name="afii10021" unicode="&#x414;" horiz-adv-x="1560" 
d="M162 252l334 1169h579l326 -1169h106v-498h-270v246h-913v-246h-271v498h109zM1114 252l-254 917h-153l-261 -917h668z" />
    <glyph glyph-name="afii10022" unicode="&#x415;" horiz-adv-x="1245" 
d="M1184 252v-252h-1053v1421h1038v-252h-768v-303h656v-252h-656v-362h783z" />
    <glyph glyph-name="afii10024" unicode="&#x416;" horiz-adv-x="1871" 
d="M537 756l-514 665h333l402 -540h41v540h270v-540h43l440 540h310l-529 -663l541 -758h-315l-445 629h-45v-629h-270v629h-47l-433 -629h-321z" />
    <glyph glyph-name="afii10025" unicode="&#x417;" horiz-adv-x="1198" 
d="M1135 424q0 -89 -33 -168.5t-97 -143t-168.5 -100.5t-236.5 -37q-104 0 -193.5 25t-156 70t-114.5 106t-72.5 134t-26.5 153h276q5 -106 81.5 -170t203.5 -64q119 0 189.5 55t70.5 144q0 90 -57.5 138t-173.5 48h-131v248h96q115 0 170 45.5t55 124.5t-56.5 124.5
t-162.5 45.5q-222 0 -250 -209h-272q6 97 42.5 180t100 146.5t161.5 100t218 36.5q118 0 211.5 -34t151.5 -93t88 -134.5t30 -162.5q0 -183 -153 -278q103 -48 156 -136t53 -194z" />
    <glyph glyph-name="afii10026" unicode="&#x418;" horiz-adv-x="1437" 
d="M131 1421h272v-1044l578 1044h326v-1421h-271v1044l-579 -1044h-326v1421z" />
    <glyph glyph-name="afii10027" unicode="&#x419;" horiz-adv-x="1437" 
d="M1096 1858q-12 -143 -111 -235.5t-248 -92.5t-247.5 92.5t-110.5 235.5h192q13 -58 56 -95t110 -37t110 37t56 95h193zM131 1421h272v-1044l578 1044h326v-1421h-271v1044l-579 -1044h-326v1421z" />
    <glyph glyph-name="afii10028" unicode="&#x41a;" horiz-adv-x="1327" 
d="M543 631l-140 -146v-485h-272v1421h272v-573l535 573h373l-578 -594l602 -827h-352z" />
    <glyph glyph-name="afii10029" unicode="&#x41b;" horiz-adv-x="1411" 
d="M610 1169l-307 -1169h-287l375 1421h633l371 -1421h-287l-303 1169h-195z" />
    <glyph glyph-name="afii10030" unicode="&#x41c;" horiz-adv-x="1660" 
d="M1530 1421v-1421h-266v1042l-289 -1042h-289l-289 1042v-1042h-266v1421h401l297 -1065l297 1065h404z" />
    <glyph glyph-name="afii10031" unicode="&#x41d;" horiz-adv-x="1413" 
d="M1280 1421v-1421h-270v600h-607v-600h-272v1421h272v-569h607v569h270z" />
    <glyph glyph-name="afii10032" unicode="&#x41e;" horiz-adv-x="1525" 
d="M764 1456q197 0 356.5 -98.5t248.5 -267.5t89 -373q0 -205 -89 -374.5t-248.5 -268.5t-356.5 -99q-198 0 -358 99t-249 268.5t-89 374.5q0 204 89 373t249 267.5t358 98.5zM764 231q174 0 298 143t124 343q0 198 -124 340.5t-298 142.5q-116 0 -213.5 -65.5t-154 -176.5
t-56.5 -241q0 -200 124 -343t300 -143z" />
    <glyph glyph-name="afii10033" unicode="&#x41f;" horiz-adv-x="1413" 
d="M1260 1421v-1421h-271v1169h-588v-1169h-270v1421h1129z" />
    <glyph glyph-name="afii10034" unicode="&#x420;" horiz-adv-x="1249" 
d="M1198 963q0 -200 -127 -327.5t-336 -127.5h-334v-508h-270v1421h598q221 0 345 -123.5t124 -334.5zM727 1169h-326v-413h326q96 0 148.5 51t52.5 156q0 206 -201 206z" />
    <glyph glyph-name="afii10035" unicode="&#x421;" horiz-adv-x="1449" 
d="M1401 451q-68 -219 -239.5 -347.5t-405.5 -128.5q-143 0 -270.5 58t-219 156.5t-145 236.5t-53.5 291q0 205 90.5 375t248.5 268t349 98q239 0 409.5 -126.5t237.5 -346.5h-293q-49 101 -142 163t-212 62q-114 0 -210.5 -67t-152 -180.5t-55.5 -245.5q0 -133 55.5 -247
t152 -181.5t210.5 -67.5q117 0 210.5 64.5t143.5 165.5h291z" />
    <glyph glyph-name="afii10036" unicode="&#x422;" horiz-adv-x="1097" 
d="M1065 1169h-381v-1169h-270v1169h-381v252h1032v-252z" />
    <glyph glyph-name="afii10037" unicode="&#x423;" horiz-adv-x="1284" 
d="M528 389l-520 1032h301l350 -731l316 731h301l-520 -1110q-72 -153 -185.5 -232t-300.5 -79h-108v252h106q192 0 260 137z" />
    <glyph glyph-name="afii10038" unicode="&#x424;" horiz-adv-x="1597" 
d="M934 1290q129 -5 241 -53t189.5 -125t121.5 -179.5t44 -215.5q0 -114 -44 -217.5t-121.5 -180.5t-189.5 -125t-241 -53v-141h-270v141q-129 5 -241 53t-189.5 125t-121.5 180.5t-44 217.5q0 113 44 215.5t121.5 179.5t189.5 125t241 53v131h270v-131zM934 393
q152 9 239 97.5t87 226.5q0 136 -87.5 224t-238.5 97v-645zM664 1038q-151 -9 -238.5 -97t-87.5 -224q0 -138 87 -226.5t239 -97.5v645z" />
    <glyph glyph-name="afii10039" unicode="&#x425;" horiz-adv-x="1247" 
d="M926 0l-301 498l-299 -498h-322l459 727l-438 694h319l281 -465l280 465h322l-439 -694l457 -727h-319z" />
    <glyph glyph-name="afii10040" unicode="&#x426;" horiz-adv-x="1474" 
d="M1151 0h-997v1421h270v-1169h586v1169h270v-1169h141v-498h-270v246z" />
    <glyph glyph-name="afii10041" unicode="&#x427;" horiz-adv-x="1372" 
d="M948 444h-282q-260 0 -402.5 149.5t-142.5 412.5v415h270v-424q0 -301 275 -301h282v725h271v-1421h-271v444z" />
    <glyph glyph-name="afii10042" unicode="&#x428;" horiz-adv-x="1904" 
d="M817 252v1169h270v-1169h394v1169h270v-1421h-1597v1421h270v-1169h393z" />
    <glyph glyph-name="afii10043" unicode="&#x429;" horiz-adv-x="1945" 
d="M817 252v1169h270v-1169h394v1169h270v-1169h141v-498h-270v246h-1468v1421h270v-1169h393z" />
    <glyph glyph-name="afii10044" unicode="&#x42a;" horiz-adv-x="1583" 
d="M401 1169h-368v252h639v-559h393q201 0 323.5 -119t122.5 -311t-122.5 -312t-323.5 -120h-664v1169zM1235 432q0 182 -207 182h-356v-366h356q207 0 207 184z" />
    <glyph glyph-name="afii10045" unicode="&#x42b;" horiz-adv-x="1689" 
d="M1288 0v1421h271v-1421h-271zM401 1421v-559h308q201 0 323.5 -119t122.5 -311t-122.5 -312t-323.5 -120h-578v1421h270zM879 432q0 182 -207 182h-271v-366h271q207 0 207 184z" />
    <glyph glyph-name="afii10046" unicode="&#x42c;" horiz-adv-x="1304" 
d="M401 1421v-559h406q201 0 323.5 -119t122.5 -311t-122.5 -312t-323.5 -120h-676v1421h270zM977 432q0 182 -207 182h-369v-366h369q207 0 207 184z" />
    <glyph glyph-name="afii10047" unicode="&#x42d;" horiz-adv-x="1449" 
d="M1104 836q-28 183 -134.5 278.5t-262.5 95.5q-122 0 -220 -62.5t-147 -162.5h-293q66 220 241.5 346.5t418.5 126.5q144 0 267 -50t214 -143t142.5 -234t51.5 -314q0 -171 -51.5 -311.5t-142 -234.5t-214.5 -145t-267 -51q-238 0 -414 129t-244 347h291
q49 -101 148 -165.5t219 -64.5q152 0 257.5 93.5t137.5 269.5h-551v252h553z" />
    <glyph glyph-name="afii10048" unicode="&#x42e;" horiz-adv-x="1994" 
d="M600 600h-197v-600h-272v1421h272v-569h201q39 271 223 437.5t435 166.5q137 0 259 -54t212 -150t142 -234.5t52 -300.5t-52 -301.5t-142 -235.5t-212 -150.5t-259 -54.5q-168 0 -310 77t-235 220t-117 328zM1262 231q177 0 285 136.5t108 349.5q0 210 -108.5 346.5
t-284.5 136.5q-178 0 -287 -136.5t-109 -346.5q0 -213 109 -349.5t287 -136.5z" />
    <glyph glyph-name="afii10049" unicode="&#x42f;" 
d="M127 172v199q0 213 170 303q-199 92 -199 323q0 198 132 311t356 113h649v-1421h-270v549h-369q-199 0 -199 -176v-217q0 -88 -28 -156h-275q13 32 23 83.5t10 88.5zM965 793v376h-379q-217 0 -217 -186q0 -91 52 -140.5t159 -49.5h385z" />
    <glyph glyph-name="afii10065" unicode="&#x430;" horiz-adv-x="1191" 
d="M842 0q-18 41 -27 98q-112 -118 -323 -118q-85 0 -161.5 21.5t-136.5 63t-95.5 108t-35.5 149.5q0 69 23.5 122.5t61.5 87t96 57t117 34.5t135 18q75 7 123 14.5t92 20.5t65 35t21 53q0 43 -52.5 71.5t-140.5 28.5q-79 0 -146 -35t-85 -98h-271q21 153 156.5 251.5
t339.5 98.5q88 0 160 -16t119 -40.5t82 -59t53.5 -67t29.5 -69.5t14 -61t3 -47v-549q0 -81 31 -172h-248zM807 410v98q-75 -48 -256 -68q-108 -11 -161.5 -38.5t-53.5 -82.5q0 -45 48.5 -72.5t129.5 -27.5q130 0 211.5 47.5t81.5 143.5z" />
    <glyph glyph-name="afii10066" unicode="&#x431;" horiz-adv-x="1241" 
d="M96 543v469q0 241 145 376.5t377 135.5h213q117 0 189 35v-242q-72 -33 -172 -33h-221q-128 0 -193 -68t-65 -190v-72q117 123 307 123q137 0 253 -74t183.5 -201t67.5 -276q0 -152 -68.5 -277.5t-193 -199.5t-279.5 -74q-157 0 -281.5 74.5t-193 204t-68.5 289.5z
M909 524q0 130 -78.5 216.5t-191.5 86.5q-115 0 -192.5 -83.5t-77.5 -219.5q0 -130 78 -213.5t192 -83.5q113 0 191.5 86t78.5 211z" />
    <glyph glyph-name="afii10067" unicode="&#x432;" horiz-adv-x="1118" 
d="M1044 301q0 -99 -53 -169t-132 -101t-173 -31h-563v1055h561q132 0 224.5 -77.5t92.5 -207.5q0 -134 -98 -209q141 -77 141 -260zM393 823v-159h275q38 0 59 24t21 55q0 32 -20.5 56t-61.5 24h-273zM776 340q0 45 -28 75.5t-89 30.5h-266v-213h269q114 0 114 107z" />
    <glyph glyph-name="afii10068" unicode="&#x433;" horiz-adv-x="946" 
d="M393 815v-815h-270v1055h754v-240h-484z" />
    <glyph glyph-name="afii10069" unicode="&#x434;" horiz-adv-x="1269" 
d="M135 240l234 815h538l228 -815h92v-447h-266v207h-652v-207h-266v447h92zM858 240l-158 575h-129l-159 -575h446z" />
    <glyph glyph-name="afii10070" unicode="&#x435;" horiz-adv-x="1198" 
d="M1133 422h-797q26 -97 97.5 -153t166.5 -56q71 0 131 31t92 92h289q-47 -164 -182 -262.5t-328 -98.5q-146 0 -270.5 73.5t-197.5 200.5t-73 277t73 278t197.5 202.5t270.5 74.5q117 0 219.5 -45t177 -127t111.5 -208.5t23 -278.5zM340 643h524q-25 92 -96 146.5
t-168 54.5q-92 0 -161.5 -54t-98.5 -147z" />
    <glyph glyph-name="afii10072" unicode="&#x436;" horiz-adv-x="1652" 
d="M391 555l-352 500h323l261 -383h65v383h270v-383h78l252 383h318l-349 -498l385 -557h-319l-293 432h-72v-432h-270v432h-74l-290 -432h-314z" />
    <glyph glyph-name="afii10073" unicode="&#x437;" horiz-adv-x="1067" 
d="M319 350q29 -141 213 -141q99 0 146 35.5t47 91.5q0 110 -162 110h-104v218h100q137 0 137 86q0 46 -41 73t-110 27t-109 -26.5t-61 -88.5h-279q20 147 139.5 246.5t305.5 99.5q185 0 297 -90t112 -223q0 -132 -98 -207q141 -77 141 -260q0 -154 -125.5 -240t-330.5 -86
q-113 0 -206 31t-153.5 84.5t-97 119t-47.5 140.5h286z" />
    <glyph glyph-name="afii10074" unicode="&#x438;" horiz-adv-x="1202" 
d="M123 0v1055h266v-672l408 672h282v-1055h-266v672l-407 -672h-283z" />
    <glyph glyph-name="afii10075" unicode="&#x439;" horiz-adv-x="1202" 
d="M958 1520q-12 -143 -110.5 -235.5t-247.5 -92.5t-247.5 92.5t-110.5 235.5h192q13 -57 56 -94t110 -37t110 37t56 94h192zM123 0v1055h266v-672l408 672h282v-1055h-266v672l-407 -672h-283z" />
    <glyph glyph-name="afii10076" unicode="&#x43a;" horiz-adv-x="1142" 
d="M393 291v-291h-270v1055h270v-426l381 426h338l-391 -416l414 -639h-328l-275 438z" />
    <glyph glyph-name="afii10077" unicode="&#x43b;" horiz-adv-x="1183" 
d="M526 815l-227 -815h-279l297 1055h557l289 -1055h-278l-221 815h-138z" />
    <glyph glyph-name="afii10078" unicode="&#x43c;" horiz-adv-x="1415" 
d="M385 616v-616h-262v1055h336l248 -754l247 754h338v-1055h-262v629l-201 -629h-247z" />
    <glyph glyph-name="afii10079" unicode="&#x43d;" horiz-adv-x="1202" 
d="M393 449v-449h-270v1055h270v-367h416v367h270v-1055h-270v449h-416z" />
    <glyph glyph-name="afii10080" unicode="&#x43e;" horiz-adv-x="1185" 
d="M592 1081q145 0 267 -72.5t193.5 -200.5t71.5 -282t-71.5 -281t-193.5 -198.5t-267 -71.5t-266.5 71.5t-193 198.5t-71.5 281q0 155 71.5 282.5t193 200t266.5 72.5zM592 223q109 0 184.5 85t75.5 216q0 135 -75.5 222.5t-184.5 87.5t-184.5 -87.5t-75.5 -222.5
q0 -131 75.5 -216t184.5 -85z" />
    <glyph glyph-name="afii10081" unicode="&#x43f;" horiz-adv-x="1169" 
d="M393 815v-815h-270v1055h924v-1055h-271v815h-383z" />
    <glyph glyph-name="afii10082" unicode="&#x440;" horiz-adv-x="1267" 
d="M1206 530q0 -233 -146.5 -393t-354.5 -160q-182 0 -310 125v-571h-272v1524h260v-111q132 135 322 135q136 0 251 -71.5t182.5 -198t67.5 -279.5zM936 530q0 127 -78.5 212t-191.5 85q-112 0 -191.5 -87t-79.5 -210q0 -125 79.5 -213t191.5 -88q113 0 191.5 86.5
t78.5 214.5z" />
    <glyph glyph-name="afii10083" unicode="&#x441;" horiz-adv-x="1169" 
d="M1116 356q-46 -179 -181.5 -280t-328.5 -101q-155 0 -280.5 74t-195 200t-69.5 277t69.5 278t195 202t280.5 75q191 0 326.5 -101.5t181.5 -279.5h-289q-29 57 -88.5 95.5t-130.5 38.5q-112 0 -191 -91t-79 -219q0 -125 79 -214t191 -89q73 0 133.5 38.5t87.5 96.5h289z
" />
    <glyph glyph-name="afii10084" unicode="&#x442;" horiz-adv-x="1019" 
d="M375 815h-322v240h914v-240h-322v-815h-270v815z" />
    <glyph glyph-name="afii10085" unicode="&#x443;" horiz-adv-x="1089" 
d="M1087 1055l-466 -1248q-30 -80 -68.5 -137t-83 -89.5t-97.5 -50.5t-111.5 -20t-125.5 1v245q103 -6 157 25.5t87 120.5l31 80l-408 1073h287l258 -762l252 762h288z" />
    <glyph glyph-name="afii10086" unicode="&#x444;" horiz-adv-x="1263" 
d="M766 1067q198 -43 326.5 -194.5t128.5 -348.5q0 -193 -128.5 -342t-326.5 -192v-459h-270v459q-197 43 -325 192t-128 342q0 196 128 348t325 195v457h270v-457zM766 813v-573q87 35 134.5 110.5t47.5 173.5q0 100 -47.5 177t-134.5 112zM496 240v573
q-87 -35 -135 -112.5t-48 -176.5q0 -98 48 -173.5t135 -110.5z" />
    <glyph glyph-name="afii10087" unicode="&#x445;" horiz-adv-x="1050" 
d="M1051 0h-306l-219 358l-221 -358h-305l369 545l-346 510h307l196 -322l195 322h307l-346 -510z" />
    <glyph glyph-name="afii10088" unicode="&#x446;" horiz-adv-x="1222" 
d="M913 0h-790v1055h270v-815h373v815h270v-815h144v-447h-267v207z" />
    <glyph glyph-name="afii10089" unicode="&#x447;" horiz-adv-x="1116" 
d="M723 293h-170q-203 0 -328 120.5t-125 331.5v310h271v-301q0 -108 50 -165t146 -57h156v523h270v-1055h-270v293z" />
    <glyph glyph-name="afii10090" unicode="&#x448;" horiz-adv-x="1515" 
d="M623 240v815h270v-815h229v815h271v-1055h-1270v1055h270v-815h230z" />
    <glyph glyph-name="afii10091" unicode="&#x449;" horiz-adv-x="1576" 
d="M1268 0h-1145v1055h270v-815h230v815h270v-815h227v815h271v-815h143v-447h-266v207z" />
    <glyph glyph-name="afii10092" unicode="&#x44a;" horiz-adv-x="1253" 
d="M313 815h-260v240h531v-383h258q97 0 176.5 -36t130.5 -115t51 -191q0 -87 -30 -153t-82 -103.5t-113.5 -55.5t-132.5 -18h-529v815zM932 340q0 45 -28 75.5t-89 30.5h-231v-213h233q115 0 115 107z" />
    <glyph glyph-name="afii10093" unicode="&#x44b;" horiz-adv-x="1433" 
d="M1040 0v1055h271v-1055h-271zM936 330q0 -87 -30 -153t-82 -103.5t-113.5 -55.5t-132.5 -18h-455v1055h270v-383h185q97 0 176.5 -36t130.5 -115t51 -191zM668 340q0 45 -28 75.5t-89 30.5h-158v-213h160q115 0 115 107z" />
    <glyph glyph-name="afii10094" unicode="&#x44c;" horiz-adv-x="1097" 
d="M1044 330q0 -87 -30 -153t-82 -103.5t-113.5 -55.5t-132.5 -18h-563v1055h270v-383h293q97 0 176.5 -36t130.5 -115t51 -191zM776 340q0 45 -28 75.5t-89 30.5h-266v-213h269q114 0 114 107z" />
    <glyph glyph-name="afii10095" unicode="&#x44d;" horiz-adv-x="1169" 
d="M821 639q-25 97 -91 146t-155 49q-156 0 -231 -134h-289q45 177 186 279t334 102q231 0 382 -157.5t151 -397.5q0 -241 -150.5 -396t-382.5 -155q-195 0 -336 101.5t-186 279.5h289q68 -135 233 -135q89 0 155 46.5t91 140.5h-336v231h336z" />
    <glyph glyph-name="afii10096" unicode="&#x44e;" horiz-adv-x="1597" 
d="M393 424v-424h-270v1055h270v-391h156q39 186 171.5 301.5t313.5 115.5q141 0 256.5 -72.5t180.5 -200t65 -282.5q0 -236 -143.5 -393.5t-358.5 -157.5q-189 0 -324.5 125.5t-166.5 323.5h-150zM1034 223q104 0 167 83.5t63 217.5q0 137 -63 223.5t-167 86.5
q-103 0 -166 -86t-63 -224q0 -134 62.5 -217.5t166.5 -83.5z" />
    <glyph glyph-name="afii10097" unicode="&#x44f;" horiz-adv-x="1130" 
d="M252 487q-139 85 -139 248q0 87 30 151.5t82 100t113.5 52t132.5 16.5h537v-1055h-271v375h-198q-79 0 -118.5 -33.5t-39.5 -112.5v-102q0 -77 -23 -127h-274q27 62 27 143v113q0 90 35.5 143t105.5 88zM381 709q0 -45 28.5 -77t88.5 -32h239v221h-241q-61 0 -88 -31.5
t-27 -80.5z" />
    <glyph glyph-name="afii10071" unicode="&#x451;" horiz-adv-x="1198" 
d="M668 1440h250v-228h-250v228zM283 1440h249v-228h-249v228zM1133 422h-797q26 -97 97.5 -153t166.5 -56q71 0 131 31t92 92h289q-47 -164 -182 -262.5t-328 -98.5q-146 0 -270.5 73.5t-197.5 200.5t-73 277t73 278t197.5 202.5t270.5 74.5q117 0 219.5 -45t177 -127
t111.5 -208.5t23 -278.5zM340 643h524q-25 92 -96 146.5t-168 54.5q-92 0 -161.5 -54t-98.5 -147z" />
    <glyph glyph-name="afii10099" unicode="&#x452;" horiz-adv-x="1181" 
d="M123 1196h-123v231h123v97h272v-97h334v-231h-334v-197q109 82 242 82q193 0 311.5 -128t118.5 -337v-688q0 -106 -31.5 -184t-89.5 -124t-132.5 -67.5t-168.5 -21.5h-72v240h72q71 0 111.5 42t40.5 130v673q0 22 -3.5 44.5t-15.5 52t-32 51.5t-58 37.5t-88 15.5
q-91 0 -148 -56t-57 -145v-616h-272v1196z" />
    <glyph glyph-name="afii10100" unicode="&#x453;" horiz-adv-x="946" 
d="M901 1481l-295 -289h-198l190 289h303zM393 815v-815h-270v1055h754v-240h-484z" />
    <glyph glyph-name="afii10101" unicode="&#x454;" horiz-adv-x="1169" 
d="M350 408q29 -94 100.5 -140.5t161.5 -46.5q80 0 132 33.5t87 101.5h285q-46 -180 -178.5 -280.5t-325.5 -100.5q-153 0 -279 70t-199 196.5t-73 284.5q0 157 73 284.5t199 199t279 71.5q191 0 323.5 -101t178.5 -280h-285q-39 70 -90 102t-127 32q-90 0 -162 -49.5
t-100 -145.5h334v-231h-334z" />
    <glyph glyph-name="afii10102" unicode="&#x455;" horiz-adv-x="1077" 
d="M1014 332q0 -157 -130 -257t-333 -100q-202 0 -338.5 100t-161.5 269h275q26 -62 91 -92.5t134 -30.5q84 0 137 24.5t53 69.5q0 46 -43 69t-178 44q-49 8 -84.5 14.5t-84.5 19.5t-84 28t-72.5 39t-61 53.5t-38.5 70.5t-15 90q0 64 28 123t82 108t142 78t198 29
q181 0 306 -90t151 -239h-280q-13 39 -59 63.5t-118 24.5q-87 0 -131.5 -25.5t-44.5 -58.5q0 -38 49.5 -57.5t159.5 -36.5q73 -12 125.5 -23.5t107.5 -30t91.5 -42t67 -56.5t45 -77.5t14.5 -100.5z" />
    <glyph glyph-name="afii10103" unicode="&#x456;" horiz-adv-x="528" 
d="M399 1421v-252h-270v252h270zM399 1055v-1055h-270v1055h270z" />
    <glyph glyph-name="afii10104" unicode="&#x457;" horiz-adv-x="530" 
d="M338 1440h250v-228h-250v228zM-47 1440h250v-228h-250v228zM399 1055v-1055h-270v1055h270z" />
    <glyph glyph-name="afii10105" unicode="&#x458;" horiz-adv-x="489" 
d="M383 1421v-252h-272v252h272zM383 1055v-1184q0 -201 -114 -283t-320 -53v240q84 -8 123 20.5t39 106.5v1153h272z" />
    <glyph glyph-name="afii10106" unicode="&#x459;" horiz-adv-x="1744" 
d="M1047 672h286q72 0 135.5 -21t114 -62t80 -107.5t29.5 -151.5q0 -70 -20 -127t-54 -94t-81 -62t-97.5 -36t-106.5 -11h-557v815h-250l-227 -815h-279l297 1055h730v-383zM1423 340q0 45 -27.5 75.5t-88.5 30.5h-260v-213h262q114 0 114 107z" />
    <glyph glyph-name="afii10107" unicode="&#x45a;" horiz-adv-x="1755" 
d="M393 446v-446h-270v1055h270v-383h385v383h271v-383h286q72 0 135.5 -21t114 -62t80 -107.5t29.5 -151.5q0 -70 -20 -127t-54 -94t-81 -62t-97.5 -36t-106.5 -11h-557v446h-385zM1425 340q0 45 -27.5 75.5t-88.5 30.5h-260v-213h262q114 0 114 107z" />
    <glyph glyph-name="afii10108" unicode="&#x45b;" horiz-adv-x="1181" 
d="M123 1196h-123v231h123v97h272v-97h334v-231h-334v-197q109 82 242 82q193 0 311.5 -128t118.5 -337v-616h-270v616q0 22 -3.5 44.5t-15.5 52t-32 51.5t-58 37.5t-88 15.5q-91 0 -148 -56t-57 -145v-616h-272v1196z" />
    <glyph glyph-name="afii10109" unicode="&#x45c;" horiz-adv-x="1142" 
d="M969 1481l-295 -289h-199l191 289h303zM393 291v-291h-270v1055h270v-426l381 426h338l-391 -416l414 -639h-328l-275 438z" />
    <glyph glyph-name="afii10110" unicode="&#x45e;" horiz-adv-x="1089" 
d="M901 1520q-12 -143 -110.5 -235.5t-247.5 -92.5t-248 92.5t-111 235.5h193q13 -57 56 -94t110 -37t110 37t56 94h192zM1087 1055l-466 -1248q-30 -80 -68.5 -137t-83 -89.5t-97.5 -50.5t-111.5 -20t-125.5 1v245q103 -6 157 25.5t87 120.5l31 80l-408 1073h287l258 -762
l252 762h288z" />
    <glyph glyph-name="afii10193" unicode="&#x45f;" horiz-adv-x="1159" 
d="M713 0v-207h-267v207h-323v1055h270v-815h373v815h270v-1055h-323z" />
    <glyph glyph-name="afii10050" unicode="&#x490;" horiz-adv-x="1163" 
d="M836 1421v262h270v-514h-705v-1169h-270v1421h705z" />
    <glyph glyph-name="afii10098" unicode="&#x491;" horiz-adv-x="954" 
d="M639 1055v223h260v-463h-506v-815h-270v1055h516z" />
    <glyph glyph-name="endash" unicode="&#x2013;" horiz-adv-x="1241" 
d="M63 442v252h1115v-252h-1115z" />
    <glyph glyph-name="emdash" unicode="&#x2014;" horiz-adv-x="1947" 
d="M63 442v252h1821v-252h-1821z" />
    <glyph glyph-name="quoteleft" unicode="&#x2018;" horiz-adv-x="415" 
d="M346 1120v-258h-276v277q0 126 68 199t181 85v-114q-118 -27 -118 -164v-25h145z" />
    <glyph glyph-name="quoteright" unicode="&#x2019;" horiz-adv-x="415" 
d="M346 1421v-276q0 -125 -68.5 -198.5t-181.5 -84.5v115q59 12 89 55t30 109v22h-145v258h276z" />
    <glyph glyph-name="quotesinglbase" unicode="&#x201a;" horiz-adv-x="409" 
d="M346 260v-276q0 -125 -68.5 -198.5t-181.5 -84.5v115q59 12 89 55t30 109v22h-145v258h276z" />
    <glyph glyph-name="quotedblleft" unicode="&#x201c;" horiz-adv-x="872" 
d="M803 1120v-258h-277v277q0 126 68.5 198.5t181.5 85.5v-114q-119 -27 -119 -164v-25h146zM201 1120h145v-258h-276v277q0 126 68 199t181 85v-114q-118 -27 -118 -164v-25z" />
    <glyph glyph-name="quotedblright" unicode="&#x201d;" horiz-adv-x="872" 
d="M803 1421v-276q0 -125 -68.5 -198.5t-181.5 -84.5v115q59 12 89 55t30 109v22h-146v258h277zM70 1421h276v-276q0 -125 -68.5 -198.5t-181.5 -84.5v115q59 12 89 55t30 109v22h-145v258z" />
    <glyph glyph-name="quotedblbase" unicode="&#x201e;" horiz-adv-x="866" 
d="M803 258v-276q0 -125 -68.5 -198.5t-181.5 -84.5v115q59 12 89 54.5t30 108.5v23h-146v258h277zM70 258h276v-276q0 -125 -68.5 -198.5t-181.5 -84.5v115q59 12 89 54.5t30 108.5v23h-145v258z" />
    <glyph glyph-name="dagger" unicode="&#x2020;" horiz-adv-x="796" 
d="M719 963h-213v-555h-217v555h-211v202h211v256h217v-256h213v-202z" />
    <glyph glyph-name="daggerdbl" unicode="&#x2021;" horiz-adv-x="796" 
d="M506 963v-271h213v-203h-213v-256h-217v256h-211v203h211v271h-211v202h211v256h217v-256h213v-202h-213z" />
    <glyph glyph-name="bullet" unicode="&#x2022;" horiz-adv-x="641" 
d="M322 528q-92 0 -156 64t-64 156q0 90 64 153.5t156 63.5q89 0 153 -64t64 -153q0 -92 -63.5 -156t-153.5 -64z" />
    <glyph glyph-name="ellipsis" unicode="&#x2026;" horiz-adv-x="1769" 
d="M1675 289v-289h-291v289h291zM1030 289v-289h-291v289h291zM385 289v-289h-291v289h291z" />
    <glyph glyph-name="perthousand" unicode="&#x2030;" horiz-adv-x="2439" 
d="M403 1421q153 0 256 -104t103 -254q0 -149 -103 -252.5t-256 -103.5q-151 0 -254.5 103.5t-103.5 252.5q0 150 103 254t255 104zM317 0l781 1421h219l-780 -1421h-220zM2038 0q-153 0 -256 104t-103 254q0 149 103.5 254t255.5 105q151 0 254.5 -105t103.5 -254
q0 -150 -103 -254t-255 -104zM1231 0q-153 0 -256 104t-103 254q0 149 103.5 254t255.5 105q151 0 254.5 -105t103.5 -254q0 -150 -103 -254t-255 -104zM403 899q64 0 110 48t46 116t-46 116t-110 48q-63 0 -108 -48t-45 -116t45 -116t108 -48zM2038 522q-64 0 -110 -48
t-46 -116q0 -67 45.5 -115t110.5 -48q63 0 109 48t46 115t-46 115.5t-109 48.5zM1231 522q-64 0 -110 -48t-46 -116q0 -67 45.5 -115t110.5 -48q63 0 109 48t46 115t-46 115.5t-109 48.5z" />
    <glyph glyph-name="guilsinglleft" unicode="&#x2039;" horiz-adv-x="430" 
d="M47 715l324 278v-215l-205 -164l205 -168v-215l-324 281v203z" />
    <glyph glyph-name="guilsinglright" unicode="&#x203a;" horiz-adv-x="430" 
d="M385 715v-203l-326 -281v215l205 168l-205 164v215z" />
    <glyph glyph-name="fraction" unicode="&#x2044;" horiz-adv-x="1210" 
d="M1108 1421l-834 -1446h-172l836 1446h170z" />
    <glyph glyph-name="Euro" unicode="&#x20ac;" horiz-adv-x="1343" 
d="M1323 350q-70 -166 -207.5 -258t-329.5 -92q-202 0 -359.5 120t-221.5 314h-154v154h121q-4 46 -4 71q0 8 1 25.5t1 26.5h-119v151h148q62 201 228.5 327t381.5 126q296 0 475 -203l-115 -184q-55 80 -146 127t-206 47q-123 0 -220 -65t-148 -175h681l-94 -151h-628
q-2 -16 -2 -52q0 -25 4 -71h551l-95 -154h-411q48 -102 135.5 -161.5t195.5 -59.5q97 0 165 33.5t118 103.5h254z" />
    <glyph glyph-name="afii61352" unicode="&#x2116;" horiz-adv-x="2459" 
d="M1937 1452q127 0 233 -63.5t167 -172.5t61 -237t-61 -236.5t-167 -171.5t-233 -63q-193 0 -328.5 138t-135.5 333q0 96 36.5 183.5t98.5 151t148 101t181 37.5zM1307 1421v-1421h-326l-580 1012v-1012h-270v1421h326l577 -1011v1011h273zM2335 2h-799v240h799v-240z
M1937 739q90 0 146.5 66.5t56.5 173.5t-57 176.5t-146 69.5q-91 0 -148.5 -69t-57.5 -177q0 -107 57.5 -173.5t148.5 -66.5z" />
    <glyph glyph-name="trademark" unicode="&#x2122;" horiz-adv-x="1884" 
d="M1782 1421v-893h-195v541l-178 -541h-213l-176 539v-539h-195v893h260l218 -649l219 649h260zM72 1421h649v-190h-223v-703h-203v703h-223v190z" />
    <glyph glyph-name="commaaccent" unicode="&#xf004;" horiz-adv-x="630" 
d="M197 -127q59 35 149 35q89 0 146 -49t57 -125q0 -86 -68.5 -136.5t-165.5 -50.5q-131 0 -233 82l35 74q82 -49 166 -49q48 0 75 20t27 56q0 35 -27 56t-71 21q-47 0 -90 -18v84z" />
    <glyph glyph-name="commaaccent" unicode="&#xf6c3;" horiz-adv-x="630" 
d="M197 -127q59 35 149 35q89 0 146 -49t57 -125q0 -86 -68.5 -136.5t-165.5 -50.5q-131 0 -233 82l35 74q82 -49 166 -49q48 0 75 20t27 56q0 35 -27 56t-71 21q-47 0 -90 -18v84z" />
    <glyph glyph-name="apple" unicode="&#xf8ff;" horiz-adv-x="1851" 
d="M1767 711q0 -156 -61 -290t-160.5 -223t-224.5 -140.5t-256 -55.5l-25 -2v1423l25 -2q131 -4 256 -55.5t224.5 -140.5t160.5 -223.5t61 -290.5zM793 1421h188v-256h-188q-196 0 -317.5 -131.5t-121.5 -322.5t121.5 -323t317.5 -132h188v-256h-188q-157 0 -291.5 57.5
t-225 155t-141.5 227t-51 271.5t51 271.5t141.5 226.5t225 154.5t291.5 57.5zM1718 688h-276q-3 -139 -43 -274q95 -32 190 -95q123 159 129 369zM1399 1008q40 -132 43 -273h276q-6 207 -129 369q-89 -59 -190 -96zM1090 471q144 -6 262 -43q40 125 43 260h-305v-217z
M1090 735h305q-3 133 -43 258q-122 -35 -262 -41v-217zM1090 999q144 10 247 41q-43 112 -108.5 195.5t-138.5 124.5v-361zM1090 63q72 39 138 123t109 197q-108 33 -247 39v-359zM1174 1360q132 -106 208 -305q98 36 177 86q-75 85 -174.5 141t-210.5 78zM1559 283
q-79 50 -177 86q-77 -200 -208 -306q110 22 209.5 78.5t175.5 141.5z" />
    <glyph glyph-name="CR" horiz-adv-x="630" 
 />
    </font>
</defs>
</svg>
