<?xml version="1.0" encoding="utf-8"?>
<!-- Generator: Adobe Illustrator 25.4.1, SVG Export Plug-In . SVG Version: 6.00 Build 0)  -->
<svg version="1.1" id="Layer_1" xmlns="http://www.w3.org/2000/svg" xmlns:xlink="http://www.w3.org/1999/xlink" x="0px" y="0px"
	 viewBox="0 0 80 31" style="enable-background:new 0 0 80 31;" xml:space="preserve">
<style type="text/css">
	.st0{fill:#101E8C;}
	.st1{fill:#FFFFFF;}
	.st2{fill:#92D300;}
	.st3{fill:#FF8112;}
</style>
<g id="Group_33837" transform="translate(207.175)">
	<g id="Group_33832" transform="translate(0 0)">
		<g id="Group_33808" transform="translate(47.411 25.128)">
			<path id="Path_59918" class="st0" d="M-217.6-11.1c-0.1,0-0.1,0-0.1,0l-10.6-3.3c-0.3-0.1-0.4-0.4-0.3-0.6
				c0.1-0.3,0.4-0.4,0.6-0.3l0,0l10.6,3.3c0.3,0.1,0.4,0.4,0.3,0.6C-217.2-11.3-217.4-11.1-217.6-11.1L-217.6-11.1z"/>
		</g>
		<g id="Group_33809" transform="translate(9.36 23.127)">
			<path id="Path_59919" class="st0" d="M-204.9-10.2c-0.3,0-0.5-0.2-0.5-0.5c0-0.2,0.1-0.4,0.3-0.5l9.7-3c0.3-0.1,0.5,0.1,0.6,0.3
				c0.1,0.3-0.1,0.5-0.3,0.6l-9.7,3C-204.8-10.2-204.9-10.2-204.9-10.2z"/>
		</g>
		<path id="Rectangle_3915" class="st0" d="M-182.9,0L-182.9,0c1.5,0,2.7,1.2,2.7,2.7V10c0,1.5-1.2,2.7-2.7,2.7l0,0
			c-1.5,0-2.7-1.2-2.7-2.7V2.7C-185.6,1.2-184.4,0-182.9,0z"/>
		<path id="Rectangle_3916" class="st1" d="M-182.9,0.9L-182.9,0.9c1,0,1.8,0.8,1.8,1.8v6.9c0,1-0.8,1.8-1.8,1.8l0,0
			c-1,0-1.8-0.8-1.8-1.8V2.7C-184.7,1.8-183.9,0.9-182.9,0.9z"/>
		<path id="Path_59920" class="st2" d="M-176.3,15.2l-4.8,1.8l-8.9-2.9l1.5-9.1h11.2L-176.3,15.2z"/>
		<g id="Group_33812" transform="translate(27.571 11.698)">
			<g id="Group_33810">
				<path id="Path_59921" class="st0" d="M-215.3,3.5c-0.3,0-0.5-0.2-0.5-0.4l-0.8-9.7c0-0.3,0.2-0.5,0.5-0.5c0.3,0,0.5,0.2,0.5,0.4
					l0.8,9.7C-214.8,3.3-215,3.5-215.3,3.5z"/>
			</g>
			<g id="Group_33811" transform="translate(28.952)">
				<path id="Path_59922" class="st0" d="M-233,4c-0.3,0-0.5-0.2-0.5-0.4l-0.8-10.1c0-0.3,0.2-0.5,0.5-0.5c0.3,0,0.5,0.2,0.5,0.4
					l0.8,10.1C-232.5,3.7-232.7,3.9-233,4L-233,4z"/>
			</g>
		</g>
		<g id="Group_33814" transform="translate(27.571 11.698)">
			<g id="Group_33813">
				<path id="Path_59923" class="st0" d="M-204.4-6.7c0,0.3-0.2,0.5-0.5,0.5h-11.2c-0.3,0-0.5-0.2-0.5-0.5c0-0.3,0.2-0.5,0.5-0.5
					h11.2C-204.6-7.2-204.4-6.9-204.4-6.7z"/>
			</g>
		</g>
		<path id="Path_59924" class="st0" d="M-182.4,11.1c0,0.3,0.3,0.5,0.5,0.5c0.4,0.1,0.8-0.2,0.8-0.6c0-0.1,0-0.2,0-0.3
			c-0.1-0.6-0.7-1-1.3-1c-0.7-0.1-1.4,0.5-1.4,1.2c0,0.1,0,0.2,0,0.2c0.1,1,1,1.9,2.9,1.9h1.2l-0.3-3.5l-2.6-1.9l-2.3,1.9l0.2,4.2
			h-0.7l-0.2-4.6l2.9-2.3l3.3,2.4l0.4,4.5h-2.3c-1.7,0-3.1-1.1-3.2-2.6c-0.1-1.3,0.9-2.2,2.1-2.2c1,0,1.9,0.7,2,1.7
			c0.1,1-0.5,1.6-1.4,1.6c-0.7,0-1.2-0.5-1.3-1.2c0-0.5,0.3-0.9,0.7-0.9c0,0,0,0,0.1,0c0.3,0,0.7,0.2,0.7,0.5c0,0.2-0.1,0.3-0.3,0.4
			c0,0-0.1,0-0.1,0c-0.2,0-0.3-0.1-0.4-0.2C-182.3,10.9-182.4,11-182.4,11.1z"/>
		<path id="Path_59925" class="st0" d="M-190.1,14.5c-0.3,0-0.4-0.3-0.4-0.6l1.5-9c0-0.3,0.3-0.4,0.6-0.4c0.3,0,0.4,0.3,0.4,0.6l0,0
			l-1.5,9C-189.6,14.4-189.8,14.6-190.1,14.5L-190.1,14.5z"/>
		<g id="Group_33815" transform="translate(49.762 35.741)">
			<path id="Path_59926" class="st3" d="M-225-16.3l-2,0.6l-3.2-3.1l2-0.6L-225-16.3z"/>
			<path id="Path_59927" class="st1" d="M-223-17l-2,0.6l-3.2-3.1l2-0.6L-223-17z"/>
			<path id="Path_59928" class="st3" d="M-221-17.6l-2,0.6l-3.2-3.1l2-0.6l0,0L-221-17.6z"/>
			<path id="Path_59929" class="st1" d="M-219.1-18.2l-2,0.6l-3.2-3.1l2-0.6L-219.1-18.2z"/>
			<path id="Path_59930" class="st3" d="M-217.1-18.8l-2,0.6l-3.2-3.1l2-0.6L-217.1-18.8z"/>
		</g>
		<g id="Group_33818" transform="translate(19.833 44.363)">
			<g id="Group_33816" transform="translate(4.556 3.34)">
				<path id="Path_59931" class="st3" d="M-211.6-29.2l-0.7,0.5l-2.3,1.5v7.7l5,1.5v-8.6L-211.6-29.2z"/>
			</g>
			<g id="Group_33817">
				<path id="Path_59932" class="st0" d="M-204.6-22.9l-3.2-4c-0.2-0.2-0.4-0.2-0.6-0.1l-3.2,2.1c-0.1,0.1-0.2,0.2-0.2,0.4v7.1
					l1,0.3v-7.2l2.6-1.7l0.5,0.6l2.3,2.9v7l0.3,0.1c0,0,0.6,0.2,0.6,0.2v-7.4C-204.5-22.7-204.6-22.8-204.6-22.9z"/>
			</g>
		</g>
		<g id="Group_33819" transform="translate(47.812 43.807)">
			<path id="Path_59933" class="st3" d="M-218.2-25.6l-7.1,2.2l-3.6-3.4v13.5l10.8-3.3L-218.2-25.6z"/>
		</g>
		<g id="Group_33820" transform="translate(1.249 32.04)">
			<path id="Path_59934" class="st3" d="M-196.8-19.6l-3.6,3.5l3.6-1.1V-19.6z"/>
		</g>
		<g id="Group_33821" transform="translate(9.36 30.791)">
			<path id="Path_59935" class="st0" d="M-204.9-4.2c-0.3,0-0.5-0.2-0.5-0.5l0,0v-13.6c0-0.3,0.2-0.5,0.5-0.5c0.3,0,0.5,0.2,0.5,0.5
				v13.6C-204.5-4.4-204.7-4.2-204.9-4.2L-204.9-4.2z"/>
		</g>
		<g id="Group_33822" transform="translate(46.563 42.192)">
			<path id="Path_59936" class="st0" d="M-227.7-11.2c-0.3,0-0.5-0.2-0.5-0.5l0,0v-13.6c0-0.3,0.2-0.5,0.5-0.5
				c0.3,0,0.5,0.2,0.5,0.5v13.6C-227.2-11.4-227.4-11.2-227.7-11.2L-227.7-11.2z"/>
		</g>
		<g id="Group_33823" transform="translate(9.36 30.79)">
			<path id="Path_59937" class="st0" d="M-190.5-13.4c-0.1,0-0.1,0-0.1,0l-14.4-4.4c-0.3-0.1-0.4-0.4-0.3-0.6
				c0.1-0.3,0.4-0.4,0.6-0.3l14.4,4.4c0.3,0.1,0.4,0.4,0.3,0.6C-190.1-13.6-190.3-13.4-190.5-13.4L-190.5-13.4z"/>
		</g>
		<g id="Group_33824" transform="translate(9.359 65.901)">
			<path id="Path_59938" class="st0" d="M-204.8-40.3l4.4,1.3v1l-4.7-1.4c-0.3-0.1-0.4-0.4-0.3-0.6
				C-205.3-40.2-205.1-40.4-204.8-40.3L-204.8-40.3L-204.8-40.3z"/>
			<path id="Path_59939" class="st0" d="M-190-35.2c-0.1,0.2-0.3,0.3-0.5,0.3c-0.1,0-0.1,0-0.1,0l-4.4-1.3v-1l4.7,1.4
				C-190.1-35.8-189.9-35.5-190-35.2C-190-35.3-190-35.3-190-35.2z"/>
		</g>
		<g id="Group_33825" transform="translate(55.922 42.559)">
			<path id="Path_59940" class="st0" d="M-233.4-21.7c-0.3,0-0.5-0.2-0.5-0.5c0-0.2,0.1-0.4,0.3-0.5l10.9-3.4
				c0.3-0.1,0.5,0.1,0.6,0.3c0.1,0.3-0.1,0.5-0.3,0.6c0,0,0,0,0,0l-10.9,3.4C-233.3-21.7-233.4-21.7-233.4-21.7z"/>
		</g>
		<g id="Group_33826" transform="translate(0 36.958)">
			<path id="Path_59941" class="st0" d="M-199.2-20.5c-0.3,0-0.5-0.2-0.5-0.5c0-0.2,0.1-0.4,0.3-0.5l3.6-1.1
				c0.3-0.1,0.5,0.1,0.6,0.3c0.1,0.3-0.1,0.5-0.3,0.6l-3.6,1.1C-199.1-20.5-199.2-20.5-199.2-20.5z"/>
		</g>
		<g id="Group_33827" transform="translate(46.563 42.193)">
			<path id="Path_59942" class="st0" d="M-224.1-21.3c-0.1,0-0.2-0.1-0.3-0.1L-228-25c-0.2-0.2-0.2-0.5,0-0.7c0.2-0.2,0.5-0.2,0.7,0
				l3.6,3.5c0.2,0.2,0.2,0.5,0,0.7C-223.8-21.4-223.9-21.3-224.1-21.3L-224.1-21.3z"/>
		</g>
		<g id="Group_33828" transform="translate(0 30.791)">
			<path id="Path_59943" class="st0" d="M-199.2-14.3c-0.3,0-0.5-0.2-0.5-0.5c0-0.1,0.1-0.3,0.2-0.4l3.6-3.5c0.2-0.2,0.5-0.2,0.7,0
				c0.2,0.2,0.2,0.5,0,0.7l-3.6,3.5C-199-14.4-199.1-14.3-199.2-14.3z"/>
		</g>
		<g id="Group_33829" transform="translate(74.742 33.506)">
			<path id="Path_59944" class="st0" d="M-241.3-16c-0.1,0-0.2-0.1-0.3-0.1l-3.6-3.5c-0.2-0.2-0.2-0.5,0-0.7c0.2-0.2,0.5-0.2,0.7,0
				l3.6,3.5c0.2,0.2,0.2,0.5,0,0.7C-241-16.1-241.2-16-241.3-16L-241.3-16z"/>
		</g>
		<g id="Group_33830" transform="translate(46.562 33.506)">
			<path id="Path_59945" class="st0" d="M-227.7-16.1c-0.3,0-0.5-0.2-0.5-0.5c0-0.2,0.1-0.4,0.3-0.5l10.9-3.4
				c0.3-0.1,0.5,0.1,0.6,0.3c0.1,0.3-0.1,0.5-0.3,0.6c0,0,0,0,0,0l-10.9,3.4C-227.6-16.1-227.6-16.1-227.7-16.1z"/>
		</g>
		<g id="Group_33831" transform="translate(46.562 45.444)">
			<path id="Path_59946" class="st0" d="M-227.7-14.4c-0.3,0-0.5-0.2-0.5-0.5c0-0.2,0.1-0.4,0.3-0.5l10.6-3.3v-8.6
				c0-0.3,0.2-0.5,0.5-0.5s0.5,0.2,0.5,0.5v9c0,0.2-0.1,0.4-0.3,0.5l-10.9,3.4C-227.6-14.5-227.6-14.4-227.7-14.4z"/>
		</g>
		<path id="Path_59947" class="st1" d="M-179.5,25.2v-2.6l6-1.8v2.6L-179.5,25.2z"/>
		<path id="Path_59948" class="st0" d="M-172.7,20.4l-6.6,2c-0.2,0.1-0.3,0.3-0.3,0.5v3.8c0,0.2,0.1,0.3,0.3,0.3c0,0,0.1,0,0.1,0
			l0.6-0.2l6.6-2c0.2-0.1,0.3-0.3,0.3-0.5v-3.8c0-0.2-0.1-0.3-0.3-0.3c0,0-0.1,0-0.1,0L-172.7,20.4z M-172.7,24l-6,1.8v-2.6l6-1.8
			V24z"/>
	</g>
	<g id="Group_33836" transform="translate(89.314 17.678)">
		<g id="Group_33833" transform="translate(1.789)">
			<path id="Path_59949" class="st0" d="M-252.1-7.5c-0.6-0.1-1.1,0-1.4,0.4c-0.3,0.4-0.4,0.8-0.4,1.3V-3h-1.5v-5.8h1.4v0.6
				c0.4-0.6,1.2-0.8,1.9-0.7V-7.5z"/>
			<path id="Path_59950" class="st0" d="M-250.7-5.3c0.2,0.7,0.8,1.1,1.4,1.1c0.5,0,1-0.2,1.2-0.7h1.6c-0.4,1.2-1.5,2.1-2.8,2
				c-1.7,0-3-1.4-3-3.1c0-1.6,1.3-2.9,3-3c1.7,0,3.1,1.3,2.9,3.6C-246.3-5.3-250.7-5.3-250.7-5.3z M-247.8-6.6
				c-0.2-0.7-0.8-1.1-1.4-1.1c-0.7,0-1.2,0.5-1.4,1.1H-247.8z"/>
			<path id="Path_59951" class="st0" d="M-243-3c-1.7,0.2-2.6-0.8-2.6-2.4v-2h-0.7v-1.3h0.7v-1.5h1.5v1.5h1v1.3h-1v2
				c0,0.8,0.4,1.1,1.1,1.1L-243-3z"/>
			<path id="Path_59952" class="st0" d="M-241.1-9.4h-1.5v-1.4h1.5V-9.4z M-241.1-3h-1.5v-5.8h1.5V-3z"/>
			<path id="Path_59953" class="st0" d="M-236.9-7.5c-0.6-0.1-1.1,0-1.4,0.4c-0.3,0.4-0.4,0.8-0.4,1.3V-3h-1.5v-5.8h1.4v0.6
				c0.4-0.6,1.2-0.8,1.9-0.7V-7.5z"/>
			<path id="Path_59954" class="st0" d="M-230.9-3h-1.4v-0.6c-0.5,0.5-1.1,0.7-1.8,0.7c-1.5,0-2.7-1.3-2.7-3c0-1.7,1.2-3,2.7-3
				c0.7,0,1.3,0.3,1.8,0.7v-0.6h1.4V-3z M-233.9-7.6c-0.9,0-1.5,0.8-1.5,1.6c0,0,0,0,0,0c-0.1,0.8,0.5,1.5,1.3,1.6
				c0.8,0.1,1.5-0.5,1.6-1.3c0-0.1,0-0.2,0-0.3C-232.3-6.8-233-7.5-233.9-7.6L-233.9-7.6z"/>
		</g>
		<g id="Group_33834" transform="translate(19.356 21.443)">
			<path id="Path_59955" class="st0" d="M-265.1-21.3c0.1,0.5,0.6,0.8,1.1,0.8c0.4,0,0.7-0.2,0.9-0.5h1.2c-0.3,0.9-1.1,1.5-2,1.4
				c-1.2,0-2.2-1.1-2.1-2.3c0-1.2,1-2.1,2.1-2.1c1.2,0,2.3,1,2.1,2.6H-265.1z M-263-22.2c-0.1-0.5-0.6-0.8-1.1-0.8
				c-0.5,0-0.9,0.3-1,0.8H-263z"/>
			<path id="Path_59956" class="st0" d="M-257.7-19.6h-1.1v-2.5c0.1-0.4-0.2-0.8-0.7-0.8c0,0-0.1,0-0.1,0c-0.4,0-0.8,0.3-0.8,0.8
				c0,0,0,0,0,0.1v2.5h-1.1v-4.2h1v0.4c0.3-0.3,0.7-0.5,1.1-0.5c1,0,1.7,0.7,1.7,1.9L-257.7-19.6z"/>
		</g>
		<g id="Group_33835" transform="translate(0 27.933)">
			<path id="Path_59957" class="st0" d="M-251-19.6c-1.7,0.2-2.6-0.8-2.6-2.4v-2h-0.7v-1.3h0.7v-1.5h1.5v1.5h1v1.3h-1v2
				c0,0.8,0.4,1.1,1.1,1.1V-19.6z"/>
			<path id="Path_59958" class="st0" d="M-249.1-26h-1.5v-1.4h1.5V-26z M-249.1-19.6h-1.5v-5.8h1.5V-19.6z"/>
			<path id="Path_59959" class="st0" d="M-247-21.9c0.2,0.7,0.8,1.1,1.4,1.1c0.5,0,1-0.2,1.2-0.7h1.6c-0.4,1.2-1.5,2.1-2.8,2
				c-1.7,0-3-1.4-3-3.1c0-1.6,1.3-2.9,3-3c1.7,0,3.1,1.3,2.9,3.6C-242.7-21.9-247-21.9-247-21.9z M-244.1-23.1
				c-0.2-0.7-0.8-1.1-1.4-1.1c-0.7,0-1.3,0.5-1.4,1.1H-244.1z"/>
			<path id="Path_59960" class="st0" d="M-236.9-19.6h-1.5v-3.4c0.1-0.6-0.3-1.1-0.9-1.1c-0.1,0-0.1,0-0.2,0c-0.6,0-1.1,0.5-1.1,1.1
				c0,0,0,0.1,0,0.1v3.4h-1.5v-5.8h1.4v0.6c0.4-0.5,0.9-0.7,1.5-0.7c1.4,0,2.3,1,2.3,2.5L-236.9-19.6z"/>
			<path id="Path_59961" class="st0" d="M-230.5-19.6h-1.4v-0.6c-0.5,0.5-1.1,0.7-1.8,0.7c-1.5,0-2.7-1.3-2.7-3c0-1.7,1.2-3,2.7-3
				c0.6,0,1.2,0.2,1.7,0.7v-3.1h1.5V-19.6z M-233.5-24.1c-0.9,0-1.5,0.8-1.5,1.6c0,0,0,0,0,0c-0.1,0.8,0.5,1.5,1.3,1.6
				c0.8,0.1,1.5-0.5,1.6-1.3c0-0.1,0-0.2,0-0.3C-231.9-23.3-232.6-24-233.5-24.1L-233.5-24.1z"/>
			<path id="Path_59962" class="st0" d="M-224-19.6h-1.4v-0.6c-0.5,0.5-1.1,0.7-1.8,0.7c-1.5,0-2.7-1.3-2.7-3c0-1.7,1.2-3,2.7-3
				c0.7,0,1.3,0.3,1.8,0.7v-0.6h1.4V-19.6z M-226.9-24.1c-0.9,0-1.5,0.8-1.5,1.6c0,0,0,0,0,0c-0.1,0.8,0.5,1.5,1.3,1.6
				c0.8,0.1,1.5-0.5,1.6-1.3c0-0.1,0-0.2,0-0.3C-225.4-23.3-226.1-24-226.9-24.1L-226.9-24.1z"/>
		</g>
	</g>
</g>
</svg>
