<?xml version="1.0" encoding="utf-8"?>
<!-- Generator: Adobe Illustrator 25.4.1, SVG Export Plug-In . SVG Version: 6.00 Build 0)  -->
<svg version="1.1" id="Layer_1" xmlns="http://www.w3.org/2000/svg" xmlns:xlink="http://www.w3.org/1999/xlink" x="0px" y="0px"
	 viewBox="0 0 128 23" style="enable-background:new 0 0 128 23;" xml:space="preserve">
<style type="text/css">
	.st0{fill:#101E8E;}
	.st1{fill:#94D500;}
</style>
<g id="Group_33983" transform="translate(473.483 -1443.809)">
	<g id="Group_33981" transform="translate(-378.759 1453.783)">
		<path id="Path_60074" class="st0" d="M4.84,10.1c-2.45,0-4.44-1.99-4.44-4.44c0-2.45,1.99-4.44,4.44-4.44
			c1.92-0.09,3.63,1.19,4.08,3.06H6.6C6.25,3.63,5.58,3.22,4.84,3.21C3.56,3.31,2.59,4.41,2.67,5.7C2.6,6.97,3.57,8.05,4.84,8.13
			c0.75,0,1.43-0.42,1.78-1.09h2.32C8.49,8.92,6.77,10.21,4.84,10.1z"/>
		<path id="Path_60075" class="st0" d="M18.23,5.68c-0.1,2.36-2.09,4.19-4.45,4.09c-2.36-0.1-4.19-2.09-4.09-4.45
			c0.1-2.29,1.98-4.09,4.27-4.09c2.38,0.01,4.29,1.95,4.28,4.33C18.23,5.59,18.23,5.63,18.23,5.68z M16.04,5.69
			c0.2-1.15-0.57-2.25-1.72-2.45c-1.15-0.2-2.25,0.57-2.45,1.72c-0.04,0.24-0.04,0.49,0,0.73c-0.17,1.15,0.63,2.23,1.78,2.4
			c1.15,0.17,2.23-0.62,2.4-1.78C16.07,6.11,16.07,5.9,16.04,5.69z"/>
		<path id="Path_60076" class="st0" d="M32.3,9.91h-2.17V4.95c0.09-0.83-0.51-1.58-1.34-1.67c-0.08-0.01-0.16-0.01-0.23-0.01
			c-0.89-0.02-1.62,0.68-1.65,1.57c0,0.04,0,0.07,0,0.11v4.95h-2.19V4.95c0.1-0.83-0.5-1.57-1.32-1.67
			c-0.08-0.01-0.17-0.01-0.26-0.01c-0.89-0.01-1.61,0.69-1.63,1.58c0,0.03,0,0.07,0,0.1v4.95h-2.19V1.44h2.09v0.82
			c0.53-0.67,1.34-1.05,2.19-1.04c0.99-0.02,1.92,0.42,2.53,1.2c0.63-0.78,1.58-1.22,2.59-1.2c1.88-0.11,3.49,1.33,3.6,3.21
			c0.01,0.17,0.01,0.35-0.01,0.52L32.3,9.91z"/>
	</g>
	<g id="Group_33982" transform="translate(-452.066 1449.996)">
		<path id="Path_60077" class="st0" d="M14.33,8.76h3.15V6.2h-3.15V4.09h4.41l-0.53-2.56H11.3v12.13h7.07l0.75-2.56h-4.79
			L14.33,8.76z"/>
		<path id="Path_60078" class="st0" d="M30.55,1.24l-3.97,7.43l-3.85-7.43H22.7l-3.35,12.28l3.1,0.42l1.05-5.82h0.04l2.92,5.82h0.04
			l3.21-5.84h0.03l1.05,5.84l3.04-0.42L30.58,1.24H30.55z"/>
		<path id="Path_60079" class="st0" d="M39.11,9.1l1.62-2.97l1.62,2.97H39.11z M40.73,1.24l-6.52,12.09l2.94,0.61l1.23-2.6h4.64
			l1.25,2.6l3.08-0.61L40.77,1.24H40.73z"/>
		<path id="Path_60080" class="st0" d="M53.22,11.18c-1.98-0.05-3.55-1.69-3.51-3.67C49.76,5.59,51.3,4.05,53.22,4
			c0.67,0.03,1.31,0.25,1.87,0.63l-0.71-3.22c-0.45-0.12-0.92-0.17-1.38-0.17c-3.4-0.09-6.23,2.6-6.32,6.01c0,0.13,0,0.25,0,0.38
			c-0.16,3.33,2.4,6.15,5.73,6.32c0.2,0.01,0.41,0.01,0.61,0c0.73-0.04,1.45-0.19,2.13-0.44c0.18-0.08,0.36-0.19,0.52-0.31
			l0.12-3.11c0,0-0.12,0.08-0.27,0.19C54.86,10.81,54.06,11.12,53.22,11.18z"/>
		<path id="Path_60081" class="st0" d="M7.43,11.18C5.56,11.26,3.98,9.81,3.9,7.93c-0.01-0.12,0-0.25,0.01-0.37
			C3.82,5.69,5.26,4.09,7.14,4C7.24,4,7.33,4,7.43,4C8.1,4.03,8.74,4.25,9.3,4.63L8.58,1.41C8.13,1.3,7.67,1.24,7.2,1.24
			c-3.4-0.09-6.23,2.6-6.32,6c0,0.13,0,0.25,0,0.38c-0.16,3.33,2.41,6.16,5.74,6.32c0.2,0.01,0.4,0.01,0.6,0
			c0.73-0.04,1.45-0.19,2.14-0.44c0.18-0.08,0.36-0.19,0.52-0.31l0.12-3.11c0,0-0.12,0.08-0.27,0.19
			C9.07,10.8,8.27,11.12,7.43,11.18z"/>
		<path id="Path_60082" class="st0" d="M63.23,1.24c-3.51,0.09-6.28,3.01-6.19,6.52c0.09,3.51,3.01,6.28,6.52,6.19
			c3.44-0.09,6.19-2.91,6.19-6.35C69.7,4.04,66.78,1.2,63.23,1.24z M63.23,11.19c-1.98,0.05-3.63-1.51-3.69-3.49
			c-0.05-1.98,1.51-3.63,3.49-3.69c1.98-0.05,3.63,1.51,3.69,3.49c0,0.03,0,0.07,0,0.1C66.7,9.53,65.17,11.11,63.23,11.19
			L63.23,11.19z"/>
	</g>
	<path id="Path_60083" class="st1" d="M-463.28,1457.81c0.03,0.8,0.67,1.45,1.47,1.49c1.32,0.14,2.5-0.82,2.63-2.14
		c0.02-0.18,0.02-0.36,0-0.53c0-1.57-1.65-3.06-3.61-3.06c-2.37-0.11-4.38,1.71-4.49,4.08c-0.01,0.12-0.01,0.24,0,0.36
		c0,3.03,2.61,5.66,7.87,5.66h3.35v-10.2l-7.34-5.9l-7.13,5.69v12.4h-1.94v-13.47l9.07-7.09l9.29,7.41v13.15h-6.59
		c-4.87,0-8.79-3.04-8.79-7.64c-0.05-3.54,2.78-6.44,6.32-6.49c0.13,0,0.26,0,0.39,0.01c2.91-0.15,5.39,2.08,5.54,4.99
		c0,0.04,0,0.08,0,0.11c0.21,2.31-1.49,4.36-3.8,4.57c-0.25,0.02-0.51,0.02-0.76,0c-1.93,0.02-3.51-1.53-3.53-3.46
		c0-0.01,0-0.01,0-0.02c-0.02-1.44,1.11-2.62,2.55-2.68c1.19,0,2,0.7,2,1.52c0.04,0.54-0.37,1.01-0.91,1.04c-0.04,0-0.08,0-0.13,0
		c-0.43-0.03-0.82-0.27-1.04-0.65C-463.14,1457.15-463.3,1457.47-463.28,1457.81z"/>
	<circle id="Ellipse_586" class="st1" cx="-380.47" cy="1462.35" r="1.59"/>
</g>
</svg>
