<?xml version="1.0" encoding="utf-8"?>
<!-- Generator: Adobe Illustrator 25.4.1, SVG Export Plug-In . SVG Version: 6.00 Build 0)  -->
<svg version="1.1" id="Layer_1" xmlns="http://www.w3.org/2000/svg" xmlns:xlink="http://www.w3.org/1999/xlink" x="0px" y="0px"
	 viewBox="0 0 80 31" style="enable-background:new 0 0 80 31;" xml:space="preserve">
<style type="text/css">
	.st0{fill:#101E8C;}
	.st1{fill:#92D300;}
	.st2{fill:#FFFFFF;}
</style>
<g>
	<g id="Group_33838" transform="translate(69.972 28.218)">
		<path id="Path_59963" class="st0" d="M-31.5-8.7h-1.7v-0.7c-0.5,0.6-1.3,0.9-2.1,0.9c-1.8,0-3.2-1.5-3.2-3.6c0-2,1.5-3.6,3.2-3.6
			c0.8,0,1.6,0.3,2.1,0.9v-0.7h1.7C-31.5-15.5-31.5-8.7-31.5-8.7z M-35-14c-1,0.1-1.8,0.9-1.8,1.9c0,0,0,0,0,0
			c-0.1,1,0.6,1.8,1.6,1.9c1,0.1,1.8-0.6,1.9-1.6c0-0.1,0-0.2,0-0.4C-33.2-13.1-34-14-35-14L-35-14z"/>
		<path id="Path_59964" class="st0" d="M-24.8-8.7h-1.7v-0.6c-0.4,0.5-1.1,0.8-1.7,0.8c-1.6,0-2.7-1.2-2.7-3v-4h1.8v4
			c-0.1,0.7,0.4,1.3,1.1,1.3c0.1,0,0.1,0,0.2,0c0.7,0,1.3-0.5,1.3-1.3c0,0,0-0.1,0-0.1v-4h1.8L-24.8-8.7z"/>
		<path id="Path_59965" class="st0" d="M-20.3-8.7c-2,0.2-3.1-1-3.1-2.9V-14h-0.8v-1.6h0.8v-1.7h1.8v1.7h1.2v1.6h-1.2v2.4
			c0,1,0.4,1.3,1.3,1.3L-20.3-8.7z"/>
		<path id="Path_59966" class="st0" d="M-13.2-12.1c-0.1,1.9-1.7,3.4-3.6,3.3c-1.9-0.1-3.4-1.7-3.3-3.6c0.1-1.8,1.6-3.3,3.4-3.3
			c1.9,0,3.5,1.6,3.5,3.5C-13.2-12.2-13.2-12.1-13.2-12.1z M-14.9-12.1c0-1.2-0.8-2-1.7-2c-0.9,0-1.7,0.8-1.7,2c0,1.2,0.8,2,1.7,2
			C-15.7-10.1-14.9-10.9-14.9-12.1L-14.9-12.1z"/>
		<path id="Path_59967" class="st0" d="M-35.3-0.6c-1.7,0-3-0.9-3.2-2.4h1.8c0.2,0.6,0.9,0.8,1.5,0.8c0.7,0,1.2-0.2,1.2-0.6
			c0-0.4-0.2-0.5-1.4-0.7c-1.2-0.2-2.9-0.5-2.9-2c0-1.1,0.9-2.2,2.9-2.2c1.6,0,2.7,0.9,3,2.1h-1.8c-0.1-0.3-0.5-0.6-1.1-0.6
			c-0.8,0-1.1,0.3-1.1,0.5c0,0.4,0.5,0.5,1.4,0.6c1.7,0.3,2.9,0.7,2.9,2.1C-32.3-1.5-33.5-0.6-35.3-0.6z"/>
		<path id="Path_59968" class="st0" d="M-30.2-3.5c0.2,0.8,0.9,1.4,1.7,1.4c0.6,0,1.2-0.3,1.4-0.8h1.9c-0.4,1.4-1.6,2.3-3.3,2.3
			c-2,0-3.5-1.7-3.5-3.7c0-1.9,1.6-3.5,3.5-3.5c2,0,3.7,1.6,3.4,4.3L-30.2-3.5z M-26.8-4.9c-0.2-0.8-0.9-1.3-1.7-1.3
			c-0.8,0-1.5,0.5-1.7,1.3C-30.2-4.9-26.8-4.9-26.8-4.9z"/>
		<path id="Path_59969" class="st0" d="M-20.5-6c-0.7-0.1-1.3,0-1.7,0.4c-0.3,0.4-0.5,1-0.4,1.5v3.4h-1.8v-6.8h1.7v0.7
			c0.5-0.7,1.4-1,2.2-0.8V-6z"/>
		<path id="Path_59970" class="st0" d="M-15.9-0.7h-1.9l-2.6-6.8h1.8l1.7,5.1l1.7-5.1h1.8L-15.9-0.7z"/>
		<path id="Path_59971" class="st0" d="M-11.2-8.3H-13v-1.6h1.8C-11.2-9.9-11.2-8.3-11.2-8.3z M-11.2-0.7H-13v-6.8h1.8
			C-11.2-7.6-11.2-0.7-11.2-0.7z"/>
		<path id="Path_59972" class="st0" d="M-7-0.6c-2,0-3.6-1.7-3.5-3.6c0-1.9,1.6-3.5,3.5-3.5c1.5-0.1,2.9,1,3.3,2.5h-1.9
			C-5.9-5.8-6.4-6.1-7-6.1c-1,0-1.8,0.9-1.8,2c-0.1,1,0.7,1.9,1.8,2c0.6,0,1.2-0.3,1.4-0.9h1.9C-4.1-1.5-5.4-0.6-7-0.6z"/>
		<path id="Path_59973" class="st0" d="M-1.6-8.3h-1.8v-1.6h1.8V-8.3z M-1.6-0.7h-1.8v-6.8h1.8V-0.7z"/>
		<path id="Path_59974" class="st0" d="M5.7-4.1C5.7-2.2,4-0.8,2.2-0.8C0.2-0.9-1.2-2.5-1.1-4.4c0.1-1.8,1.6-3.3,3.4-3.3
			c1.9,0,3.5,1.6,3.5,3.5C5.7-4.2,5.7-4.2,5.7-4.1z M4-4.1c0-1.2-0.8-2-1.7-2s-1.7,0.8-1.7,2c0,1.2,0.8,2,1.7,2S4-3,4-4.1L4-4.1z"/>
	</g>
	<g id="Group_33869" transform="translate(0 0)">
		<g id="Group_33839" transform="translate(4.875 35.363)">
			<path id="Path_59975" class="st0" d="M3.2-21.6l-1.1,0.3c-0.6,0.1-0.9,0.7-0.8,1.3c0,0,0,0.1,0,0.1l0.5,1.4L3.2-21.6z"/>
		</g>
		<g id="Group_33840" transform="translate(53.353 35.363)">
			<path id="Path_59976" class="st0" d="M-28.3-21.6l1.1,0.3c0.6,0.1,0.9,0.7,0.8,1.3c0,0,0,0.1,0,0.1l-0.5,1.4L-28.3-21.6z"/>
		</g>
		<g id="Group_33841" transform="translate(7.152 1.255)">
			<path id="Path_59977" class="st1" d="M-0.1,0.8l0.4,1.5c2.9-0.9,6-1.4,9.1-1.4c3.1,0.1,6.2,0.5,9.1,1.4l0.4-1.5
				C12.7-1.3,6.1-1.3-0.1,0.8L-0.1,0.8z"/>
		</g>
		<g id="Group_33842" transform="translate(12.273 23.728)">
			<path id="Path_59978" class="st1" d="M-3.2-13.7l0.3,1.4c2.4-0.5,4.7-0.7,7.1-0.7c2.4,0,4.9,0.3,7.2,0.7l0.4-1.4
				c-2.5-0.5-5-0.8-7.6-0.8C1.8-14.5-0.8-14.2-3.2-13.7z"/>
		</g>
		<g id="Group_33847" transform="translate(1.249 39.388)">
			<g id="Group_33844">
				<g id="Group_33843">
					<path id="Path_59979" class="st1" d="M6.4-17.7l-2.6,1.4l-0.3-2.9l3.2-4.9l-0.8,4L6.4-17.7z"/>
				</g>
			</g>
			<g id="Group_33846" transform="translate(52.51)">
				<g id="Group_33845">
					<path id="Path_59980" class="st1" d="M-25.4-19.2l-0.3,2.9l-2.6-1.4l0.5-2.4l-0.8-4L-25.4-19.2z"/>
				</g>
			</g>
		</g>
		<g id="Group_33848" transform="translate(0 28.218)">
			<path id="Path_59981" class="st0" d="M24.5,1h-16C7,1,5.6-0.1,5.3-1.6c0,0,0,0,0,0l-1-6.3c0-0.1,0-0.2,0.1-0.3L9-17
				c0.1-0.2,0.4-0.3,0.7-0.2s0.3,0.4,0.2,0.7L5.3-7.9l1,6.1c0.2,1.1,1.2,1.9,2.3,1.9h16c1.1,0,2.1-0.8,2.3-1.9l1-6.1l-4.5-8.6
				c-0.1-0.2,0-0.5,0.2-0.7c0.2-0.1,0.5,0,0.7,0.2l0,0l4.6,8.7c0.1,0.1,0.1,0.2,0.1,0.3l-1,6.3c0,0,0,0,0,0C27.5-0.1,26.1,1,24.5,1z
				"/>
		</g>
		<g id="Group_33849" transform="translate(6.006)">
			<path id="Path_59982" class="st0" d="M3.4,11.9c-0.2,0-0.4-0.2-0.5-0.4L1.1,3.9L0.6,2.2C0.6,1.9,0.7,1.7,0.9,1.6
				c2.5-1,6-1.6,9.7-1.6c3.7,0,7.1,0.6,9.7,1.6c0.2,0.1,0.4,0.3,0.3,0.6l-0.4,1.7l-1.9,7.7c-0.1,0.3-0.3,0.4-0.6,0.4
				c-0.3-0.1-0.4-0.3-0.4-0.6l0,0l1.9-7.7l0.3-1.3C17.1,1.5,13.9,1,10.6,1C7.2,1,4,1.5,1.7,2.3L2,3.6v0l1.9,7.7
				c0.1,0.3-0.1,0.5-0.4,0.6C3.5,11.9,3.4,11.9,3.4,11.9z"/>
		</g>
		<g id="Group_33850" transform="translate(7.19 4.354)">
			<path id="Path_59983" class="st0" d="M18.5-0.3c-0.1,0-0.1,0-0.2,0c-2.4-0.9-5.6-1.4-8.9-1.4C6-1.7,2.8-1.2,0.4-0.3
				C0.2-0.2,0-0.4-0.1-0.6s-0.1-0.5,0.1-0.6c2.5-0.9,5.8-1.4,9.3-1.4c3.5,0,6.8,0.5,9.3,1.4c0.3,0.1,0.4,0.4,0.3,0.6
				C18.9-0.4,18.7-0.3,18.5-0.3L18.5-0.3z"/>
		</g>
		<g id="Group_33851" transform="translate(11.023 22.48)">
			<path id="Path_59984" class="st0" d="M13.1-12c0,0-0.1,0-0.1,0C8.1-13,3-13.1-1.9-12c-0.3,0.1-0.5-0.1-0.6-0.3
				c-0.1-0.3,0.1-0.5,0.3-0.6c0,0,0,0,0,0c5-1.1,10.3-1.1,15.3,0c0.3,0.1,0.4,0.3,0.4,0.6C13.5-12.1,13.3-12,13.1-12L13.1-12z"/>
		</g>
		<g id="Group_33852" transform="translate(11.9 26.35)">
			<path id="Path_59985" class="st0" d="M11.9-14.4c0,0-0.1,0-0.1,0c-2.3-0.5-4.7-0.7-7.1-0.7c-2.4,0-4.7,0.2-7.1,0.7
				c-0.3,0.1-0.5-0.1-0.6-0.4c-0.1-0.3,0.1-0.5,0.4-0.6c0,0,0,0,0,0c2.4-0.5,4.8-0.8,7.3-0.7c2.5,0,4.9,0.2,7.3,0.7
				c0.3,0.1,0.4,0.3,0.4,0.6C12.3-14.6,12.1-14.4,11.9-14.4L11.9-14.4z"/>
		</g>
		<g id="Group_33857" transform="translate(3.025 63.981)">
			<g id="Group_33854" transform="translate(43.348)">
				<g id="Group_33853">
					<path id="Path_59986" class="st0" d="M-18.7-39.1l-0.3,5.3c0,0.5-0.4,0.9-0.9,0.9h-3.3c-0.5,0-0.9-0.4-0.9-0.9l0,0v-1.3h2.3
						c1.3,0,2.5-0.9,2.8-2.3L-18.7-39.1z"/>
				</g>
			</g>
			<g id="Group_33856">
				<g id="Group_33855">
					<path id="Path_59987" class="st0" d="M2.4-39.1l0.3,5.3c0,0.5,0.4,0.9,0.9,0.9h3.3c0.5,0,0.9-0.4,0.9-0.9v-1.3H5.5
						c-1.3,0-2.5-0.9-2.8-2.3L2.4-39.1z"/>
				</g>
			</g>
		</g>
		<g id="Group_33864" transform="translate(10.999 19.033)">
			<g id="Group_33858" transform="translate(14.113)">
				<path id="Rectangle_3917" class="st0" d="M-8.4-11.6L-8.4-11.6c1.5,0,2.7,1.2,2.7,2.7v7.3C-5.7-0.2-6.9,1-8.4,1l0,0
					c-1.5,0-2.7-1.2-2.7-2.7V-9C-11.1-10.4-9.9-11.6-8.4-11.6z"/>
			</g>
			<g id="Group_33859" transform="translate(16.331 2.414)">
				<path id="Rectangle_3918" class="st2" d="M-10.6-13.1L-10.6-13.1c1,0,1.8,0.8,1.8,1.8v6.9c0,1-0.8,1.8-1.8,1.8l0,0
					c-1,0-1.8-0.8-1.8-1.8v-6.9C-12.4-12.3-11.6-13.1-10.6-13.1z"/>
			</g>
			<g id="Group_33860" transform="translate(1.197 12.953)">
				<path id="Path_59988" class="st1" d="M-3.2-7.1L11.3-7l-1.2-12.5H-1.1L-3.2-7.1z"/>
			</g>
			<g id="Group_33861" transform="translate(0 11.704)">
				<path id="Path_59989" class="st0" d="M12.5-5.3c-0.3,0-0.5-0.2-0.5-0.4l-1.1-12.1H0.5l-2,11.9c0,0.3-0.3,0.5-0.6,0.4
					c-0.3,0-0.5-0.3-0.4-0.6c0,0,0,0,0,0l2-12.3c0-0.2,0.2-0.4,0.5-0.4h11.3c0.3,0,0.5,0.2,0.5,0.4L13-5.9C13-5.6,12.8-5.4,12.5-5.3
					C12.5-5.3,12.5-5.3,12.5-5.3z"/>
			</g>
			<g id="Group_33862" transform="translate(5.255 11.704)">
				<path id="Path_59990" class="st0" d="M-4.1-5c-0.3,0-0.5-0.2-0.5-0.4l-1.1-12.8c0-0.3,0.2-0.5,0.4-0.5s0.5,0.2,0.5,0.4
					c0,0,0,0,0,0l1.1,12.8C-3.6-5.3-3.8-5-4.1-5C-4.1-5-4.1-5-4.1-5z"/>
			</g>
			<g id="Group_33863" transform="translate(13.93 17.866)">
				<path id="Path_59991" class="st0" d="M-7.7-18.4c0,0.3,0.3,0.5,0.5,0.5c0.4,0.1,0.8-0.2,0.8-0.6c0-0.1,0-0.2,0-0.3
					c-0.1-0.6-0.7-1.1-1.3-1c-0.7-0.1-1.4,0.5-1.4,1.3c0,0.1,0,0.2,0,0.2c0.1,1,1,2,2.9,2H-5l-0.3-3.5L-8-21.8l-2.3,1.9l0.2,4.2
					h-0.7l-0.2-4.6l2.9-2.3l3.3,2.4l0.4,4.5h-2.3c-1.7,0-3.1-1.1-3.2-2.6c-0.1-1.3,0.9-2.2,2.2-2.2c1,0,1.9,0.7,2,1.7
					c0.1,1-0.5,1.6-1.5,1.6c-0.7,0-1.2-0.5-1.3-1.2c0-0.5,0.3-0.9,0.8-0.9c0,0,0,0,0.1,0c0.3,0,0.7,0.2,0.7,0.5
					c0,0.2-0.1,0.3-0.3,0.4c0,0-0.1,0-0.1,0c-0.2,0-0.3-0.1-0.4-0.2C-7.7-18.6-7.7-18.5-7.7-18.4z"/>
			</g>
		</g>
		<g id="Group_33865" transform="translate(6.184 28.218)">
			<path id="Path_59992" class="st0" d="M16.3-2.5H4.5c-1.6,0-2.9-1.1-3.2-2.7L0.5-8.8c0-0.1,0-0.2,0-0.2l2.2-7.9
				c0.1-0.3,0.3-0.4,0.6-0.4s0.4,0.3,0.4,0.6c0,0,0,0,0,0.1L1.5-8.9l0.7,3.6c0.2,1.1,1.2,1.9,2.3,1.9h11.8c1.1,0,2.1-0.8,2.3-1.9
				l0.7-3.6l-2.2-7.7c-0.1-0.3,0.1-0.5,0.4-0.6c0.3-0.1,0.5,0.1,0.6,0.3l2.2,7.8c0,0.1,0,0.2,0,0.2l-0.7,3.7
				C19.2-3.6,17.8-2.5,16.3-2.5z"/>
		</g>
		<g id="Group_33868" transform="translate(8.916 68.161)">
			<g id="Group_33866" transform="translate(38.884)">
				<path id="Path_59993" class="st0" d="M-22.8-40.7h-1.6c-0.3,0-0.5-0.2-0.5-0.5c0-0.3,0.2-0.5,0.5-0.5l0,0h1.6
					c0.3,0,0.5,0.2,0.5,0.5C-22.3-40.9-22.6-40.7-22.8-40.7z"/>
			</g>
			<g id="Group_33867">
				<path id="Path_59994" class="st0" d="M1-40.7h-1.6c-0.3,0-0.5-0.2-0.5-0.5c0-0.3,0.2-0.5,0.5-0.5H1c0.3,0,0.5,0.2,0.5,0.5
					C1.4-40.9,1.2-40.7,1-40.7z"/>
			</g>
		</g>
	</g>
</g>
</svg>
