<svg id="Grupo_1459" data-name="Grupo 1459" xmlns="http://www.w3.org/2000/svg" width="203.056" height="32.354" viewBox="0 0 203.056 32.354">
  <g id="Grupo_1051" data-name="Grupo 1051" transform="translate(0)">
    <g id="Grupo_1049" data-name="Grupo 1049" transform="translate(0 2.369)">
      <path id="Trazado_8910" data-name="Trazado 8910" d="M8.553,25.661a.347.347,0,0,1-.086-.011.31.31,0,0,1-.083.011c-3.44,0-5.246-3.39-5.246-6.78S4.95,12.1,8.42,12.1c.016,0,.032,0,.047.006s.032-.006.049-.006c3.468,0,5.282,3.39,5.282,6.781s-1.807,6.78-5.245,6.78M3.213,8.359c0-1.918.636-2.814,1.454-2.814a.753.753,0,0,1,.8.83A3.674,3.674,0,0,1,3.213,9.223Zm5.313,2.206a6.416,6.416,0,0,0-5.313,2.88V10.821a5.211,5.211,0,0,0,3.7-4.445A2.007,2.007,0,0,0,4.7,4.2c-1.639,0-2.959,1.089-2.959,4.159V9.671a4.12,4.12,0,0,1-.8.2H.715a.672.672,0,0,0-.715.7.721.721,0,0,0,.731.721c.012,0,.036-.014.047-.014a4.946,4.946,0,0,0,.968-.072v5.2a11.967,11.967,0,0,0,1.006,7.183,6.928,6.928,0,0,0,5.821,3.572c4.326.163,6.745-4.124,6.745-8.282S13.1,10.565,8.527,10.565" transform="translate(0 -4.2)" fill="#0db7e1"/>
      <path id="Trazado_8911" data-name="Trazado 8911" d="M66.817,25.661a.342.342,0,0,1-.085-.011.319.319,0,0,1-.085.011c-3.437,0-5.246-3.39-5.246-6.78S63.216,12.1,66.686,12.1c.014,0,.03,0,.046.006s.032-.006.049-.006c3.47,0,5.283,3.39,5.283,6.781s-1.807,6.78-5.247,6.78m-5.4-17.3c0-1.918.665-2.814,1.486-2.814a.741.741,0,0,1,.787.83,3.694,3.694,0,0,1-2.273,2.847Zm5.344,2.206a6.467,6.467,0,0,0-5.344,2.88V10.821a5.253,5.253,0,0,0,3.734-4.445A2.021,2.021,0,0,0,62.925,4.2c-1.639,0-2.975,1.089-2.975,4.159V9.671a3.471,3.471,0,0,1-.744.2h-.225a.672.672,0,0,0-.716.7.721.721,0,0,0,.733.721c.011,0,.005-.014.016-.014a4.634,4.634,0,0,0,.936-.072v5.2a12,12,0,0,0,1.039,7.183,6.948,6.948,0,0,0,5.835,3.572c4.324.163,6.737-4.124,6.737-8.282s-2.227-8.316-6.8-8.316" transform="translate(-25.4 -4.2)" fill="#0db7e1"/>
      <path id="Trazado_8912" data-name="Trazado 8912" d="M38.562,16.972c3.547,0,5.3,2.784,5.3,5.912H33.04c.279-3.578,2.374-5.912,5.522-5.912m6.753,5.889c0-4.035-2.189-7.252-6.753-7.252-4.751,0-7.065,4.043-7.065,8.108,0,4.129,2.376,8.291,7.187,8.291a6.682,6.682,0,0,0,5.706-3.069c.028-.045.06-.088.091-.134.008-.016.019-.033.029-.054a.762.762,0,0,0,.063-.306.733.733,0,0,0-.719-.746.711.711,0,0,0-.572.3h0l0,0c-.014.022-.03.043-.043.065a5.084,5.084,0,0,1-4.552,2.427c-3.269,0-5.4-2.248-5.643-6.122H43.527c1.358,0,1.789-.543,1.789-1.512" transform="translate(-13.731 -9.174)" fill="#0db7e1"/>
      <path id="Trazado_8913" data-name="Trazado 8913" d="M96.881,16.972c3.547,0,5.306,2.784,5.306,5.912H91.359c.277-3.578,2.374-5.912,5.523-5.912m6.755,5.889c0-4.035-2.191-7.252-6.755-7.252-4.752,0-7.065,4.043-7.065,8.108,0,4.129,2.376,8.291,7.188,8.291a6.675,6.675,0,0,0,5.7-3.069c.03-.045.063-.088.09-.134a.281.281,0,0,0,.031-.054.762.762,0,0,0,.064-.306.733.733,0,0,0-.719-.746.71.71,0,0,0-.573.3h0l0,0a.563.563,0,0,1-.041.065A5.085,5.085,0,0,1,97,30.494c-3.272,0-5.4-2.248-5.645-6.122h10.488c1.356,0,1.789-.543,1.789-1.512" transform="translate(-39.155 -9.174)" fill="#0db7e1"/>
      <path id="Trazado_8914" data-name="Trazado 8914" d="M101.62,5.474a.887.887,0,0,0-.393.093.9.9,0,0,0-.256.179.872.872,0,0,0-.129.163L98.564,8.991a.831.831,0,0,0,.632,1.355.806.806,0,0,0,.569-.235l2.49-3.03.124-.146a.906.906,0,0,0,.113-.245.88.88,0,0,0,.049-.284.929.929,0,0,0-.921-.934" transform="translate(-42.887 -4.755)" fill="#0db7e1"/>
    </g>
    <g id="Grupo_1050" data-name="Grupo 1050" transform="translate(63.811)">
      <path id="Trazado_8915" data-name="Trazado 8915" d="M244.811,21.782a3.045,3.045,0,0,1,3.053-2.75,2.642,2.642,0,0,1,2.8,2.75Zm3.116-6.792a8.235,8.235,0,0,0-8.49,8.539c0,5.175,3.409,8.28,8.875,8.28,4.5,0,6.976-1.617,6.976-3.752a2.567,2.567,0,0,0-2.023-2.449c-.09-.026-.176-.05-.256-.069a.908.908,0,0,0-.77.27c-.038.052-.08.1-.122.16a4.434,4.434,0,0,1-3.517,1.538c-1.96,0-3.31-.842-3.7-2.524h10.063c.932,0,1.221-.679,1.253-1.618v-.387c0-4.625-3.406-7.989-8.293-7.989" transform="translate(-168.193 -6.535)" fill="#91ca6a"/>
      <path id="Trazado_8916" data-name="Trazado 8916" d="M283.61,23.532a.926.926,0,0,0-.164-.232.909.909,0,0,0-.649-.272.9.9,0,0,0-.516.162c-.047.041-.093.08-.141.117a1.921,1.921,0,0,1-1.225.408c-.932,0-1.35-.551-1.35-1.617v-5.37h1.9c1.64,0,2.477-.777,2.477-2.233v-.323c0-1.421-.772-2.135-2.412-2.135h-1.833V10.487c0-2.3-1.124-3.009-2.764-3.009h-.515c-1.767,0-2.764,1.035-2.764,3.009v1.552H273.3c-1.672,0-2.508.776-2.508,2.231v.358c0,1.357.869,2.1,2.508,2.1h.354v6.047c0,3.817,1.8,5.76,5.595,5.76,2.923,0,4.79-1.457,4.79-3.527a2.778,2.778,0,0,0-.426-1.477" transform="translate(-181.859 -3.26)" fill="#00a85d"/>
      <path id="Trazado_8917" data-name="Trazado 8917" d="M181.675,24.049c0,1.57-.53,3.358-2.939,3.426-1.812.05-3-2.01-3-3.8,0-1.728,1.219-3.8,3.064-3.8a3.394,3.394,0,0,1,2.876,1.447Zm5.969-7.575a.874.874,0,0,0-.5-.7.119.119,0,0,1-.037-.015,5.079,5.079,0,0,0-1.776-.322,3.254,3.254,0,0,0-3.252,2.106,5.9,5.9,0,0,0-4.969-2.263c-4.221,0-7.065,3.9-7.065,8.331,0,4.748,2.688,8.273,6.938,8.393,3.439.1,4.657-.975,4.657-.975,0,2.139-1.116,3.03-3.563,3.143a5.237,5.237,0,0,1-4.407-1.7.082.082,0,0,0-.017-.017.842.842,0,0,0-.6-.25.853.853,0,0,0-.414.112l-.091.057a2.853,2.853,0,0,0-1.408,2.271c0,2.265,2.377,4.371,7.377,4.371,6.25,0,9.128-2.578,9.128-8.206V16.649c0-.028.007-.058.007-.089s-.006-.057-.007-.086" transform="translate(-137.942 -6.66)" fill="#f58647"/>
      <path id="Trazado_8918" data-name="Trazado 8918" d="M123.576,0c-2.076,0-3.381,1.179-3.381,3.032,0,1.887,1.339,3.066,3.482,3.066,2.076,0,3.382-1.179,3.382-3.066S125.719,0,123.576,0" transform="translate(-116.209)" fill="#c1529e"/>
      <path id="Trazado_8919" data-name="Trazado 8919" d="M120.925,15.168h-.675c-1.654,0-2.9.783-2.9,3.157V32.413c0,1.018-.473,1.528-1.35,1.528a2.288,2.288,0,0,1-1.037-.247c-.036-.018-.072-.037-.108-.058a.955.955,0,0,0-1.182.339.021.021,0,0,1-.009.01,3.1,3.1,0,0,0-.533,1.654c0,2.241,1.688,3.326,4.59,3.326,3.915,0,6.108-2.24,6.108-6.211V18.325c0-2.444-1.147-3.157-2.9-3.157" transform="translate(-113.129 -6.612)" fill="#c1529e"/>
      <path id="Trazado_8920" data-name="Trazado 8920" d="M330.994,23.722v4.991c0,2.265,1.124,2.923,2.718,2.923h.628c1.563,0,2.656-.724,2.656-2.923V22.671c.043-2.112,1.314-2.3,2.316-2.3,1.282,0,2.033.882,2.033,2.3v6.041c0,2.265,1.124,2.923,2.751,2.923h.593c1.565,0,2.658-.724,2.658-2.923V22.847c-.286-2.97-1.43-4.948-3.068-6.065a9.643,9.643,0,0,0-5.016-1.521,8.517,8.517,0,0,0-6.244,2.69,8,8,0,0,0-2.024,5.771" transform="translate(-208.1 -6.652)" fill="#0db7e1"/>
      <path id="Trazado_8921" data-name="Trazado 8921" d="M222.619,23.687V18.7c0-2.264-1.125-2.924-2.719-2.924h-.624c-1.565,0-2.658.723-2.658,2.924v6.039c-.042,2.116-1.314,2.3-2.317,2.3-1.28,0-2.031-.88-2.031-2.3V18.7c0-2.264-1.126-2.924-2.751-2.924h-.6c-1.561,0-2.656.723-2.656,2.924v5.863c.285,2.97,1.43,4.95,3.07,6.066a9.64,9.64,0,0,0,5.012,1.525,8.532,8.532,0,0,0,6.245-2.692,7.992,7.992,0,0,0,2.024-5.772" transform="translate(-153.732 -6.877)" fill="#ffc523"/>
      <path id="Trazado_8922" data-name="Trazado 8922" d="M153.325,23.687V18.7c0-2.264-1.128-2.924-2.723-2.924h-.626c-1.562,0-2.656.723-2.656,2.924v6.039c-.043,2.116-1.314,2.3-2.315,2.3-1.284,0-2.032-.88-2.032-2.3V18.7c0-2.264-1.125-2.924-2.752-2.924h-.593c-1.564,0-2.658.723-2.658,2.924v5.863c.286,2.97,1.432,4.95,3.07,6.066a9.654,9.654,0,0,0,5.013,1.525,8.534,8.534,0,0,0,6.246-2.692,8.018,8.018,0,0,0,2.026-5.772" transform="translate(-123.522 -6.877)" fill="#f0515f"/>
      <path id="Trazado_8923" data-name="Trazado 8923" d="M304.781,26.776a3.371,3.371,0,0,1-3.417-3.631,3.423,3.423,0,1,1,6.835.033,3.413,3.413,0,0,1-3.418,3.6m.065-11.877c-5.192,0-8.642,3.312-8.642,8.246,0,5.065,3.322,8.312,8.546,8.312,5.192,0,8.611-3.247,8.611-8.279,0-4.967-3.388-8.279-8.515-8.279" transform="translate(-192.939 -6.495)" fill="#ef5382"/>
      <path id="Trazado_8924" data-name="Trazado 8924" d="M311.9,3.047c-.4-.167-.948.132-1.293.318a6.333,6.333,0,0,0-1.163.824,16.905,16.905,0,0,0-1.636,1.631,5.454,5.454,0,0,0-.923,1.428.929.929,0,0,0,.943,1.247,13.338,13.338,0,0,0,4.66-1.331c1.035-.579,1.652-1.037,1.387-2.013a3.418,3.418,0,0,0-1.975-2.1" transform="translate(-197.571 -1.307)" fill="#ef5382"/>
    </g>
  </g>
</svg>
