<svg xmlns="http://www.w3.org/2000/svg" width="144.755" height="33" viewBox="0 0 144.755 33">
  <g id="Grupo_1625" data-name="Grupo 1625" transform="translate(-641 -723)">
    <path id="Trazado_40" data-name="Trazado 40" d="M735.153,279.09h5.058v-4.12h-5.058V271.59h7.082l-.855-4.115H730.295v19.48h11.343l1.2-4.117h-7.683Z" transform="translate(-38.37 465.859)" fill="#101e8e"/>
    <path id="Trazado_41" data-name="Trazado 41" d="M886.671,262.588,880.3,274.517l-6.174-11.929h-.058l-5.373,19.718,4.973.673,1.685-9.342h.058l4.686,9.342h.058l5.147-9.369h.054l1.689,9.369,4.887-.673-5.2-19.718Z" transform="translate(-163.844 470.29)" fill="#101e8e"/>
    <path id="Trazado_42" data-name="Trazado 42" d="M1131.992,275.2l2.6-4.768,2.6,4.768Zm2.6-12.61-10.463,19.406,4.714.986,1.974-4.17h7.456l2,4.17,4.943-.986-10.575-19.406Z" transform="translate(-395.427 470.29)" fill="#101e8e"/>
    <path id="Trazado_43" data-name="Trazado 43" d="M1348.856,278.546a5.766,5.766,0,0,1,0-11.529,5.781,5.781,0,0,1,2.994,1.012l-1.148-5.168a8.579,8.579,0,0,0-2.218-.274,9.89,9.89,0,0,0-10.142,10.252c0,6.049,4.2,10.139,10.174,10.139a12.2,12.2,0,0,0,3.427-.7,4.758,4.758,0,0,0,.839-.491l.189-4.988s-.186.134-.43.3A6.731,6.731,0,0,1,1348.856,278.546Z" transform="translate(-589.631 470.29)" fill="#101e8e"/>
    <path id="Trazado_44" data-name="Trazado 44" d="M561.61,278.546a5.766,5.766,0,0,1,0-11.529,5.782,5.782,0,0,1,2.994,1.012l-1.142-5.168a8.656,8.656,0,0,0-2.224-.274,9.9,9.9,0,0,0-10.147,10.252c0,6.049,4.2,10.139,10.175,10.139a12.212,12.212,0,0,0,3.43-.7,4.761,4.761,0,0,0,.839-.491l.189-4.988s-.186.134-.427.3A6.755,6.755,0,0,1,561.61,278.546Z" transform="translate(124.097 470.29)" fill="#101e8e"/>
    <path id="Trazado_45" data-name="Trazado 45" d="M1521.443,262.588a10.2,10.2,0,1,0,10.463,10.2A10.336,10.336,0,0,0,1521.443,262.588Zm0,15.958a5.767,5.767,0,1,1,5.606-5.763A5.818,5.818,0,0,1,1521.443,278.546Z" transform="translate(-746.152 470.29)" fill="#101e8e"/>
    <path id="Trazado_46" data-name="Trazado 46" d="M199.772,177.239a2.5,2.5,0,0,0,2.361,2.4c2.7,0,4.221-1.534,4.221-4.3,0-2.521-2.643-4.912-5.8-4.912a6.892,6.892,0,0,0-7.219,7.124c0,4.869,4.193,9.085,12.638,9.085h5.375v-16.37l-11.788-9.479-11.442,9.134v19.9H185V168.2l14.564-11.376,14.912,11.894v21.107H203.9c-7.827,0-14.113-4.878-14.113-12.271,0-6.314,4.881-10.4,10.772-10.4,4.973,0,8.9,3.552,8.9,8.192,0,4.887-3.067,7.334-7.323,7.334a5.61,5.61,0,0,1-5.664-5.581,4.245,4.245,0,0,1,4.09-4.3c1.921,0,3.213,1.115,3.213,2.446a1.572,1.572,0,0,1-1.664,1.678,2.08,2.08,0,0,1-1.664-1.038A1.554,1.554,0,0,0,199.772,177.239Z" transform="translate(456 566.179)" fill="#94d500"/>
  </g>
</svg>
