<svg xmlns="http://www.w3.org/2000/svg" width="119.498" height="36.499" viewBox="0 0 119.498 36.499">
  <g id="Grupo_1961" data-name="Grupo 1961" transform="translate(-293.892 -683.206)">
    <g id="Grupo_1946" data-name="Grupo 1946">
      <g id="Grupo_1924" data-name="Grupo 1924">
        <path id="Trazado_10861" data-name="Trazado 10861" d="M322.927,707.032l-7.056,2.175-3.6-3.339V719.2l10.654-3.293Z" fill="#ff8300"/>
      </g>
      <g id="Grupo_1925" data-name="Grupo 1925">
        <path id="Trazado_10862" data-name="Trazado 10862" d="M297.971,701.344l-3.6,3.48,3.6-1.109Z" fill="#ff8300"/>
      </g>
      <g id="Grupo_1926" data-name="Grupo 1926">
        <path id="Trazado_10863" data-name="Trazado 10863" d="M297.971,715.322a.48.48,0,0,1-.48-.48v-13.5a.48.48,0,1,1,.96,0v13.5A.48.48,0,0,1,297.971,715.322Z" fill="#101e8e"/>
      </g>
      <g id="Grupo_1927" data-name="Grupo 1927">
        <path id="Trazado_10864" data-name="Trazado 10864" d="M312.272,719.705a.48.48,0,0,1-.48-.48v-13.5a.48.48,0,1,1,.96,0v13.5A.48.48,0,0,1,312.272,719.705Z" fill="#101e8e"/>
      </g>
      <g id="Grupo_1928" data-name="Grupo 1928">
        <path id="Trazado_10865" data-name="Trazado 10865" d="M312.273,706.208a.488.488,0,0,1-.141-.021l-14.3-4.383a.481.481,0,0,1,.281-.919l14.3,4.383a.481.481,0,0,1-.14.94Z" fill="#101e8e"/>
      </g>
      <g id="Grupo_1929" data-name="Grupo 1929">
        <path id="Trazado_10866" data-name="Trazado 10866" d="M323.105,702.868a.459.459,0,0,1-.141-.021l-10.506-3.22a.48.48,0,1,1,.281-.918l10.507,3.22a.48.48,0,0,1-.141.939Z" fill="#101e8e"/>
      </g>
      <g id="Grupo_1930" data-name="Grupo 1930">
        <path id="Trazado_10867" data-name="Trazado 10867" d="M312.273,719.705a.488.488,0,0,1-.141-.021l-14.3-4.383a.481.481,0,0,1,.281-.919l14.3,4.383a.481.481,0,0,1-.14.94Z" fill="#101e8e"/>
      </g>
      <g id="Grupo_1931" data-name="Grupo 1931">
        <path id="Trazado_10868" data-name="Trazado 10868" d="M297.97,701.825a.48.48,0,0,1-.141-.939l9.558-2.946a.48.48,0,1,1,.282.917l-9.557,2.946A.467.467,0,0,1,297.97,701.825Z" fill="#101e8e"/>
      </g>
      <g id="Grupo_1932" data-name="Grupo 1932">
        <path id="Trazado_10869" data-name="Trazado 10869" d="M315.87,709.688a.48.48,0,0,1-.141-.939l10.833-3.34a.48.48,0,0,1,.283.918l-10.833,3.34A.5.5,0,0,1,315.87,709.688Z" fill="#101e8e"/>
      </g>
      <g id="Grupo_1933" data-name="Grupo 1933">
        <path id="Trazado_10870" data-name="Trazado 10870" d="M294.372,705.3a.48.48,0,0,1-.141-.939l3.6-1.109a.48.48,0,1,1,.283.917l-3.6,1.109A.468.468,0,0,1,294.372,705.3Z" fill="#101e8e"/>
      </g>
      <g id="Grupo_1934" data-name="Grupo 1934">
        <path id="Trazado_10871" data-name="Trazado 10871" d="M315.87,709.688a.477.477,0,0,1-.333-.135l-3.6-3.48a.48.48,0,0,1,.668-.69l3.6,3.48a.48.48,0,0,1-.334.825Z" fill="#101e8e"/>
      </g>
      <g id="Grupo_1935" data-name="Grupo 1935">
        <path id="Trazado_10872" data-name="Trazado 10872" d="M294.372,705.3a.48.48,0,0,1-.333-.825l3.6-3.48a.48.48,0,1,1,.667.69l-3.6,3.48A.478.478,0,0,1,294.372,705.3Z" fill="#101e8e"/>
      </g>
      <g id="Grupo_1936" data-name="Grupo 1936">
        <path id="Trazado_10873" data-name="Trazado 10873" d="M326.7,706.348a.473.473,0,0,1-.333-.135l-3.6-3.48a.48.48,0,1,1,.668-.69l3.6,3.48a.48.48,0,0,1-.334.825Z" fill="#101e8e"/>
      </g>
      <g id="Grupo_1937" data-name="Grupo 1937">
        <path id="Trazado_10874" data-name="Trazado 10874" d="M312.272,706.208a.48.48,0,0,1-.141-.939l10.833-3.34a.48.48,0,1,1,.282.918l-10.832,3.339A.467.467,0,0,1,312.272,706.208Z" fill="#101e8e"/>
      </g>
      <g id="Grupo_1938" data-name="Grupo 1938">
        <path id="Trazado_10875" data-name="Trazado 10875" d="M312.272,719.705a.48.48,0,0,1-.141-.939l10.494-3.235v-8.553a.48.48,0,1,1,.96,0v8.907a.48.48,0,0,1-.338.459l-10.833,3.339A.467.467,0,0,1,312.272,719.705Z" fill="#101e8e"/>
      </g>
      <g id="Grupo_1941" data-name="Grupo 1941">
        <g id="Grupo_1939" data-name="Grupo 1939">
          <path id="Trazado_10876" data-name="Trazado 10876" d="M306.231,706.852l-2.962,1.963v4.931l4.976,1.535v-5.852Z" fill="#ff8300"/>
        </g>
        <g id="Grupo_1940" data-name="Grupo 1940">
          <path id="Trazado_10877" data-name="Trazado 10877" d="M308.245,715.761a.485.485,0,0,1-.141-.021l-6.248-1.927a.482.482,0,0,1-.339-.459v-5.236a.48.48,0,0,1,.215-.4l3.124-2.07a.478.478,0,0,1,.643.1l3.124,4a.478.478,0,0,1,.1.295v5.236a.48.48,0,0,1-.48.48ZM302.477,713l5.288,1.632v-4.42l-2.749-3.518-2.539,1.683Z" fill="#101e8e"/>
        </g>
      </g>
      <g id="Grupo_1942" data-name="Grupo 1942">
        <path id="Trazado_10878" data-name="Trazado 10878" d="M295.24,704.147" fill="#ff8300"/>
      </g>
      <g id="Grupo_1943" data-name="Grupo 1943">
        <path id="Trazado_10879" data-name="Trazado 10879" d="M316.514,689.845c0,3.4-6.159,12.986-6.159,12.986s-6.159-9.584-6.159-12.986a6.159,6.159,0,0,1,12.318,0Z" fill="#fff"/>
        <path id="Trazado_10880" data-name="Trazado 10880" d="M310.355,703.311a.482.482,0,0,1-.4-.22c-.254-.4-6.235-9.744-6.235-13.246a6.639,6.639,0,0,1,13.279,0c0,3.5-5.981,12.85-6.236,13.246A.48.48,0,0,1,310.355,703.311Zm0-19.145a5.686,5.686,0,0,0-5.679,5.679c0,2.729,4.32,9.9,5.679,12.084,1.36-2.188,5.68-9.355,5.68-12.084A5.686,5.686,0,0,0,310.355,684.166Z" fill="#101e8e"/>
      </g>
      <g id="Grupo_1944" data-name="Grupo 1944">
        <path id="Trazado_10881" data-name="Trazado 10881" d="M313.43,689.845a3.076,3.076,0,0,1-3.076,3.076,3.046,3.046,0,0,1-1.331-.3h0a3.075,3.075,0,0,1,3.828-4.57h0A3.067,3.067,0,0,1,313.43,689.845Z" fill="#ff8300"/>
      </g>
      <g id="Grupo_1945" data-name="Grupo 1945">
        <path id="Trazado_10882" data-name="Trazado 10882" d="M310.354,693.4a3.5,3.5,0,0,1-1.509-.337l-.035-.015a3.556,3.556,0,1,1,4.4-5.323.428.428,0,0,1,.032.04,3.557,3.557,0,0,1-2.886,5.635Zm-1.151-1.229.029.013a2.555,2.555,0,0,0,1.122.256,2.6,2.6,0,0,0,2.6-2.6,2.572,2.572,0,0,0-.464-1.482c-.01-.012-.019-.023-.028-.036a2.594,2.594,0,1,0-3.255,3.845Z" fill="#101e8e"/>
      </g>
    </g>
    <g id="Grupo_1949" data-name="Grupo 1949">
      <g id="Grupo_1947" data-name="Grupo 1947">
        <path id="Trazado_10883" data-name="Trazado 10883" d="M341.123,694.23a2.652,2.652,0,0,0-3.1,2.723v5.6h-1.6v-9.673h1.54v1.09a3.42,3.42,0,0,1,3.155-1.315Z" fill="#101e8e"/>
        <path id="Trazado_10884" data-name="Trazado 10884" d="M351.06,699.545a4.516,4.516,0,0,1-4.565,3.231,5.074,5.074,0,0,1-.094-10.143c2.5,0,4.9,2.066,4.884,5.5h-8.133a3.4,3.4,0,0,0,3.343,3.193,2.98,2.98,0,0,0,2.874-1.785Zm-1.541-2.836a3.325,3.325,0,0,0-3.118-2.63,3.364,3.364,0,0,0-3.155,2.63Z" fill="#101e8e"/>
        <path id="Trazado_10885" data-name="Trazado 10885" d="M356.939,702.55c-2.253.263-3.812-1.07-3.812-3.531V694.4h-1.315v-1.522h1.315v-2.066H354.7v2.066h2.2V694.4h-2.2v4.62a1.851,1.851,0,0,0,2.235,2.066Z" fill="#101e8e"/>
        <path id="Trazado_10886" data-name="Trazado 10886" d="M359.982,691.412h-1.6v-1.9h1.6Zm0,11.138h-1.6v-9.673h1.6Z" fill="#101e8e"/>
        <path id="Trazado_10887" data-name="Trazado 10887" d="M367.064,694.23a2.652,2.652,0,0,0-3.1,2.723v5.6h-1.6v-9.673h1.54v1.09a3.422,3.422,0,0,1,3.156-1.315Z" fill="#101e8e"/>
        <path id="Trazado_10888" data-name="Trazado 10888" d="M377.207,702.55h-1.541v-1.559a4.125,4.125,0,0,1-3.343,1.8,5.086,5.086,0,0,1,0-10.161,4.159,4.159,0,0,1,3.343,1.785v-1.541h1.541Zm-4.884-8.4a3.571,3.571,0,1,0,3.287,3.588A3.474,3.474,0,0,0,372.323,694.154Z" fill="#101e8e"/>
        <path id="Trazado_10889" data-name="Trazado 10889" d="M393.549,699.545a4.513,4.513,0,0,1-4.564,3.231,5.074,5.074,0,0,1-.094-10.143c2.5,0,4.9,2.066,4.884,5.5h-8.133a3.4,3.4,0,0,0,3.343,3.193,2.981,2.981,0,0,0,2.874-1.785Zm-1.54-2.836a3.325,3.325,0,0,0-3.118-2.63,3.364,3.364,0,0,0-3.155,2.63Z" fill="#101e8e"/>
        <path id="Trazado_10890" data-name="Trazado 10890" d="M403.43,702.55h-1.578v-5.879a2.306,2.306,0,0,0-2.366-2.573,2.468,2.468,0,0,0-2.536,2.536v5.916h-1.6v-9.673h1.54v1.052a3.565,3.565,0,0,1,2.818-1.3c2.367,0,3.719,1.691,3.719,4.1Z" fill="#101e8e"/>
      </g>
      <g id="Grupo_1948" data-name="Grupo 1948">
        <path id="Trazado_10891" data-name="Trazado 10891" d="M329.588,708.311a7.788,7.788,0,0,1,2.291-.374c2.08,0,3.51.862,3.51,2.925v5.59l-2.21.26v-.829h-.032a2.25,2.25,0,0,1-2.08.959,2.745,2.745,0,0,1-2.909-3.022,2.792,2.792,0,0,1,2.99-2.746,3.362,3.362,0,0,1,1.885.633,1.328,1.328,0,0,0,.016-.26c0-1.153-.536-1.4-1.625-1.4a5.413,5.413,0,0,0-2.194.5Zm2.194,6.581a1.109,1.109,0,1,0-1.268-1.105A1.135,1.135,0,0,0,331.782,714.892Z" fill="#101e8e"/>
        <path id="Trazado_10892" data-name="Trazado 10892" d="M341.5,708.327l2.534-.26v8.385l-2.339.26v-1.267h-.033a2.307,2.307,0,0,1-2.177,1.4c-2.292,0-3.055-1.462-3.055-3.542v-4.973l2.535-.26v5.054c0,.975.5,1.446,1.267,1.446s1.268-.471,1.268-1.446Z" fill="#101e8e"/>
        <path id="Trazado_10893" data-name="Trazado 10893" d="M344.632,710.424l.537-2.113h.8v-1.657l2.535-.975v2.632h1.446v2.113H348.5v2.925c0,.828.633,1.056,1.348,1.056a2.309,2.309,0,0,0,.667-.1l-.732,2.5a2.946,2.946,0,0,1-.39.032c-2.242,0-3.428-1.072-3.428-3.3v-3.12Z" fill="#101e8e"/>
        <path id="Trazado_10894" data-name="Trazado 10894" d="M350.725,712.39a4.66,4.66,0,1,1,4.647,4.452A4.544,4.544,0,0,1,350.725,712.39Zm4.647,2.1a2.1,2.1,0,1,0-2.112-2.1A2.129,2.129,0,0,0,355.372,714.486Z" fill="#101e8e"/>
        <path id="Trazado_10895" data-name="Trazado 10895" d="M361.464,713.966a2.515,2.515,0,0,0,1.836.764c.423,0,1.138-.065,1.138-.666,0-1.154-3.9,0-3.9-3.4,0-1.868,1.511-2.73,3.168-2.73a4.255,4.255,0,0,1,2.779,1.17l-1.4,1.414a2.292,2.292,0,0,0-1.333-.471c-.308,0-.861.065-.861.5,0,1.4,3.9,0,3.9,3.477,0,1.836-1.641,2.811-3.282,2.811a4.715,4.715,0,0,1-3.332-1.137Z" fill="#101e8e"/>
        <path id="Trazado_10896" data-name="Trazado 10896" d="M370.416,713.966a1.681,1.681,0,0,0,1.365.6,3.945,3.945,0,0,0,2.421-.975l1.333,1.95a6.614,6.614,0,0,1-3.8,1.3,4.453,4.453,0,0,1-.113-8.9,4.7,4.7,0,0,1,4.176,2.568Zm2.34-3.575a1.5,1.5,0,0,0-1.121-.341,2.092,2.092,0,0,0-1.966,2.112v.293Z" fill="#101e8e"/>
        <path id="Trazado_10897" data-name="Trazado 10897" d="M376.33,708.327l2.242-.26v1.593h.033c.487-1.463,1.316-1.723,2.7-1.723l-.715,2.535c-1.267-.016-1.722.488-1.722,1.739v4.241l-2.535.26Z" fill="#101e8e"/>
        <path id="Trazado_10898" data-name="Trazado 10898" d="M385.233,716.842H385.2l-3.933-8.5,2.422-.407,1.576,4.177,1.56-4.177,2.486.39Z" fill="#101e8e"/>
        <path id="Trazado_10899" data-name="Trazado 10899" d="M392.463,705.906l-1.625,1.593L389,706.166l1.593-1.625Zm-.374,10.546-2.534.26v-8.385l2.534-.26Z" fill="#101e8e"/>
        <path id="Trazado_10900" data-name="Trazado 10900" d="M399.011,710.8a2.538,2.538,0,0,0-1.641-.585,2.029,2.029,0,0,0-2.08,2.015,2.151,2.151,0,0,0,2.129,2.34,2.306,2.306,0,0,0,1.608-.6l1.382,1.8a4.7,4.7,0,0,1-3.039,1.072,4.351,4.351,0,0,1-4.615-4.306,4.4,4.4,0,0,1,4.615-4.6,4.769,4.769,0,0,1,2.957,1.024Z" fill="#101e8e"/>
        <path id="Trazado_10901" data-name="Trazado 10901" d="M403.8,705.906l-1.625,1.593-1.836-1.333,1.593-1.625Zm-.373,10.546-2.535.26v-8.385l2.535-.26Z" fill="#101e8e"/>
        <path id="Trazado_10902" data-name="Trazado 10902" d="M404.079,712.39a4.66,4.66,0,1,1,4.647,4.452A4.544,4.544,0,0,1,404.079,712.39Zm4.647,2.1a2.1,2.1,0,1,0-2.112-2.1A2.129,2.129,0,0,0,408.726,714.486Z" fill="#101e8e"/>
      </g>
    </g>
  </g>
</svg>
