<?xml version="1.0" encoding="UTF-8"?>
<svg xmlns="http://www.w3.org/2000/svg" xmlns:xlink="http://www.w3.org/1999/xlink" width="20pt" height="20pt" viewBox="0 0 20 20" version="1.1">
<defs>
<linearGradient id="linear0" gradientUnits="userSpaceOnUse" x1="32.5176" y1="702.5957" x2="31.6766" y2="792.5627" gradientTransform="matrix(0.3125,0,0,0.3125,0,-226.875)">
<stop offset="0" style="stop-color:rgb(41.568627%,94.509804%,98.431373%);stop-opacity:1;"/>
<stop offset="0.285" style="stop-color:rgb(34.509804%,87.843137%,95.686275%);stop-opacity:1;"/>
<stop offset="0.858" style="stop-color:rgb(15.686275%,70.196078%,88.627451%);stop-opacity:1;"/>
<stop offset="1" style="stop-color:rgb(10.588235%,65.490196%,86.666667%);stop-opacity:1;"/>
<stop offset="1" style="stop-color:rgb(10.588235%,65.490196%,86.666667%);stop-opacity:1;"/>
</linearGradient>
<linearGradient id="linear1" gradientUnits="userSpaceOnUse" x1="31.5" y1="741.3115" x2="31.5" y2="780.6255" gradientTransform="matrix(0.3125,0,0,0.3125,0,-226.875)">
<stop offset="0.096" style="stop-color:rgb(36.862745%,42.745098%,48.235294%);stop-opacity:1;"/>
<stop offset="0.577" style="stop-color:rgb(36.078431%,41.960784%,47.45098%);stop-opacity:1;"/>
<stop offset="0.967" style="stop-color:rgb(31.764706%,36.078431%,41.176471%);stop-opacity:1;"/>
</linearGradient>
<linearGradient id="linear2" gradientUnits="userSpaceOnUse" x1="30" y1="741.8115" x2="30" y2="781.1255" gradientTransform="matrix(0.3125,0,0,0.3125,0,-226.875)">
<stop offset="0.096" style="stop-color:rgb(36.862745%,42.745098%,48.235294%);stop-opacity:1;"/>
<stop offset="0.577" style="stop-color:rgb(36.078431%,41.960784%,47.45098%);stop-opacity:1;"/>
<stop offset="0.993" style="stop-color:rgb(31.764706%,36.078431%,41.176471%);stop-opacity:1;"/>
</linearGradient>
<linearGradient id="linear3" gradientUnits="userSpaceOnUse" x1="39.5" y1="741.3115" x2="39.5" y2="780.6255" gradientTransform="matrix(0.3125,0,0,0.3125,0,-226.875)">
<stop offset="0.096" style="stop-color:rgb(36.862745%,42.745098%,48.235294%);stop-opacity:1;"/>
<stop offset="0.577" style="stop-color:rgb(36.078431%,41.960784%,47.45098%);stop-opacity:1;"/>
<stop offset="0.993" style="stop-color:rgb(31.764706%,36.078431%,41.176471%);stop-opacity:1;"/>
</linearGradient>
<linearGradient id="linear4" gradientUnits="userSpaceOnUse" x1="35" y1="741.3115" x2="35" y2="780.6255" gradientTransform="matrix(0.3125,0,0,0.3125,0,-226.875)">
<stop offset="0.096" style="stop-color:rgb(36.862745%,42.745098%,48.235294%);stop-opacity:1;"/>
<stop offset="0.577" style="stop-color:rgb(36.078431%,41.960784%,47.45098%);stop-opacity:1;"/>
<stop offset="0.993" style="stop-color:rgb(31.764706%,36.078431%,41.176471%);stop-opacity:1;"/>
</linearGradient>
</defs>
<g id="surface1">
<path style=" stroke:none;fill-rule:nonzero;fill:url(#linear0);" d="M 5.9375 2.8125 L 14.0625 2.8125 C 15.789062 2.8125 17.1875 4.210938 17.1875 5.9375 L 17.1875 14.0625 C 17.1875 15.789062 15.789062 17.1875 14.0625 17.1875 L 5.9375 17.1875 C 4.210938 17.1875 2.8125 15.789062 2.8125 14.0625 L 2.8125 5.9375 C 2.8125 4.210938 4.210938 2.8125 5.9375 2.8125 Z M 5.9375 2.8125 "/>
<path style=" stroke:none;fill-rule:nonzero;fill:rgb(100%,100%,100%);fill-opacity:1;" d="M 10.449219 5.15625 C 8.019531 5.167969 6.09375 7.230469 6.09375 9.660156 L 6.09375 9.941406 C 6.09375 10.347656 5.957031 10.75 5.671875 11.042969 C 5.476562 11.242188 5.207031 11.40625 4.84375 11.40625 C 4.84375 11.40625 6.09375 13.90625 7.96875 13.90625 L 10.339844 13.90625 C 12.769531 13.90625 14.832031 11.980469 14.84375 9.550781 C 14.855469 7.121094 12.882812 5.144531 10.449219 5.15625 Z M 10.449219 5.15625 "/>
<path style=" stroke:none;fill-rule:nonzero;fill:url(#linear1);" d="M 15 9.707031 C 15.007812 8.421875 14.515625 7.21875 13.617188 6.324219 C 12.765625 5.46875 11.640625 5 10.449219 5 C 10.441406 5 10.433594 5 10.429688 5 C 7.929688 5.011719 5.898438 7.171875 5.898438 9.816406 L 5.898438 10.097656 C 5.898438 10.441406 5.78125 10.765625 5.574219 10.984375 C 5.40625 11.164062 5.21875 11.25 5 11.25 C 4.890625 11.25 4.792969 11.304688 4.734375 11.398438 C 4.679688 11.488281 4.671875 11.601562 4.71875 11.699219 C 4.757812 11.78125 5.5 13.28125 6.726562 14 C 6.777344 14.730469 7.378906 15.3125 8.125 15.3125 C 8.734375 15.3125 9.25 14.921875 9.445312 14.375 L 10.324219 14.375 C 10.347656 14.375 10.371094 14.371094 10.398438 14.371094 C 10.589844 14.917969 11.105469 15.3125 11.71875 15.3125 C 12.496094 15.3125 13.125 14.683594 13.125 13.90625 C 13.125 13.757812 13.101562 13.613281 13.058594 13.480469 C 14.226562 12.628906 14.992188 11.257812 15 9.707031 Z M 10.324219 13.75 L 9.515625 13.75 C 9.4375 13.046875 8.847656 12.5 8.125 12.5 C 7.554688 12.5 7.0625 12.84375 6.84375 13.332031 C 6.214844 12.890625 5.734375 12.207031 5.484375 11.789062 C 5.683594 11.710938 5.867188 11.585938 6.03125 11.414062 C 6.347656 11.074219 6.523438 10.605469 6.523438 10.097656 L 6.523438 9.816406 C 6.523438 7.515625 8.277344 5.636719 10.429688 5.625 C 11.460938 5.632812 12.4375 6.023438 13.175781 6.765625 C 13.953125 7.542969 14.378906 8.585938 14.375 9.707031 C 14.367188 11.9375 12.546875 13.75 10.324219 13.75 Z M 10.324219 13.75 "/>
<path style=" stroke:none;fill-rule:nonzero;fill:url(#linear2);" d="M 9.84375 8.59375 C 9.84375 8.851562 9.632812 9.0625 9.375 9.0625 C 9.117188 9.0625 8.90625 8.851562 8.90625 8.59375 C 8.90625 8.335938 9.117188 8.125 9.375 8.125 C 9.632812 8.125 9.84375 8.335938 9.84375 8.59375 Z M 9.84375 8.59375 "/>
<path style=" stroke:none;fill-rule:nonzero;fill:url(#linear3);" d="M 12.8125 8.59375 C 12.8125 8.851562 12.601562 9.0625 12.34375 9.0625 C 12.085938 9.0625 11.875 8.851562 11.875 8.59375 C 11.875 8.335938 12.085938 8.125 12.34375 8.125 C 12.601562 8.125 12.8125 8.335938 12.8125 8.59375 Z M 12.8125 8.59375 "/>
<path style=" stroke:none;fill-rule:nonzero;fill:url(#linear4);" d="M 12.636719 10.035156 C 12.484375 9.957031 12.296875 10.019531 12.21875 10.171875 C 11.96875 10.664062 11.488281 10.957031 10.9375 10.957031 C 10.386719 10.957031 9.90625 10.664062 9.65625 10.171875 C 9.578125 10.019531 9.390625 9.957031 9.234375 10.035156 C 9.082031 10.113281 9.019531 10.304688 9.101562 10.457031 C 9.453125 11.152344 10.15625 11.582031 10.9375 11.582031 C 11.714844 11.582031 12.421875 11.152344 12.773438 10.457031 C 12.851562 10.304688 12.792969 10.113281 12.636719 10.035156 Z M 12.636719 10.035156 "/>
</g>
</svg>
